<svg width="225" height="204" viewBox="0 0 225 204" fill="none" xmlns="http://www.w3.org/2000/svg">
<path d="M28.0695 139.774H13.9579C13.8728 139.774 13.7912 139.746 13.7311 139.694C13.6709 139.643 13.6372 139.573 13.6372 139.5V121.009H9.44858C9.38831 121.01 9.32906 120.995 9.27788 120.968C9.2267 120.941 9.18576 120.902 9.15994 120.855C9.12878 120.811 9.1123 120.761 9.1123 120.71C9.1123 120.658 9.12878 120.608 9.15994 120.564L20.7058 108.098C20.7365 108.067 20.7748 108.042 20.818 108.024C20.8612 108.007 20.9083 107.998 20.9559 107.998C21.0036 107.998 21.0507 108.007 21.0939 108.024C21.1371 108.042 21.1754 108.067 21.2061 108.098L32.7519 120.564C32.7892 120.605 32.8125 120.653 32.8191 120.704C32.8257 120.755 32.8154 120.807 32.7893 120.853C32.7632 120.9 32.7224 120.939 32.6716 120.966C32.6207 120.994 32.5619 121.009 32.5018 121.009H28.294V139.5C28.2972 139.561 28.2769 139.62 28.2363 139.67C28.1957 139.72 28.137 139.756 28.0695 139.774ZM14.2914 139.226H27.7616V120.734C27.7616 120.662 27.7954 120.592 27.8555 120.54C27.9157 120.489 27.9972 120.46 28.0823 120.46H31.9309L21.0265 108.712L10.1221 120.46H13.9707C14.0558 120.46 14.1373 120.489 14.1975 120.54C14.2576 120.592 14.2914 120.662 14.2914 120.734V139.226Z" fill="#0095E8"/>
<path d="M169.722 139.774H155.61C155.525 139.774 155.444 139.746 155.384 139.694C155.324 139.643 155.29 139.573 155.29 139.5V121.009H151.082C151.022 121.009 150.963 120.994 150.912 120.966C150.861 120.939 150.821 120.9 150.794 120.853C150.768 120.807 150.758 120.755 150.765 120.704C150.771 120.653 150.794 120.605 150.832 120.564L162.41 108.098C162.44 108.067 162.479 108.042 162.522 108.024C162.565 108.007 162.612 107.998 162.66 107.998C162.708 107.998 162.755 108.007 162.798 108.024C162.841 108.042 162.879 108.067 162.91 108.098L174.488 120.564C174.525 120.605 174.548 120.653 174.555 120.704C174.562 120.755 174.551 120.807 174.525 120.853C174.499 120.9 174.458 120.939 174.408 120.966C174.357 120.994 174.298 121.009 174.238 121.009H170.03V139.5C170.03 139.571 169.998 139.639 169.941 139.69C169.883 139.741 169.805 139.772 169.722 139.774ZM155.944 139.226H169.414V120.734C169.414 120.662 169.448 120.592 169.508 120.54C169.568 120.489 169.65 120.46 169.735 120.46H173.584L162.679 108.712L151.775 120.46H155.623C155.708 120.46 155.79 120.489 155.85 120.54C155.91 120.592 155.944 120.662 155.944 120.734V139.226Z" fill="#0095E8"/>
<path d="M205.464 170.474H191.352C191.267 170.474 191.185 170.445 191.125 170.394C191.065 170.342 191.031 170.272 191.031 170.2V151.708H186.843C186.783 151.708 186.724 151.693 186.673 151.666C186.622 151.639 186.581 151.599 186.555 151.553C186.529 151.507 186.519 151.455 186.525 151.404C186.532 151.353 186.555 151.304 186.593 151.264L198.138 138.803C198.169 138.772 198.207 138.747 198.251 138.729C198.294 138.712 198.341 138.703 198.389 138.703C198.436 138.703 198.483 138.712 198.526 138.729C198.57 138.747 198.608 138.772 198.639 138.803L210.185 151.264C210.222 151.304 210.245 151.353 210.252 151.404C210.258 151.455 210.248 151.507 210.222 151.553C210.196 151.599 210.155 151.639 210.104 151.666C210.053 151.693 209.994 151.708 209.934 151.708H205.727V170.2C205.728 170.265 205.702 170.328 205.654 170.378C205.606 170.428 205.538 170.462 205.464 170.474ZM191.692 169.925H205.162V151.434C205.162 151.361 205.196 151.291 205.256 151.24C205.316 151.189 205.398 151.16 205.483 151.16H209.331L198.427 139.412L187.523 151.16H191.371C191.456 151.161 191.536 151.19 191.596 151.242C191.656 151.293 191.69 151.362 191.692 151.434V169.925Z" fill="#0095E8"/>
<path d="M190.821 98.7698H176.709C176.624 98.7698 176.543 98.7409 176.483 98.6894C176.422 98.638 176.389 98.5682 176.389 98.4954V80.0041H172.181C172.12 80.0044 172.06 79.9895 172.009 79.9613C171.958 79.933 171.917 79.8926 171.892 79.845C171.867 79.7982 171.857 79.7463 171.863 79.695C171.87 79.6436 171.893 79.5949 171.931 79.5542L183.476 67.0932C183.508 67.0619 183.547 67.0368 183.59 67.0195C183.634 67.0023 183.682 66.9934 183.73 66.9934C183.778 66.9934 183.826 67.0023 183.869 67.0195C183.913 67.0368 183.952 67.0619 183.983 67.0932L195.529 79.5542C195.566 79.5951 195.588 79.6439 195.595 79.6951C195.601 79.7463 195.591 79.7981 195.565 79.8446C195.539 79.8911 195.499 79.9307 195.448 79.9588C195.398 79.987 195.339 80.0026 195.279 80.0041H191.071V98.4954C191.073 98.5588 191.049 98.6208 191.003 98.6709C190.958 98.7209 190.893 98.7558 190.821 98.7698ZM177.049 98.2211H190.519V79.7298C190.519 79.657 190.553 79.5872 190.613 79.5358C190.674 79.4843 190.755 79.4554 190.84 79.4554H194.689L183.784 67.7022L172.88 79.4554H176.729C176.814 79.4554 176.895 79.4843 176.955 79.5358C177.015 79.5872 177.049 79.657 177.049 79.7298V98.2211Z" fill="#0095E8"/>
<path d="M57.5043 100.926H43.3927C43.3077 100.926 43.2261 100.897 43.1659 100.846C43.1058 100.794 43.072 100.725 43.072 100.652V82.1606H38.8706C38.8099 82.1614 38.7502 82.1475 38.6985 82.1205C38.6467 82.0934 38.6049 82.0543 38.5781 82.0078C38.5512 81.9613 38.5403 81.9092 38.5467 81.8575C38.5531 81.8059 38.5764 81.7569 38.614 81.7162L50.1919 69.2497C50.2227 69.2185 50.261 69.1934 50.3042 69.1762C50.3474 69.1591 50.3945 69.1501 50.4421 69.1501C50.4898 69.1501 50.5368 69.1591 50.5801 69.1762C50.6233 69.1934 50.6616 69.2185 50.6923 69.2497L62.2702 81.7162C62.3075 81.7565 62.3307 81.8051 62.3373 81.8562C62.3439 81.9073 62.3336 81.959 62.3075 82.0053C62.2814 82.0517 62.2407 82.0908 62.1898 82.1183C62.139 82.1457 62.0801 82.1604 62.02 82.1606H57.8122V100.652C57.8123 100.723 57.7802 100.791 57.7228 100.842C57.6654 100.893 57.5871 100.923 57.5043 100.926ZM43.7263 100.378H57.1964V81.8863C57.1964 81.8135 57.2302 81.7437 57.2904 81.6923C57.3505 81.6408 57.4321 81.6119 57.5171 81.6119H61.3658L50.4613 69.8642L39.5569 81.6119H43.4056C43.4906 81.6119 43.5722 81.6408 43.6323 81.6923C43.6925 81.7437 43.7263 81.8135 43.7263 81.8863V100.378Z" fill="#0095E8"/>
<path d="M79.9555 170.474H65.8439C65.7588 170.474 65.6772 170.445 65.6171 170.394C65.5569 170.342 65.5232 170.272 65.5232 170.2V151.708H61.3153C61.2552 151.708 61.1964 151.693 61.1456 151.666C61.0947 151.639 61.0539 151.599 61.0278 151.553C61.0018 151.507 60.9914 151.455 60.998 151.404C61.0046 151.353 61.0279 151.304 61.0652 151.264L72.6431 138.803C72.6738 138.772 72.7121 138.747 72.7553 138.729C72.7985 138.712 72.8456 138.703 72.8933 138.703C72.9409 138.703 72.988 138.712 73.0312 138.729C73.0744 138.747 73.1127 138.772 73.1434 138.803L84.7213 151.264C84.759 151.305 84.7823 151.354 84.7887 151.405C84.795 151.457 84.7842 151.509 84.7573 151.556C84.7304 151.602 84.6887 151.641 84.6369 151.668C84.5851 151.695 84.5254 151.709 84.4648 151.708H80.2634V170.2C80.2634 170.271 80.2314 170.339 80.174 170.39C80.1166 170.441 80.0383 170.471 79.9555 170.474ZM66.1774 169.925H79.6476V151.434C79.6476 151.361 79.6814 151.291 79.7415 151.24C79.8017 151.189 79.8832 151.16 79.9683 151.16H83.8169L72.9125 139.412L62.0081 151.16H65.8567C65.9418 151.16 66.0233 151.189 66.0835 151.24C66.1436 151.291 66.1774 151.361 66.1774 151.434V169.925Z" fill="#0095E8"/>
<path d="M114.489 204C150.623 204 179.915 201.094 179.915 197.509C179.915 193.924 150.623 191.018 114.489 191.018C78.3549 191.018 49.0625 193.924 49.0625 197.509C49.0625 201.094 78.3549 204 114.489 204Z" fill="#0095E8"/>
<path opacity="0.5" d="M114.489 204C150.623 204 179.915 201.094 179.915 197.509C179.915 193.924 150.623 191.018 114.489 191.018C78.3549 191.018 49.0625 193.924 49.0625 197.509C49.0625 201.094 78.3549 204 114.489 204Z" fill="white"/>
<path d="M156.356 41.7211C157.234 37.7228 156.712 33.592 154.856 29.8464C153 26.1009 149.893 22.9075 145.924 20.6666C141.954 18.4258 137.3 17.2372 132.545 17.25C127.789 17.2628 123.144 18.4765 119.191 20.7387C116.321 14.7693 111.117 9.83717 104.469 6.78418C97.8205 3.73118 90.1396 2.74656 82.7373 3.99837C75.3349 5.25018 68.6698 8.66082 63.8796 13.6481C59.0895 18.6355 56.4712 24.8903 56.4717 31.3451C56.4717 31.6908 56.4717 32.031 56.4717 32.3712C51.7919 33.5121 47.713 35.9946 44.9188 39.4026C42.1247 42.8106 40.7852 46.9368 41.1251 51.0892C41.4649 55.2417 43.4634 59.1679 46.7854 62.2096C50.1075 65.2513 54.551 67.2235 59.371 67.7954V67.9875H155.317C159.215 67.8718 162.916 66.4947 165.673 64.1344C168.43 61.7741 170.037 58.6067 170.169 55.272C170.301 51.9374 168.948 48.6842 166.384 46.1698C163.82 43.6555 160.236 42.0674 156.356 41.7266V41.7211Z" fill="#263238" stroke="#263238" stroke-linecap="round" stroke-linejoin="round"/>
<path d="M156.356 39.252C157.234 35.2537 156.712 31.1228 154.856 27.3773C153 23.6318 149.893 20.4384 145.924 18.1975C141.954 15.9566 137.3 14.7681 132.545 14.7809C127.789 14.7937 123.144 16.0073 119.191 18.2696C116.321 12.3006 111.118 7.36876 104.47 4.31571C97.8225 1.26266 90.1424 0.277628 82.7404 1.52872C75.3384 2.77982 68.6733 6.18949 63.8827 11.1759C59.092 16.1622 56.4727 22.4162 56.4717 28.8705C56.4717 29.2162 56.4717 29.5564 56.4717 29.8966C51.7919 31.0375 47.713 33.52 44.9188 36.928C42.1247 40.336 40.7852 44.4622 41.1251 48.6146C41.4649 52.7671 43.4634 56.6934 46.7854 59.735C50.1075 62.7767 54.551 64.7489 59.371 65.3208V65.5129H155.317C159.215 65.3972 162.916 64.0201 165.673 61.6598C168.43 59.2995 170.037 56.1321 170.169 52.7974C170.301 49.4628 168.948 46.2096 166.384 43.6952C163.82 41.1809 160.236 39.5928 156.356 39.252Z" fill="#0095E8" stroke="#263238" stroke-linecap="round" stroke-linejoin="round"/>
<path d="M123.087 112.806L119.052 114.616C119.052 114.616 114.633 116.262 111.746 117.574C108.86 118.885 94.639 128.263 94.639 128.263L91.759 128.427L90.0271 129.415C90.0271 129.415 87.1406 129.909 87.1406 130.403C87.1406 130.896 87.7179 131.056 88.2952 131.056C89.1638 130.868 90.0035 130.594 90.7968 130.238C90.7968 130.238 88.8404 132.685 89.6102 132.685C90.7247 132.784 91.8318 132.936 92.9264 133.141C94.1996 132.938 95.4841 132.791 96.775 132.702C97.7371 132.702 100.04 128.263 100.04 128.263C100.04 128.263 116.57 122.671 118.686 121.354C120.803 120.038 126.948 116.751 126.948 116.751L123.087 112.806Z" fill="white" stroke="#263238" stroke-linecap="round" stroke-linejoin="round"/>
<path d="M138.602 99.2964L120.584 113.299L125.78 118.561L135.773 115.275L139.231 99.4884L138.602 99.2964Z" fill="#0095E8" stroke="#263238" stroke-linecap="round" stroke-linejoin="round"/>
<path d="M122.989 111.434L120.584 113.299L125.78 118.561L128.878 117.541L122.989 111.434Z" fill="#263238" stroke="#263238" stroke-linecap="round" stroke-linejoin="round"/>
<path d="M170.051 186.919C170.051 186.919 175.772 192.011 176.356 194.507C176.94 197.004 175.542 199.204 173.207 198.601C170.872 197.997 168.768 191.813 168.184 190.716C167.601 189.618 166.901 188.417 166.901 188.417C166.901 188.417 168.652 186.419 170.051 186.919Z" fill="#0095E8" stroke="#263238" stroke-linecap="round" stroke-linejoin="round"/>
<path d="M176.409 194.776C176.832 197.157 175.453 199.166 173.202 198.617C172.387 198.414 171.604 197.52 170.905 196.422C172.432 194.31 174.889 194.425 176.409 194.776Z" fill="white" stroke="#263238" stroke-linecap="round" stroke-linejoin="round"/>
<path d="M170.109 194.979C171.392 196.477 173.022 198.085 174.253 197.805C175.485 197.525 176.132 195.544 176.357 194.513C176.934 197.004 175.536 199.188 173.208 198.59C172.066 198.31 170.988 196.691 170.109 194.979Z" fill="white" stroke="#263238" stroke-linecap="round" stroke-linejoin="round"/>
<path d="M168.884 189.717C168.884 189.717 171.45 188.516 171.572 188.916C171.694 189.317 169.121 190.414 168.769 190.414C168.416 190.414 168.185 190.315 168.884 189.717Z" fill="white" stroke="#263238" stroke-width="0.5" stroke-linecap="round" stroke-linejoin="round"/>
<path d="M169.469 190.414C169.469 190.414 172.035 189.218 172.157 189.618C172.278 190.019 169.706 191.116 169.354 191.116C169.001 191.116 168.77 191.018 169.469 190.414Z" fill="white" stroke="#263238" stroke-width="0.5" stroke-linecap="round" stroke-linejoin="round"/>
<path d="M170.051 191.116C170.051 191.116 172.617 189.915 172.739 190.315C172.861 190.716 170.288 191.813 169.936 191.813C169.583 191.813 169.352 191.714 170.051 191.116Z" fill="white" stroke="#263238" stroke-width="0.5" stroke-linecap="round" stroke-linejoin="round"/>
<path d="M170.636 191.813C170.636 191.813 173.202 190.617 173.324 191.012C173.445 191.407 170.873 192.51 170.521 192.51C170.168 192.51 169.937 192.411 170.636 191.813Z" fill="white" stroke="#263238" stroke-width="0.5" stroke-linecap="round" stroke-linejoin="round"/>
<path d="M123.952 191.5C123.952 191.5 126.184 194.161 126.383 195.67C126.582 197.179 125.1 197.218 123.214 197.048C121.328 196.878 119.077 198.068 116.421 198.008C113.766 197.947 110.693 196.954 112.169 195.873C113.644 194.792 117.493 193.904 118.327 193.284C118.824 192.911 119.291 192.509 119.725 192.082L123.952 191.5Z" fill="#0095E8" stroke="#263238" stroke-linecap="round" stroke-linejoin="round"/>
<path d="M112.169 195.874C112.688 195.525 113.257 195.235 113.863 195.012C114.541 195.323 115.138 195.749 115.616 196.264C116.095 196.779 116.446 197.373 116.646 198.008H116.416C113.76 197.948 110.694 196.955 112.169 195.874Z" fill="white" stroke="#263238" stroke-linecap="round" stroke-linejoin="round"/>
<path d="M118.57 192.933C118.57 192.933 121.309 194.156 120.616 194.398C119.924 194.639 117.845 193.267 118.57 192.933Z" fill="white" stroke="#263238" stroke-width="0.5" stroke-linecap="round" stroke-linejoin="round"/>
<path d="M117.505 193.179C117.505 193.179 120.244 194.403 119.551 194.644C118.858 194.886 116.78 193.514 117.505 193.179Z" fill="white" stroke="#263238" stroke-width="0.5" stroke-linecap="round" stroke-linejoin="round"/>
<path d="M116.89 193.542C116.89 193.542 119.628 194.765 118.936 195.007C118.243 195.248 116.165 193.876 116.89 193.542Z" fill="white" stroke="#263238" stroke-width="0.5" stroke-linecap="round" stroke-linejoin="round"/>
<path d="M115.773 193.98C115.773 193.98 118.511 195.204 117.819 195.445C117.126 195.687 115.035 194.309 115.773 193.98Z" fill="white" stroke="#263238" stroke-width="0.5" stroke-linecap="round" stroke-linejoin="round"/>
<path d="M111.862 196.209C113.782 197.176 116.066 197.465 118.231 197.015C120.242 196.637 122.283 196.395 124.338 196.291C125.037 196.274 125.73 196.174 126.397 195.995C126.346 197.185 124.96 197.207 123.19 197.048C121.304 196.873 119.052 198.069 116.397 198.008C114.036 197.953 111.342 197.152 111.862 196.209Z" fill="white" stroke="#263238" stroke-linecap="round" stroke-linejoin="round"/>
<path d="M152.002 132.855C152.002 132.855 150.655 148.899 151.469 152.79C152.284 156.68 154.292 168.263 154.292 168.263C154.292 168.263 157.332 170.162 160.366 174.354C163.4 178.546 170.052 186.935 170.052 186.935C170.052 186.935 170.289 188.433 168.185 188.933C168.185 188.933 167.133 189.333 166.55 188.933C165.966 188.532 146.024 172.757 143.67 169.465C141.315 166.173 138.185 145.914 138.185 145.914L135.151 145.415L122.323 166.387L124.555 191.879C124.555 191.879 124.728 192.757 123.272 193.114C121.816 193.471 120.642 193.597 119.77 192.955C118.897 192.313 112.143 164.395 112.714 163.396C113.285 162.398 126.229 134.951 126.229 134.951L127.274 132.658C127.274 132.658 139.532 133.854 145.017 132.954C150.501 132.054 151.54 131.341 152.002 132.855Z" fill="#263238" stroke="#263238" stroke-linecap="round" stroke-linejoin="round"/>
<path d="M135.152 145.398L128.494 143.703" stroke="white" stroke-linecap="round" stroke-linejoin="round"/>
<path d="M134.445 145.7L125.343 144.801" stroke="white" stroke-linecap="round" stroke-linejoin="round"/>
<path d="M149.911 135.961C149.911 135.961 144.985 138.649 149.911 140.444" stroke="white" stroke-linecap="round" stroke-linejoin="round"/>
<path d="M135.966 137.058L135.21 139.648L133.183 141.382L135.71 143.324" stroke="white" stroke-linecap="round" stroke-linejoin="round"/>
<path d="M164.824 106.364C160.334 103.247 154.76 99.4831 154.76 99.4831C154.76 99.4831 142.938 99.2527 138.602 99.2966L132.509 115.933C132.509 115.933 126.909 132.504 127.14 133.206C127.371 133.909 131.348 135.5 140.219 136.4C149.09 137.3 152.823 134.106 153.047 133.108C153.144 132.203 153.066 131.291 152.816 130.408L155.85 125.815L165.889 111.692C166.494 110.844 166.72 109.837 166.524 108.857C166.329 107.877 165.725 106.992 164.824 106.364Z" fill="#0095E8" stroke="#263238" stroke-linecap="round" stroke-linejoin="round"/>
<path d="M161.316 103.933C157.878 101.574 154.78 99.4832 154.78 99.4832C154.78 99.4832 150.854 99.4064 146.704 99.3516C145.652 101.404 143.837 105.596 145.332 107.67C147.153 110.227 153.176 110.99 161.316 103.933Z" fill="#263238" stroke="#263238" stroke-linecap="round" stroke-linejoin="round"/>
<path d="M155.973 82.3744C155.973 82.3744 152.592 83.1755 151.188 84.9698C149.783 86.764 145.703 97.2552 145.819 98.1386C145.934 99.022 151.188 98.1386 151.188 98.1386C151.188 98.1386 147.57 104.63 147.57 105.727C147.57 106.825 149.206 107.428 151.303 107.028C153.401 106.627 160.565 96.092 160.565 96.092C160.565 96.092 162.689 98.199 164.029 97.4747C165.569 96.6462 165.081 94.9781 163.914 94.9781C162.746 94.9781 167.179 90.8848 165.665 88.1907C164.151 85.4965 157.377 81.48 155.973 82.3744Z" fill="white" stroke="#263238" stroke-linecap="round" stroke-linejoin="round"/>
<path d="M154.689 79.1866C154.689 79.1866 148.152 79.1866 147.8 81.8807C147.447 84.5748 150.84 85.7765 154.573 85.2772C158.306 84.7779 161.693 84.9754 162.161 85.4747C162.63 85.974 157.607 86.9727 158.775 87.6695C159.453 88.0864 160.275 88.2987 161.109 88.2731C161.109 88.2731 159.474 88.6682 159.589 89.6668C159.705 90.6654 160.725 95.077 161.514 95.077C162.303 95.077 163.887 94.9892 163.887 94.9892C165.365 94.3533 166.707 93.5094 167.857 92.4926C169.609 90.8959 170.07 87.4994 167.857 85.5076C165.644 83.5158 163.887 81.5789 162.136 79.9822C160.385 78.3855 158.749 76.69 155.247 76.2894C151.745 75.8889 149.904 77.085 154.689 79.1866Z" fill="#263238" stroke="#263238" stroke-linecap="round" stroke-linejoin="round"/>
<path d="M168.319 89.5078C168.44 90.0928 168.464 90.6894 168.39 91.2801" stroke="white" stroke-linecap="round" stroke-linejoin="round"/>
<path d="M156.325 82.3357C156.325 82.3357 149.161 82.9338 151.835 84.1025C154.51 85.2713 158.686 83.0819 163.901 84.8488C164.78 85.1206 165.584 85.5472 166.259 86.101C166.934 86.6548 167.466 87.3236 167.82 88.0642" stroke="white" stroke-linecap="round" stroke-linejoin="round"/>
<path d="M160.675 86.989C160.675 86.989 165.569 89.0357 166.217 92.0096" stroke="white" stroke-linecap="round" stroke-linejoin="round"/>
<path d="M151.187 98.1552C151.187 98.1552 156.793 97.8589 158.306 96.7615" stroke="#263238" stroke-linecap="round" stroke-linejoin="round"/>
<path d="M149.436 94.1606C149.436 94.1606 153.521 95.1593 154.689 93.0632" stroke="#263238" stroke-linecap="round" stroke-linejoin="round"/>
<path d="M153.99 92.6628L155.741 93.2664" stroke="#263238" stroke-linecap="round" stroke-linejoin="round"/>
<path d="M150.72 89.5676C150.72 89.5676 147.103 89.9682 147.103 90.4675C147.103 90.9668 149.437 92.366 149.437 92.366" fill="white"/>
<path d="M150.72 89.5676C150.72 89.5676 147.103 89.9682 147.103 90.4675C147.103 90.9668 149.437 92.366 149.437 92.366" stroke="#263238" stroke-linecap="round" stroke-linejoin="round"/>
<path d="M151.18 88.6074C151.013 89.0409 150.673 89.3317 150.416 89.2604C150.16 89.189 150.096 88.783 150.269 88.3495C150.442 87.916 150.776 87.6252 151.032 87.6965C151.289 87.7679 151.353 88.1794 151.18 88.6074Z" fill="#263238"/>
<path d="M154.26 89.941C154.087 90.3745 153.747 90.6653 153.496 90.5939C153.246 90.5226 153.176 90.1111 153.343 89.6831C153.509 89.2551 153.856 88.9588 154.106 89.0301C154.356 89.1015 154.42 89.5075 154.26 89.941Z" fill="#263238"/>
<path d="M154.419 87.104C154.419 87.104 156.189 87.2412 156.023 89.2988L154.419 87.104Z" fill="#263238" stroke="#263238" stroke-linecap="round" stroke-linejoin="round"/>
<path d="M152.816 86.1439C152.816 86.1439 151.847 85.0465 150.564 86.5554L152.816 86.1439Z" fill="#263238" stroke="#263238" stroke-linecap="round" stroke-linejoin="round"/>
<path d="M120.602 49.6221L103.706 31.4326L86.8174 49.6221H93.4242V77.0079H113.995V49.6221H120.602Z" fill="#263238" stroke="#263238" stroke-linecap="round" stroke-linejoin="round"/>
<path d="M120.602 48.4427L103.706 30.2532L86.8174 48.4427H93.4242V75.8284H113.995V48.4427H120.602Z" fill="white" stroke="#263238" stroke-linecap="round" stroke-linejoin="round"/>
<path d="M119.013 93.42L104.478 106.413L93.1635 103.703C92.6059 103.57 92.0205 103.546 91.4508 103.634C90.8811 103.721 90.3417 103.917 89.8729 104.208L71.1494 115.845V128.8H133.465V101.365L124.549 93.4145C124.19 93.0971 123.759 92.8448 123.283 92.6727C122.808 92.5005 122.296 92.4121 121.78 92.4126C121.263 92.4131 120.752 92.5026 120.277 92.6756C119.802 92.8487 119.372 93.1019 119.013 93.42Z" fill="white" stroke="#263238" stroke-linecap="round" stroke-linejoin="round"/>
<path d="M109.013 88.961C106.965 87.7247 104.512 87.1515 102.055 87.3353C99.5982 87.5191 97.2837 88.4491 95.4914 89.9727C93.6991 91.4962 92.5354 93.5228 92.1914 95.72C91.8473 97.9171 92.3433 100.154 93.5979 102.064" stroke="#263238" stroke-width="0.969642" stroke-linecap="round" stroke-linejoin="round"/>
<path d="M112.877 93.1109C112.666 92.6825 112.421 92.2679 112.145 91.8704" stroke="#263238" stroke-width="0.969642" stroke-linecap="round" stroke-linejoin="round"/>
<path d="M111.95 102.541C112.76 101.456 113.322 100.236 113.601 98.9528C113.88 97.6698 113.872 96.3494 113.577 95.0693" stroke="#263238" stroke-width="0.969642" stroke-linecap="round" stroke-linejoin="round"/>
<path d="M92.148 87.3605C91.4089 88.028 90.7465 88.7609 90.1709 89.548" stroke="#263238" stroke-width="0.969642" stroke-linecap="round" stroke-linejoin="round"/>
<path d="M115.004 105.478C117.192 102.934 118.317 99.7789 118.184 96.5639C118.051 93.349 116.669 90.278 114.278 87.8866C111.887 85.4952 108.639 83.9352 105.1 83.4785C101.562 83.0219 97.9574 83.6977 94.916 85.3881" stroke="#263238" stroke-width="0.969642" stroke-linecap="round" stroke-linejoin="round"/>
<path d="M90.8456 105.478C89.3367 103.721 88.3227 101.66 87.8902 99.4737C87.4576 97.2869 87.6193 95.0383 88.3614 92.9199" stroke="#263238" stroke-width="0.969642" stroke-linecap="round" stroke-linejoin="round"/>
<path d="M86.0625 108.951C87.0119 110.042 88.089 111.038 89.275 111.922" stroke="#263238" stroke-width="0.969642" stroke-linecap="round" stroke-linejoin="round"/>
<path d="M115.057 81.1698C111.233 78.8127 106.662 77.6351 102.031 77.8137C97.4 77.9923 92.958 79.5175 89.3716 82.1604C85.7851 84.8034 83.2474 88.4216 82.1391 92.4725C81.0309 96.5233 81.4118 100.788 83.2248 104.628" stroke="#263238" stroke-width="0.969642" stroke-linecap="round" stroke-linejoin="round"/>
<path d="M122.922 90.107C122.346 88.7711 121.606 87.4972 120.717 86.309" stroke="#263238" stroke-width="0.969642" stroke-linecap="round" stroke-linejoin="round"/>
<path d="M117.747 111.004C119.841 109.206 121.507 107.044 122.644 104.649C123.781 102.254 124.366 99.6763 124.362 97.0719" stroke="#263238" stroke-width="0.969642" stroke-linecap="round" stroke-linejoin="round"/>
<path d="M73 97.0719C73 103.47 75.5173 109.662 80.1055 114.549C84.6936 119.436 91.0564 122.703 98.0657 123.771" stroke="#263238" stroke-width="0.969642" stroke-linecap="round" stroke-linejoin="round"/>
<path d="M127.108 113.183C130.773 108.72 132.826 103.351 132.99 97.8034C133.153 92.2556 131.419 86.7965 128.022 82.1647C124.625 77.533 119.73 73.9521 113.997 71.9067C108.265 69.8613 101.973 69.45 95.9727 70.7286" stroke="#263238" stroke-width="0.969642" stroke-linecap="round" stroke-linejoin="round"/>
<path d="M73 97.0719C73.0003 91.0023 75.2659 85.1087 79.4333 80.3367C83.6007 75.5647 89.4284 72.191 95.9813 70.7567" stroke="#263238" stroke-width="0.969642" stroke-linecap="round" stroke-linejoin="round"/>
<path d="M120.717 118.903C121.481 118.398 122.216 117.862 122.922 117.295" stroke="#263238" stroke-width="0.969642" stroke-linecap="round" stroke-linejoin="round"/>
<path d="M107.942 123.771C111.364 123.256 114.659 122.208 117.68 120.675" stroke="#263238" stroke-width="0.969642" stroke-linecap="round" stroke-linejoin="round"/>
<path d="M102.938 121.346C99.8914 121.343 96.9704 120.252 94.8161 118.313C92.6617 116.374 91.4498 113.746 91.4463 111.004V107.521C91.4463 107.372 91.5122 107.229 91.6295 107.123C91.7468 107.017 91.9059 106.958 92.0718 106.958H93.6356C93.8015 106.958 93.9606 107.017 94.0779 107.123C94.1953 107.229 94.2612 107.372 94.2612 107.521C94.2612 107.67 94.1953 107.814 94.0779 107.919C93.9606 108.025 93.8015 108.084 93.6356 108.084H92.704V111.004C92.704 113.448 93.783 115.792 95.7035 117.521C97.624 119.249 100.229 120.22 102.945 120.22C105.661 120.22 108.266 119.249 110.186 117.521C112.107 115.792 113.186 113.448 113.186 111.004V108.084H112.247C112.081 108.084 111.922 108.025 111.805 107.919C111.688 107.814 111.622 107.67 111.622 107.521C111.622 107.372 111.688 107.229 111.805 107.123C111.922 107.017 112.081 106.958 112.247 106.958H113.811C113.977 106.958 114.136 107.017 114.253 107.123C114.371 107.229 114.437 107.372 114.437 107.521V111.004C114.433 113.747 113.22 116.376 111.064 118.316C108.909 120.255 105.986 121.345 102.938 121.346Z" fill="#263238"/>
<path d="M115.055 130V128.874C115.055 128.726 115.023 128.58 114.96 128.443C114.898 128.306 114.805 128.182 114.689 128.077C114.573 127.973 114.435 127.89 114.283 127.833C114.131 127.777 113.968 127.748 113.804 127.748H92.0714C91.907 127.748 91.7442 127.777 91.5923 127.833C91.4403 127.89 91.3023 127.973 91.1861 128.077C91.0699 128.182 90.9777 128.306 90.9149 128.443C90.8522 128.58 90.82 128.726 90.8203 128.874V130H115.055Z" fill="#263238"/>
<path d="M104.158 129.119C104.179 129.039 104.19 128.957 104.19 128.874V120.783H101.688V128.874C101.688 128.957 101.698 129.039 101.719 129.119H104.158Z" fill="#263238"/>
<path d="M110.677 97.0719C110.694 96.1472 110.507 95.2286 110.126 94.3697C109.745 93.5108 109.178 92.7288 108.457 92.0693C107.737 91.4098 106.878 90.8859 105.93 90.5284C104.982 90.1708 103.965 89.9867 102.937 89.9867C101.91 89.9867 100.892 90.1708 99.9445 90.5284C98.9968 90.8859 98.1377 91.4098 97.4172 92.0693C96.6968 92.7288 96.1295 93.5108 95.7484 94.3697C95.3672 95.2286 95.1799 96.1472 95.1974 97.0719V111.004C95.2319 112.831 96.0625 114.572 97.5102 115.853C98.958 117.134 100.907 117.852 102.937 117.852C104.967 117.852 106.916 117.134 108.364 115.853C109.812 114.572 110.642 112.831 110.677 111.004V97.0719Z" stroke="#263238" stroke-width="0.969642" stroke-linecap="round" stroke-linejoin="round"/>
<path d="M110.677 97.0719C110.694 96.1472 110.507 95.2286 110.126 94.3697C109.745 93.5108 109.178 92.7288 108.457 92.0693C107.737 91.4098 106.878 90.8859 105.93 90.5284C104.982 90.1708 103.965 89.9867 102.937 89.9867C101.91 89.9867 100.892 90.1708 99.9445 90.5284C98.9968 90.8859 98.1377 91.4098 97.4172 92.0693C96.6968 92.7288 96.1295 93.5108 95.7484 94.3697C95.3672 95.2286 95.1799 96.1472 95.1974 97.0719V111.004C95.2319 112.831 96.0625 114.572 97.5102 115.853C98.958 117.134 100.907 117.852 102.937 117.852C104.967 117.852 106.916 117.134 108.364 115.853C109.812 114.572 110.642 112.831 110.677 111.004V97.0719Z" fill="#006CFF"/>
<path d="M99.7323 97.8058H95.1973V99.4947H99.7323C99.9812 99.4947 100.22 99.4057 100.396 99.2474C100.572 99.089 100.671 98.8742 100.671 98.6502C100.671 98.4263 100.572 98.2115 100.396 98.0531C100.22 97.8948 99.9812 97.8058 99.7323 97.8058Z" fill="white"/>
<path d="M110.677 97.8059H106.144C105.895 97.8059 105.657 97.8949 105.481 98.0532C105.305 98.2116 105.206 98.4264 105.206 98.6504C105.206 98.8743 105.305 99.0891 105.481 99.2475C105.657 99.4059 105.895 99.4948 106.144 99.4948H110.677V97.8059Z" fill="white"/>
<path d="M102.938 97.8059C102.753 97.8059 102.571 97.8554 102.417 97.9482C102.263 98.041 102.142 98.1729 102.071 98.3272C102 98.4815 101.982 98.6513 102.018 98.8151C102.054 98.9789 102.144 99.1294 102.275 99.2475C102.406 99.3656 102.573 99.446 102.755 99.4786C102.937 99.5112 103.126 99.4945 103.297 99.4306C103.469 99.3666 103.615 99.2584 103.718 99.1195C103.822 98.9807 103.877 98.8174 103.877 98.6504C103.877 98.4264 103.778 98.2116 103.602 98.0532C103.426 97.8949 103.187 97.8059 102.938 97.8059Z" fill="white"/>
<path d="M102.938 101.22C102.753 101.22 102.571 101.269 102.417 101.362C102.263 101.455 102.142 101.587 102.071 101.741C102 101.896 101.982 102.065 102.018 102.229C102.054 102.393 102.144 102.543 102.275 102.662C102.406 102.78 102.573 102.86 102.755 102.893C102.937 102.925 103.126 102.909 103.297 102.845C103.469 102.781 103.615 102.672 103.718 102.534C103.822 102.395 103.877 102.231 103.877 102.064C103.877 101.84 103.778 101.626 103.602 101.467C103.426 101.309 103.187 101.22 102.938 101.22Z" fill="white"/>
<path d="M102.938 104.628C102.753 104.628 102.571 104.677 102.417 104.77C102.263 104.863 102.142 104.995 102.071 105.149C102 105.304 101.982 105.473 102.018 105.637C102.054 105.801 102.144 105.951 102.275 106.07C102.406 106.188 102.573 106.268 102.755 106.301C102.937 106.333 103.126 106.316 103.297 106.253C103.469 106.189 103.615 106.08 103.718 105.942C103.822 105.803 103.877 105.639 103.877 105.472C103.877 105.248 103.778 105.034 103.602 104.875C103.426 104.717 103.187 104.628 102.938 104.628Z" fill="white"/>
<path d="M99.7323 101.22H95.1973V102.909H99.7323C99.9812 102.909 100.22 102.82 100.396 102.662C100.572 102.503 100.671 102.288 100.671 102.064C100.671 101.84 100.572 101.626 100.396 101.467C100.22 101.309 99.9812 101.22 99.7323 101.22Z" fill="white"/>
<path d="M110.677 101.22H106.144C105.895 101.22 105.657 101.309 105.481 101.467C105.305 101.626 105.206 101.84 105.206 102.064C105.206 102.288 105.305 102.503 105.481 102.662C105.657 102.82 105.895 102.909 106.144 102.909H110.677V101.22Z" fill="white"/>
<path d="M99.7323 104.628H95.1973V106.317H99.7323C99.9812 106.317 100.22 106.228 100.396 106.07C100.572 105.911 100.671 105.696 100.671 105.472C100.671 105.248 100.572 105.034 100.396 104.875C100.22 104.717 99.9812 104.628 99.7323 104.628Z" fill="white"/>
<path d="M110.677 104.628H106.144C105.895 104.628 105.657 104.717 105.481 104.875C105.305 105.034 105.206 105.248 105.206 105.472C105.206 105.696 105.305 105.911 105.481 106.07C105.657 106.228 105.895 106.317 106.144 106.317H110.677V104.628Z" fill="white"/>
<path d="M110.677 97.0719C110.694 96.1472 110.507 95.2286 110.126 94.3697C109.745 93.5108 109.178 92.7288 108.457 92.0693C107.737 91.4098 106.878 90.8859 105.93 90.5284C104.982 90.1708 103.965 89.9867 102.937 89.9867C101.91 89.9867 100.892 90.1708 99.9445 90.5284C98.9968 90.8859 98.1377 91.4098 97.4172 92.0693C96.6968 92.7288 96.1295 93.5108 95.7484 94.3697C95.3672 95.2286 95.1799 96.1472 95.1974 97.0719V111.004C95.2319 112.831 96.0625 114.572 97.5102 115.853C98.958 117.134 100.907 117.852 102.937 117.852C104.967 117.852 106.916 117.134 108.364 115.853C109.812 114.572 110.642 112.831 110.677 111.004V97.0719Z" stroke="#263238" stroke-width="0.969642" stroke-miterlimit="10"/>
<path d="M95.1973 111.004C95.2318 112.83 96.0624 114.572 97.5101 115.853C98.9578 117.134 100.907 117.852 102.937 117.852C104.967 117.852 106.916 117.134 108.364 115.853C109.812 114.572 110.642 112.83 110.677 111.004H95.1973Z" fill="#263238" stroke="#263238" stroke-width="0.969642" stroke-miterlimit="10"/>
<path d="M101.528 92.3665C103.178 88.9296 101.258 84.9996 97.2402 83.5886C93.2224 82.1776 88.6282 83.82 86.9788 87.2569C85.3293 90.6938 87.2492 94.6238 91.267 96.0348C95.2848 97.4458 99.879 95.8034 101.528 92.3665Z" fill="white" stroke="#263238" stroke-linecap="round" stroke-linejoin="round"/>
<path d="M156.241 108.905L139.069 124.005L112.899 130.172C112.899 130.172 110.564 127.851 108.883 127.835C107.203 127.818 101.789 129.481 101.789 129.481C101.789 129.481 101.103 130.919 102.431 130.929C103.796 130.847 105.15 130.664 106.478 130.381L99.0566 131.478C99.1461 131.962 99.4331 132.402 99.8664 132.722C100.3 133.041 100.851 133.219 101.424 133.223H104.765L110.481 133.843L115.888 132.444C115.888 132.444 141.507 130.057 142.86 129.777C144.214 129.497 165.952 113.536 165.952 113.536C165.952 113.536 168.409 111.687 167.472 109.541C166.536 107.396 161.744 105.876 161.744 105.876" fill="white"/>
<path d="M156.241 108.905L139.069 124.005L112.899 130.172C112.899 130.172 110.564 127.851 108.883 127.835C107.203 127.818 101.789 129.481 101.789 129.481C101.789 129.481 101.103 130.919 102.431 130.929C103.796 130.847 105.15 130.664 106.478 130.381L99.0566 131.478C99.1461 131.962 99.4331 132.402 99.8664 132.722C100.3 133.041 100.851 133.219 101.424 133.223H104.765L110.481 133.843L115.888 132.444C115.888 132.444 141.507 130.057 142.86 129.777C144.214 129.497 165.952 113.536 165.952 113.536C165.952 113.536 168.409 111.686 167.472 109.541C166.536 107.396 161.744 105.876 161.744 105.876" stroke="#263238" stroke-linecap="round" stroke-linejoin="round"/>
<path d="M153.142 110.479L140.051 121.711L149.769 127.708L166.651 114.106C167.475 113.446 168.01 112.564 168.168 111.608C168.325 110.652 168.096 109.678 167.517 108.849L167.459 108.772C166.249 107.13 164.536 105.802 162.507 104.931" fill="#0095E8"/>
<path d="M153.142 110.479L140.051 121.711L149.769 127.708L166.651 114.106C167.475 113.446 168.01 112.564 168.168 111.608C168.325 110.652 168.096 109.678 167.517 108.849L167.459 108.772C166.249 107.13 164.536 105.802 162.507 104.931" stroke="#263238" stroke-linecap="round" stroke-linejoin="round"/>
<path d="M149.794 127.708L152.078 125.864L142.309 119.774L140.051 121.711L149.794 127.708Z" fill="#263238" stroke="#263238" stroke-linecap="round" stroke-linejoin="round"/>
<path d="M87.1406 130.402L89.6102 132.685L92.0027 132.91L88.2888 130.188L87.1406 130.402Z" fill="white" stroke="#263238" stroke-linecap="round" stroke-linejoin="round"/>
<path d="M91.7832 130.402L94.2527 132.685L96.6389 132.91L92.925 130.188L91.7832 130.402Z" fill="white" stroke="#263238" stroke-linecap="round" stroke-linejoin="round"/>
<path d="M92.0012 132.91L89.2109 129.848H90.9364L94.3873 132.91L92.9249 133.14L92.0012 132.91Z" fill="white" stroke="#263238" stroke-linecap="round" stroke-linejoin="round"/>
<path d="M86.165 130.644L87.3581 132.57L89.6096 132.685L87.14 130.403L86.165 130.644Z" fill="white" stroke="#263238" stroke-linecap="round" stroke-linejoin="round"/>
</svg>
