<svg width="40" height="48" viewBox="0 0 40 48" fill="none" xmlns="http://www.w3.org/2000/svg">
<path opacity="0.82" d="M31.2388 0.177874L22.1588 8.5583C23.3273 9.64465 23.9946 10.2331 24.6267 10.8603C27.2235 13.3934 28.7935 16.8165 29.0297 20.46C29.2659 24.1034 28.1513 27.705 25.9038 30.5601C21.1403 36.6385 12.8745 37.8866 6.13162 33.5476C0.295421 29.7874 -1.72234 21.5719 1.59803 14.8727C4.7013 8.60033 9.91493 4.8175 16.2396 2.45404C21.0478 0.646686 25.974 -0.449365 31.2388 0.177874Z" fill="#006CFF"/>
<path opacity="0.82" d="M7.66504 47.9987L16.9238 39.4436C15.7074 38.2894 14.9667 37.6234 14.2675 36.9153C11.7914 34.3987 10.2964 31.061 10.0576 27.5167C9.81883 23.9723 10.8524 20.4599 12.9681 17.6261C17.1696 11.9615 25.1385 10.2059 31.4249 13.5587C37.9635 17.0474 40.6996 24.0472 38.1295 31.2023C37.3824 33.2715 36.3544 35.3828 34.9368 37.0446C27.8842 45.4089 18.5201 48.0116 7.66504 47.9987Z" fill="#8ABBFF"/>
</svg>
