<svg width="297" height="221" viewBox="0 0 297 221" fill="none" xmlns="http://www.w3.org/2000/svg">
<path d="M17.9569 101.059L19.1903 118.979C19.2119 119.286 19.3805 119.575 19.6618 119.786C19.943 119.998 20.3158 120.118 20.7043 120.12L61.4773 120.357C61.6784 120.358 61.8778 120.328 62.0642 120.269C62.2505 120.209 62.4201 120.121 62.5632 120.009C62.7063 119.897 62.8201 119.764 62.898 119.618C62.976 119.471 63.0165 119.314 63.0174 119.155L63.1479 105.219C63.1496 105.059 63.1114 104.901 63.0354 104.754C62.9594 104.606 62.8472 104.471 62.7053 104.358C62.5633 104.245 62.3944 104.155 62.2082 104.094C62.0221 104.032 61.8225 104.001 61.6208 104.001H36.5423C36.3419 104.001 36.1435 103.97 35.9586 103.909C35.7737 103.847 35.6061 103.758 35.4656 103.645L31.139 100.228C30.8559 100.002 30.471 99.8739 30.0688 99.8718L19.497 99.8099C19.2909 99.8084 19.0866 99.8399 18.8963 99.9025C18.706 99.9652 18.5337 100.058 18.3898 100.174C18.2459 100.291 18.1334 100.43 18.059 100.582C17.9846 100.734 17.9499 100.896 17.9569 101.059Z" fill="#EBEBEB"/>
<path d="M63.183 101.884L18.6328 101.625L18.4377 122.678L62.9879 122.936L63.183 101.884Z" fill="#F5F5F5"/>
<path d="M15.0688 103.495L18.2664 125.472C18.295 125.66 18.4095 125.834 18.5886 125.96C18.7676 126.087 18.9988 126.157 19.2387 126.158L62.6546 126.411C62.9028 126.414 63.1431 126.342 63.3263 126.21C63.5095 126.078 63.6217 125.895 63.64 125.699L66.0285 103.758C66.0402 103.651 66.0238 103.543 65.9803 103.442C65.9369 103.34 65.8674 103.246 65.7761 103.167C65.6848 103.087 65.5737 103.024 65.4498 102.98C65.3259 102.936 65.1919 102.913 65.0561 102.912L16.0476 102.628C15.9089 102.628 15.7717 102.651 15.6451 102.696C15.5185 102.741 15.4053 102.806 15.3129 102.888C15.2204 102.97 15.1509 103.066 15.1089 103.171C15.0668 103.275 15.0531 103.386 15.0688 103.495Z" fill="#EBEBEB"/>
<path d="M203.073 104.156L204.137 119.588C204.154 119.853 204.298 120.102 204.541 120.285C204.784 120.467 205.107 120.569 205.442 120.569L240.551 120.775C240.897 120.775 241.229 120.666 241.473 120.473C241.718 120.279 241.856 120.017 241.856 119.743L241.967 107.732C241.967 107.459 241.829 107.196 241.584 107.003C241.34 106.809 241.008 106.7 240.662 106.7H219.074C218.901 106.701 218.729 106.674 218.569 106.622C218.409 106.57 218.263 106.493 218.141 106.396L214.428 103.412C214.184 103.219 213.853 103.109 213.508 103.108L204.404 103.056C204.223 103.053 204.044 103.08 203.876 103.134C203.709 103.189 203.558 103.271 203.433 103.374C203.308 103.478 203.211 103.601 203.149 103.735C203.087 103.87 203.061 104.013 203.073 104.156Z" fill="#EBEBEB"/>
<path d="M242.012 104.866L203.654 104.644L203.486 122.775L241.844 122.998L242.012 104.866Z" fill="#F5F5F5"/>
<path d="M200.588 106.251L203.335 125.173C203.358 125.335 203.455 125.486 203.609 125.596C203.763 125.705 203.963 125.766 204.17 125.766L241.556 125.983C241.77 125.983 241.975 125.921 242.132 125.807C242.289 125.693 242.387 125.537 242.405 125.369L244.46 106.478C244.471 106.386 244.458 106.293 244.421 106.206C244.384 106.118 244.324 106.037 244.246 105.969C244.167 105.9 244.071 105.845 243.964 105.808C243.858 105.77 243.742 105.751 243.625 105.75L201.43 105.503C201.31 105.503 201.192 105.523 201.083 105.562C200.974 105.6 200.876 105.657 200.797 105.728C200.717 105.798 200.657 105.882 200.621 105.972C200.585 106.062 200.574 106.157 200.588 106.251Z" fill="#EBEBEB"/>
<path d="M273.176 3.02979H210.783V84.7129H273.176V3.02979Z" fill="#E0E0E0"/>
<path d="M271.1 3.02979H208.707V84.7129H271.1V3.02979Z" fill="#EBEBEB"/>
<path d="M268.445 4.68652H211.364V83.0561H268.445V4.68652Z" fill="white"/>
<path d="M257.322 14.8696H222.227V72.8726H257.322V14.8696Z" fill="#EBEBEB"/>
<path d="M222.262 52.3514C222.184 46.932 228.344 41.6416 235.125 40.8829C238.388 40.5268 241.801 41.0326 244.822 40.0519C250.219 38.3022 251.935 32.6351 257.365 30.9525L257.613 72.8728H222.262V52.3514Z" fill="#E0E0E0"/>
<path d="M269.565 107.681C269.565 107.681 264.397 107.386 264.873 116.558C265.349 125.73 266.531 130.607 266.531 130.607C266.531 130.607 266.38 132.641 264.39 132.243C262.4 131.846 258.654 129.864 256.807 131.345C254.96 132.827 255.567 135.232 258.112 138.003C260.657 140.775 265.943 147.005 266.426 147.573C266.909 148.14 267.079 149.167 265.669 149.064C264.26 148.961 254.732 146.411 253.472 150.06C252.213 153.709 260.905 160.507 261.839 161.26C262.772 162.014 262.817 162.499 262.439 162.958C262.06 163.418 258.961 162.318 256.213 161.678C253.466 161.038 250.144 160.682 249.635 162.835C249.126 164.987 252.963 171.284 267.301 177.906L274.198 180.631L280.724 177.338C294.154 169.596 297.162 163.046 296.386 160.946C295.609 158.845 292.346 159.464 289.69 160.316C287.034 161.167 284.098 162.504 283.661 162.076C283.223 161.647 283.217 161.173 284.046 160.342C284.874 159.511 292.666 152.084 290.95 148.538C289.234 144.992 280.085 148.3 278.688 148.512C277.292 148.724 277.383 147.671 277.748 147.082C278.114 146.494 282.63 139.856 284.809 136.904C286.989 133.952 287.374 131.552 285.266 130.194C283.158 128.837 279.765 131.134 277.833 131.686C275.902 132.238 275.497 130.23 275.497 130.23C275.497 130.23 276.058 125.281 275.373 116.119C274.688 106.958 269.454 107.696 269.454 107.696" fill="#EBEBEB"/>
<path d="M269.976 115.892C269.976 115.892 269.976 115.96 269.976 116.083C269.976 116.207 269.976 116.409 270.035 116.646C270.074 117.162 270.139 117.88 270.218 118.814C270.374 120.692 270.576 123.418 270.811 126.783C271.288 133.493 271.842 142.783 272.404 153.08C272.965 163.377 273.5 172.657 273.924 179.403C274.14 182.763 274.316 185.483 274.433 187.372C274.492 188.306 274.538 189.034 274.57 189.539C274.57 189.782 274.57 189.968 274.603 190.102V190.298C274.603 190.298 274.603 190.231 274.57 190.102C274.538 189.973 274.57 189.782 274.518 189.539C274.472 189.023 274.414 188.311 274.335 187.377C274.172 185.498 273.97 182.773 273.735 179.408C273.265 172.698 272.71 163.408 272.143 153.085C271.575 142.762 271.053 133.513 270.629 126.762C270.413 123.402 270.237 120.682 270.113 118.793C270.054 117.859 270.009 117.131 269.976 116.625C269.976 116.383 269.976 116.197 269.976 116.063C269.973 116.006 269.973 115.949 269.976 115.892Z" fill="#E0E0E0"/>
<path d="M261.903 134.277C262.06 134.359 262.204 134.454 262.334 134.561C262.595 134.752 262.987 135.036 263.424 135.392C264.337 136.104 265.558 137.116 266.882 138.251L270.256 141.173L271.287 142.05C271.423 142.153 271.543 142.267 271.646 142.391C271.489 142.312 271.344 142.218 271.216 142.112C270.948 141.921 270.563 141.632 270.126 141.276C269.219 140.553 268.011 139.531 266.693 138.396L263.293 135.495L262.262 134.618C262.125 134.517 262.004 134.402 261.903 134.277Z" fill="#E0E0E0"/>
<path d="M272.333 142.21C272.281 142.169 274.8 140.078 277.965 137.565C281.13 135.051 283.733 133.002 283.786 133.044C283.838 133.085 281.312 135.175 278.154 137.689C274.995 140.202 272.385 142.251 272.333 142.21Z" fill="#E0E0E0"/>
<path d="M272.301 158.019C272.448 157.923 272.61 157.841 272.784 157.777L274.135 157.178C275.27 156.662 276.836 155.97 278.533 155.144C280.23 154.319 281.737 153.539 282.827 152.961L284.132 152.285C284.283 152.193 284.448 152.115 284.621 152.053C284.495 152.165 284.35 152.264 284.191 152.347C283.904 152.528 283.479 152.78 282.951 153.085C281.894 153.689 280.399 154.499 278.696 155.32C276.993 156.141 275.401 156.832 274.239 157.307C273.658 157.544 273.182 157.73 272.849 157.849C272.674 157.92 272.49 157.977 272.301 158.019Z" fill="#E0E0E0"/>
<path d="M260.874 152.486C261.043 152.525 261.204 152.584 261.35 152.662C261.651 152.791 262.081 152.976 262.603 153.214C263.654 153.684 265.096 154.349 266.675 155.093C268.255 155.836 269.69 156.522 270.715 157.028L271.922 157.632C272.074 157.702 272.216 157.785 272.346 157.88C272.178 157.839 272.017 157.78 271.87 157.704C271.57 157.58 271.146 157.389 270.617 157.152C269.566 156.682 268.124 156.016 266.545 155.273C264.966 154.53 263.537 153.844 262.505 153.338L261.298 152.734C261.146 152.663 261.004 152.58 260.874 152.486Z" fill="#E0E0E0"/>
<path d="M258.61 166.437C258.821 166.501 259.024 166.579 259.217 166.67L260.823 167.372C262.173 167.97 264.027 168.812 266.043 169.751C268.06 170.69 269.926 171.552 271.264 172.182L272.823 172.941C273.021 173.025 273.207 173.125 273.378 173.24C273.165 173.182 272.961 173.104 272.771 173.008L271.205 172.311C269.861 171.712 268.001 170.871 265.984 169.932C263.968 168.992 262.069 168.12 260.764 167.501L259.198 166.742C258.989 166.657 258.792 166.555 258.61 166.437Z" fill="#E0E0E0"/>
<path d="M273.096 173.003C273.28 172.878 273.481 172.771 273.696 172.683L275.373 171.877C276.789 171.196 278.74 170.246 280.855 169.152C282.969 168.058 284.862 167.041 286.219 166.288L287.831 165.405C288.019 165.287 288.223 165.185 288.438 165.101C288.27 165.237 288.086 165.362 287.89 165.472C287.531 165.699 286.996 166.019 286.33 166.412C284.992 167.191 283.119 168.239 280.998 169.328C278.878 170.417 276.907 171.351 275.465 172.001C274.747 172.326 274.159 172.585 273.748 172.755C273.54 172.852 273.322 172.934 273.096 173.003Z" fill="#E0E0E0"/>
<path d="M283.464 182.417H264.383L270.608 219.702H277.232L283.464 182.417Z" fill="#E0E0E0"/>
<path d="M265.369 187C265.393 187.048 265.429 187.092 265.474 187.129C265.595 187.246 265.752 187.336 265.93 187.392C266.26 187.486 266.613 187.519 266.961 187.488C267.309 187.458 267.644 187.365 267.94 187.217C268.71 186.881 269.382 186.221 270.414 185.926C271.559 185.636 272.795 185.656 273.924 185.983C275.073 186.295 276.168 186.716 277.187 187.237C278.04 187.658 278.927 188.034 279.843 188.362C280.467 188.582 281.126 188.733 281.801 188.812C281.985 188.832 282.17 188.842 282.356 188.842C282.48 188.842 282.551 188.842 282.551 188.842C281.648 188.733 280.77 188.523 279.941 188.218C279.044 187.871 278.172 187.483 277.331 187.057C276.298 186.514 275.182 186.079 274.009 185.761C272.816 185.421 271.512 185.41 270.309 185.73C269.799 185.895 269.328 186.125 268.913 186.412C268.568 186.653 268.204 186.877 267.823 187.082C267.555 187.229 267.25 187.328 266.929 187.372C266.608 187.417 266.278 187.406 265.963 187.341C265.741 187.256 265.54 187.141 265.369 187Z" fill="#F5F5F5"/>
<path d="M266.067 193.865C266.067 193.865 266.217 193.71 266.517 193.467C266.947 193.128 267.466 192.867 268.037 192.703C268.886 192.456 269.79 192.347 270.693 192.383C271.809 192.451 272.918 192.572 274.015 192.745C275.135 192.915 276.281 192.952 277.415 192.853C278.341 192.761 279.243 192.557 280.09 192.249C280.658 192.044 281.196 191.791 281.696 191.495C281.89 191.396 282.062 191.272 282.205 191.129C281.505 191.497 280.767 191.818 279.999 192.089C279.165 192.365 278.287 192.548 277.389 192.631C276.279 192.711 275.161 192.668 274.067 192.502C272.958 192.327 271.835 192.211 270.706 192.156C269.769 192.133 268.836 192.263 267.966 192.538C267.376 192.726 266.85 193.021 266.432 193.4C266.324 193.505 266.228 193.617 266.145 193.736C266.08 193.818 266.06 193.859 266.067 193.865Z" fill="#F5F5F5"/>
<path d="M281.3 197.54C281.147 197.44 280.969 197.366 280.778 197.323C280.269 197.172 279.735 197.081 279.192 197.054C278.394 197.012 277.591 197.049 276.804 197.163C275.916 197.276 274.964 197.467 273.959 197.638C273.028 197.811 272.076 197.895 271.12 197.89C270.343 197.874 269.577 197.743 268.862 197.503C268.209 197.267 267.626 196.924 267.152 196.497C267.223 196.645 267.332 196.781 267.472 196.894C267.838 197.217 268.281 197.479 268.777 197.663C269.509 197.938 270.304 198.093 271.113 198.118C272.095 198.137 273.075 198.057 274.03 197.88C275.042 197.71 275.988 197.509 276.856 197.364C277.624 197.249 278.404 197.195 279.186 197.204C279.906 197.243 280.617 197.356 281.3 197.54Z" fill="#F5F5F5"/>
<path d="M267.751 202.701C268.336 202.505 268.982 202.454 269.604 202.556C270.284 202.684 270.941 202.877 271.562 203.129C272.354 203.428 273.207 203.613 274.081 203.676C275.677 203.788 277.277 203.495 278.649 202.84C279.059 202.643 279.44 202.411 279.784 202.148C279.916 202.055 280.031 201.947 280.124 201.828C279.607 202.142 279.069 202.433 278.512 202.701C277.161 203.285 275.622 203.542 274.088 203.439C272.28 203.356 270.896 202.505 269.643 202.406C269.16 202.34 268.663 202.373 268.201 202.505C268.033 202.539 267.878 202.607 267.751 202.701Z" fill="#F5F5F5"/>
<path d="M268.815 209.87C269.362 209.881 269.906 209.796 270.407 209.622C271.366 209.364 272.554 208.786 273.937 208.347C274.584 208.142 275.271 208.029 275.967 208.012C276.531 208.012 277.089 208.113 277.598 208.306C278.059 208.505 278.462 208.78 278.779 209.111C278.754 208.995 278.691 208.887 278.597 208.796C278.366 208.531 278.06 208.312 277.703 208.156C277.173 207.922 276.58 207.794 275.973 207.785C275.237 207.786 274.508 207.9 273.826 208.12C272.391 208.574 271.216 209.152 270.328 209.457C269.441 209.761 268.808 209.829 268.815 209.87Z" fill="#F5F5F5"/>
<path d="M269.754 213.199C270.135 213.348 270.542 213.452 270.961 213.508C272.951 213.887 274.998 214.046 277.043 213.983C277.468 213.99 277.892 213.95 278.303 213.865C278.303 213.787 276.345 213.865 274.009 213.668C271.672 213.472 269.773 213.126 269.754 213.199Z" fill="#F5F5F5"/>
<path d="M70.5503 11.9692H8.18359V83.4639H70.5503V11.9692Z" fill="#E0E0E0"/>
<path d="M59.6708 19.7109H12.8027V75.7165H59.6708V19.7109Z" fill="white"/>
<path d="M67.5994 11.9692C67.2809 12.4207 66.9095 12.8475 66.49 13.2441C65.7657 14.0131 64.7346 15.0557 63.5665 16.1809C62.3984 17.3061 61.2955 18.3073 60.4798 19.0144C60.068 19.4175 59.6092 19.7891 59.1094 20.1241C59.4595 19.6866 59.8569 19.2739 60.2971 18.8906L63.2989 16.0106C64.4409 14.9215 65.4655 13.946 66.3008 13.1305C66.6911 12.715 67.1256 12.3264 67.5994 11.9692Z" fill="#E0E0E0"/>
<path d="M59.9131 75.5411C62.2417 78.4708 64.9826 81.1823 68.0833 83.6238L59.9131 75.5411Z" fill="white"/>
<path d="M68.0833 83.6238C67.5656 83.3193 67.0889 82.9734 66.6607 82.5916C64.4882 80.8373 62.5446 78.9145 60.8593 76.8522C60.485 76.4398 60.1678 75.9969 59.9131 75.5309C60.3389 75.9184 60.7272 76.3308 61.0747 76.7644C61.7272 77.5283 62.7257 78.5709 63.8546 79.6858C64.9836 80.8006 66.0604 81.7503 66.85 82.4729C67.2969 82.8316 67.7092 83.2163 68.0833 83.6238Z" fill="#E0E0E0"/>
<path d="M5.04395 83.407L13.2142 75.4327L5.04395 83.407Z" fill="white"/>
<path d="M13.2138 75.4326C12.0009 76.844 10.6939 78.2034 9.29834 79.5049C7.98087 80.8648 6.57143 82.1673 5.07617 83.4069C6.29428 82.0004 7.60335 80.6446 8.99816 79.3449C10.3186 77.9851 11.7257 76.6794 13.2138 75.4326Z" fill="#E0E0E0"/>
<path d="M5.05566 11.9692C6.46153 13.1602 7.78389 14.4111 9.0168 15.7164C10.3438 16.9652 11.5792 18.2732 12.7169 19.6338C11.3094 18.435 9.98695 17.1755 8.75577 15.8609C7.43314 14.6183 6.19791 13.3191 5.05566 11.9692Z" fill="#E0E0E0"/>
<path d="M45.0714 31.0815H29.377V66.3231H45.0714V31.0815Z" fill="#E0E0E0"/>
<path d="M148.709 0.0102539H99.6943V40.4234H148.709V0.0102539Z" fill="#E0E0E0"/>
<path d="M145.388 0.0102539H96.373V40.4234H145.388V0.0102539Z" fill="#FAFAFA"/>
<path d="M145.406 40.439H96.3584V0H145.406V40.439ZM96.391 40.4132H145.373V0.0258062H96.391V40.4132Z" fill="#E0E0E0"/>
<path d="M138.802 5.44507H102.963V34.9937H138.802V5.44507Z" fill="white"/>
<path d="M102.964 35.1899C102.709 35.4852 102.414 35.757 102.083 36.0003C101.508 36.4803 100.706 37.1254 99.7986 37.8274C98.8915 38.5293 98.0693 39.159 97.4624 39.6029C97.1525 39.8622 96.8041 40.091 96.4248 40.2842C96.6761 39.987 96.9719 39.7149 97.3058 39.4738C97.8735 38.999 98.6827 38.3487 99.5898 37.6467C100.497 36.9448 101.319 36.3151 101.933 35.8661C102.242 35.6095 102.588 35.3826 102.964 35.1899Z" fill="#E0E0E0"/>
<path d="M138.804 35.1178C139.178 35.3196 139.524 35.5533 139.835 35.8146C140.435 36.2688 141.251 36.9036 142.145 37.6159C143.039 38.3281 143.822 38.9888 144.383 39.4688C144.711 39.7139 145 39.9894 145.245 40.2894C144.869 40.0907 144.525 39.8567 144.22 39.5927C143.62 39.1385 142.797 38.5036 141.91 37.7862C141.022 37.0688 140.226 36.4185 139.665 35.9333C139.338 35.6897 139.049 35.4159 138.804 35.1178Z" fill="#E0E0E0"/>
<path d="M138.731 5.53818C138.987 5.24219 139.285 4.97032 139.619 4.72785C140.187 4.24785 140.989 3.60268 141.896 2.90074C142.804 2.1988 143.626 1.56912 144.233 1.12525C144.537 0.86109 144.881 0.627122 145.257 0.428467C145.006 0.725653 144.71 0.997734 144.376 1.23879C143.808 1.7188 142.999 2.36397 142.092 3.07107C141.185 3.77817 140.363 4.40269 139.749 4.84656C139.446 5.10791 139.104 5.34005 138.731 5.53818Z" fill="#E0E0E0"/>
<path d="M102.839 5.59474C102.461 5.39701 102.114 5.16297 101.808 4.89796C101.208 4.44377 100.392 3.80893 99.5047 3.09666C98.6172 2.3844 97.821 1.72891 97.2598 1.24375C96.9319 0.998678 96.6427 0.723125 96.3984 0.423096C96.7742 0.621872 97.1182 0.855826 97.423 1.11987C98.0233 1.57407 98.8456 2.20891 99.7331 2.92634C100.621 3.64376 101.417 4.29925 101.984 4.77925C102.309 5.02365 102.596 5.29736 102.839 5.59474Z" fill="#E0E0E0"/>
<path d="M138.731 34.9934C138.731 34.9934 138.731 34.9417 138.731 34.8488C138.731 34.7559 138.731 34.6114 138.731 34.4359C138.731 34.0643 138.731 33.5327 138.731 32.8411C138.731 31.4424 138.731 29.4036 138.731 26.8178C138.731 21.6565 138.685 14.2706 138.659 5.44477L138.731 5.53767H102.995L103.152 5.4138C103.152 16.2526 103.152 26.4049 103.152 34.9624L103.015 34.854L128.896 34.9108L136.12 34.9572H138.039H138.535H138.078H136.179H128.942L102.976 35.014H102.839V34.9056C102.839 26.3481 102.839 16.201 102.839 5.35703V5.23315H103.002H138.737H138.874V5.34154C138.874 14.1984 138.822 21.5946 138.802 26.7868C138.802 29.3675 138.802 31.3907 138.77 32.7843C138.77 33.4656 138.77 33.9921 138.77 34.3585C138.77 34.5288 138.77 34.6579 138.77 34.7559C138.766 34.8359 138.753 34.9154 138.731 34.9934Z" fill="#E0E0E0"/>
<path d="M126.866 15.4893H114.904V24.95H126.866V15.4893Z" fill="#EBEBEB"/>
<path d="M74.0873 163.423L75.3142 181.245C75.3341 181.551 75.5013 181.84 75.7816 182.052C76.0618 182.264 76.4338 182.384 76.8216 182.386L117.366 182.618C117.566 182.619 117.764 182.59 117.949 182.53C118.134 182.471 118.303 182.384 118.445 182.273C118.588 182.162 118.701 182.031 118.779 181.885C118.857 181.74 118.898 181.584 118.9 181.426L119.03 167.552C119.031 167.393 118.993 167.236 118.917 167.09C118.841 166.943 118.729 166.809 118.588 166.697C118.446 166.584 118.279 166.494 118.094 166.433C117.909 166.372 117.71 166.34 117.51 166.339H92.5683C92.369 166.339 92.1718 166.307 91.9881 166.246C91.8044 166.185 91.6378 166.095 91.4981 165.983L87.1911 162.582C86.9073 162.36 86.526 162.234 86.1274 162.231L75.6144 162.169C75.4085 162.168 75.2046 162.2 75.015 162.264C74.8254 162.327 74.654 162.42 74.5112 162.537C74.3684 162.655 74.2572 162.793 74.1844 162.946C74.1115 163.098 74.0785 163.26 74.0873 163.423Z" fill="#EBEBEB"/>
<path d="M119.056 164.245L74.7539 163.988L74.5598 184.927L118.862 185.184L119.056 164.245Z" fill="#F5F5F5"/>
<path d="M71.2163 165.844L74.3943 187.702C74.4216 187.889 74.535 188.063 74.7131 188.188C74.8912 188.314 75.1215 188.383 75.3602 188.383L118.535 188.636C118.781 188.637 119.019 188.565 119.201 188.434C119.383 188.303 119.497 188.123 119.52 187.929L121.895 166.107C121.906 166 121.889 165.893 121.845 165.792C121.801 165.691 121.732 165.598 121.64 165.519C121.549 165.44 121.438 165.377 121.315 165.333C121.192 165.29 121.058 165.267 120.923 165.266L72.1691 164.982C72.0328 164.984 71.8987 165.009 71.7752 165.054C71.6517 165.1 71.5416 165.165 71.4519 165.246C71.3622 165.327 71.2949 165.422 71.2544 165.525C71.2138 165.628 71.2008 165.737 71.2163 165.844Z" fill="#EBEBEB"/>
<path d="M144.534 173.462L145.76 191.346C145.78 191.652 145.948 191.941 146.228 192.153C146.508 192.365 146.88 192.484 147.268 192.487L187.904 192.724C188.104 192.725 188.303 192.695 188.489 192.636C188.675 192.577 188.844 192.489 188.987 192.378C189.13 192.266 189.244 192.134 189.323 191.988C189.401 191.842 189.442 191.685 189.444 191.527L189.574 177.622C189.575 177.463 189.536 177.305 189.46 177.158C189.384 177.011 189.271 176.877 189.129 176.765C188.988 176.652 188.819 176.563 188.633 176.502C188.448 176.44 188.248 176.409 188.047 176.409H163.054C162.854 176.41 162.656 176.379 162.471 176.319C162.286 176.259 162.118 176.17 161.977 176.058L157.67 172.646C157.385 172.424 157.001 172.298 156.6 172.296L146.067 172.234C145.864 172.232 145.662 172.263 145.474 172.324C145.285 172.386 145.115 172.477 144.972 172.591C144.829 172.706 144.716 172.842 144.641 172.991C144.566 173.141 144.529 173.301 144.534 173.462Z" fill="#EBEBEB"/>
<path d="M189.595 174.29L145.195 174.033L145.001 195.018L189.401 195.276L189.595 174.29Z" fill="#F5F5F5"/>
<path d="M141.648 175.888L144.839 197.792C144.866 197.98 144.98 198.154 145.158 198.281C145.335 198.407 145.566 198.478 145.805 198.479L189.077 198.732C189.324 198.731 189.562 198.658 189.744 198.526C189.926 198.395 190.04 198.214 190.063 198.019L192.445 176.151C192.455 176.044 192.438 175.937 192.395 175.836C192.351 175.735 192.281 175.642 192.19 175.563C192.099 175.484 191.988 175.421 191.864 175.377C191.741 175.334 191.608 175.311 191.472 175.31L142.647 175.026C142.507 175.024 142.368 175.045 142.24 175.089C142.111 175.132 141.996 175.197 141.901 175.279C141.807 175.36 141.736 175.457 141.692 175.562C141.648 175.667 141.633 175.778 141.648 175.888Z" fill="#EBEBEB"/>
<path d="M284.788 220.125C284.788 220.203 221.143 220.26 142.651 220.26C64.1588 220.26 0.5 220.203 0.5 220.125C0.5 220.048 64.1327 219.991 142.651 219.991C221.169 219.991 284.788 220.053 284.788 220.125Z" fill="#263238"/>
<path d="M273.12 56.0415C270.927 53.8479 270.881 49.8479 270.953 48.7795C271.123 46.3485 264.271 32.16 247.291 38.0181C241.202 38.0181 241.104 42.7717 239.949 43.7265C238.794 44.6814 237.508 45.6775 237.202 46.9782C236.667 49.2853 239.434 51.5253 238.729 53.8014C238.468 54.6531 237.743 55.3808 237.234 56.1602C236.686 56.8569 236.256 57.9924 236.49 58.6221C236.785 59.2368 237.173 59.8208 237.646 60.3615C238.124 60.9073 238.343 61.5688 238.265 62.2299C237.998 63.3963 236.308 64.0467 235.825 65.177C235.342 66.3073 236.256 67.4325 237.058 68.408C237.861 69.3835 238.631 70.617 237.985 71.6648C237.557 72.1844 237.026 72.6462 236.412 73.0325C235.586 73.7128 235.031 74.5705 234.818 75.4985C234.604 76.4265 234.741 77.3838 235.211 78.2506L245 76.7022C245.435 73.0239 245.87 69.3422 246.305 65.657C249.164 66.2196 252.289 64.7744 253.647 64.5009L255.311 63.7886C258.952 64.3047 262.881 64.1138 266.072 62.6428C269.263 61.1718 273.994 63.0557 273.374 60.1705C273.028 58.7873 274.236 57.1511 273.12 56.0415Z" fill="#263238"/>
<path d="M261.985 42.617L248.692 39.5202C244.411 39.004 241.344 43.1331 240.894 46.5189C240.398 50.3022 239.987 54.9371 240.411 57.781C241.259 63.51 246.734 64.4081 246.734 64.4081C246.734 64.4081 245.775 72.5165 245.69 74.5449L262.063 67.8972L264.132 44.7176C264.17 44.2187 263.971 43.7266 263.574 43.3379C263.177 42.9492 262.61 42.6921 261.985 42.617Z" fill="#FFD3C1"/>
<path d="M241.722 51.1693C241.709 51.359 241.791 51.5451 241.95 51.6878C242.108 51.8305 242.331 51.9186 242.57 51.9332C242.687 51.9446 242.806 51.9375 242.919 51.9121C243.032 51.8867 243.138 51.8436 243.23 51.7854C243.322 51.7272 243.398 51.655 243.454 51.5731C243.51 51.4912 243.544 51.4013 243.556 51.3086C243.568 51.1189 243.487 50.9328 243.328 50.7901C243.17 50.6474 242.947 50.5593 242.707 50.5448C242.59 50.5326 242.472 50.5392 242.358 50.5643C242.244 50.5894 242.138 50.6324 242.046 50.6907C241.954 50.7491 241.878 50.8215 241.822 50.9038C241.767 50.986 241.732 51.0763 241.722 51.1693Z" fill="#263238"/>
<path d="M241.225 49.5023C241.847 49.5383 242.465 49.6003 243.078 49.6881C243.669 49.8775 244.246 50.0911 244.808 50.3281C244.873 50.3281 244.808 50.1578 244.534 49.9514C244.144 49.6743 243.68 49.4713 243.176 49.3578C242.688 49.2396 242.171 49.2166 241.669 49.2907C241.323 49.3578 241.179 49.4559 241.225 49.5023Z" fill="#263238"/>
<path d="M250.925 51.7629C250.914 51.9531 250.997 52.1392 251.157 52.2818C251.316 52.4243 251.54 52.5122 251.78 52.5267C251.897 52.5375 252.016 52.5296 252.129 52.5036C252.242 52.4777 252.348 52.4341 252.439 52.3755C252.531 52.3168 252.607 52.2443 252.663 52.1622C252.719 52.0801 252.754 51.9899 252.765 51.8971C252.774 51.7072 252.691 51.5218 252.531 51.3795C252.372 51.2372 252.15 51.149 251.91 51.1332C251.793 51.1225 251.674 51.1303 251.561 51.1563C251.448 51.1823 251.342 51.2259 251.25 51.2845C251.159 51.3431 251.083 51.4156 251.027 51.4978C250.971 51.5799 250.936 51.67 250.925 51.7629Z" fill="#263238"/>
<path d="M251.095 50.5347C251.239 50.5863 251.95 50.2095 253.053 50.0857C254.156 49.9618 255.043 50.1528 255.148 50.0857C255.252 50.0186 255.043 49.936 254.658 49.8483C254.105 49.7313 253.527 49.7067 252.962 49.776C252.41 49.8292 251.881 49.981 251.415 50.2199C251.108 50.3747 251.023 50.5089 251.095 50.5347Z" fill="#263238"/>
<path d="M247.66 55.6598C247.145 55.5108 246.608 55.4154 246.061 55.3759C245.807 55.3501 245.572 55.2985 245.539 55.1643C245.527 54.9539 245.6 54.746 245.748 54.5708C246.009 54.0908 246.29 53.5901 246.577 53.0637C247.725 50.9269 248.574 49.1617 248.463 49.1256C248.352 49.0894 247.334 50.7978 246.179 52.9346C245.905 53.4508 245.637 53.9669 245.383 54.4469C245.212 54.6846 245.151 54.9623 245.213 55.2314C245.247 55.3022 245.3 55.3661 245.369 55.4187C245.438 55.4713 245.521 55.5114 245.611 55.5359C245.751 55.5714 245.895 55.5922 246.042 55.5979C246.576 55.6708 247.119 55.6916 247.66 55.6598Z" fill="#263238"/>
<path d="M246.735 64.3771C250.081 64.5755 253.429 64.0037 256.374 62.7306C256.289 62.7306 253.424 66.6893 246.585 65.8842L246.735 64.3771Z" fill="#F4AF9B"/>
<path d="M247.987 57.5643C248.186 57.3823 248.44 57.2433 248.726 57.1602C249.011 57.0771 249.318 57.0528 249.619 57.0895C249.837 57.1124 250.047 57.17 250.237 57.2587C250.426 57.3474 250.591 57.4653 250.722 57.6056C250.848 57.7399 250.918 57.9015 250.924 58.0686C250.93 58.2357 250.871 58.4002 250.754 58.5398C250.588 58.6736 250.376 58.766 250.144 58.8054C249.912 58.8449 249.67 58.8297 249.449 58.7617C248.987 58.614 248.566 58.3966 248.209 58.1217C248.1 58.0562 248.009 57.9737 247.942 57.8791C247.905 57.8365 247.886 57.7861 247.886 57.7346C247.886 57.6831 247.905 57.6328 247.942 57.5901" fill="#F4AF9B"/>
<path d="M250.557 56.2942C250.394 56.2942 250.348 57.1355 249.395 57.7084C248.443 58.2813 247.301 58.1522 247.288 58.2709C247.275 58.3897 247.536 58.4464 248.018 58.4722C248.648 58.4979 249.269 58.3482 249.774 58.049C250.258 57.76 250.582 57.335 250.681 56.8619C250.74 56.5058 250.629 56.289 250.557 56.2942Z" fill="#263238"/>
<path d="M251.216 47.7421C251.307 47.9537 252.299 47.8866 253.461 48.0363C254.622 48.186 255.549 48.4647 255.712 48.2789C255.784 48.186 255.634 47.9847 255.262 47.7628C254.768 47.4936 254.202 47.317 253.608 47.2464C253.015 47.1757 252.409 47.2129 251.836 47.355C251.405 47.4737 251.183 47.6389 251.216 47.7421Z" fill="#263238"/>
<path d="M242.297 47.2314C242.46 47.4172 243.152 47.2314 243.974 47.2727C244.796 47.314 245.488 47.4379 245.658 47.2727C245.736 47.185 245.658 47.0043 245.338 46.8237C244.936 46.6117 244.464 46.4987 243.98 46.4987C243.497 46.4987 243.025 46.6117 242.623 46.8237C242.329 46.963 242.219 47.1437 242.297 47.2314Z" fill="#263238"/>
<path d="M247.126 38.7615C252.48 39.428 257.714 40.5993 262.716 42.2505C263.878 42.6376 265.091 43.0867 265.744 43.9331C266.397 44.7796 266.344 45.9564 266.233 47.0299L264.569 62.3126L263.878 62.2816C261.92 62.5397 261.75 61.7345 260.321 60.6042C259.615 60.031 259.087 59.3358 258.779 58.5736C258.471 57.8113 258.391 57.0028 258.546 56.2119C258.833 54.8235 259.851 53.43 259.303 52.0829C258.579 50.3074 255.505 49.6777 254.768 47.9073C254.343 46.8751 254.826 45.7086 254.33 44.697C253.834 43.6854 252.653 43.1486 251.459 42.7873C250.265 42.426 248.979 42.1267 247.994 41.4712C247.008 40.8157 246.402 39.6028 247.126 38.7615Z" fill="#263238"/>
<path d="M203.508 28.5214H150.832C148.688 28.5214 146.949 29.8963 146.949 31.5924V65.079C146.949 66.7751 148.688 68.15 150.832 68.15H203.508C205.652 68.15 207.391 66.7751 207.391 65.079V31.5924C207.391 29.8963 205.652 28.5214 203.508 28.5214Z" fill="#263238"/>
<path d="M177.17 54.4573C181.981 54.4573 185.882 51.3723 185.882 47.5669C185.882 43.7614 181.981 40.6765 177.17 40.6765C172.358 40.6765 168.458 43.7614 168.458 47.5669C168.458 51.3723 172.358 54.4573 177.17 54.4573Z" fill="#0095E8"/>
<path d="M175.075 49.5846V45.5174C175.075 45.4726 175.09 45.4285 175.118 45.3894C175.146 45.3504 175.186 45.3178 175.235 45.2949C175.284 45.272 175.339 45.2595 175.396 45.2587C175.452 45.2579 175.508 45.2688 175.558 45.2903L180.126 47.3549C180.176 47.3781 180.218 47.4113 180.247 47.4511C180.276 47.4909 180.291 47.5361 180.291 47.582C180.291 47.6279 180.276 47.673 180.247 47.7128C180.218 47.7527 180.176 47.7858 180.126 47.8091L175.558 49.822C175.508 49.8458 175.45 49.8583 175.391 49.8579C175.333 49.8575 175.275 49.8443 175.225 49.8197C175.175 49.7952 175.135 49.7603 175.108 49.7188C175.082 49.6773 175.071 49.6309 175.075 49.5846Z" fill="white"/>
<path d="M231.836 201.431L233.35 212.915C233.35 212.915 219.097 217.983 219.11 220.14L247.367 218.633L245.944 200.636L231.836 201.431Z" fill="#455A64"/>
<g opacity="0.3">
<path d="M231.836 201.431L233.35 212.915C233.35 212.915 219.097 217.983 219.11 220.14L247.367 218.633L245.944 200.636L231.836 201.431Z" fill="black"/>
</g>
<g opacity="0.6">
<path d="M241.996 211.475C242.273 211.525 242.516 211.655 242.68 211.839C242.844 212.022 242.916 212.248 242.883 212.471C242.829 212.692 242.67 212.889 242.438 213.021C242.206 213.152 241.92 213.208 241.637 213.178C241.343 213.123 241.086 212.984 240.913 212.787C240.741 212.591 240.667 212.352 240.704 212.115C240.79 211.889 240.984 211.698 241.244 211.583C241.505 211.467 241.811 211.436 242.1 211.495" fill="white"/>
</g>
<g opacity="0.6">
<path d="M247.36 218.618L247.132 216.806L220.122 218.933C220.122 218.933 218.901 219.449 219.104 220.125L247.36 218.618Z" fill="white"/>
</g>
<path d="M232.873 212.827C232.873 212.936 233.585 212.946 234.29 213.261C234.994 213.576 235.399 214.014 235.523 213.968C235.647 213.921 235.386 213.297 234.518 212.936C233.65 212.574 232.834 212.729 232.873 212.827Z" fill="#263238"/>
<path d="M229.996 213.952C229.996 214.061 230.583 214.215 231.092 214.649C231.601 215.082 231.745 215.568 231.915 215.557C232.084 215.547 232.084 214.922 231.438 214.391C230.792 213.859 229.99 213.849 229.996 213.952Z" fill="#263238"/>
<path d="M228.548 216.848C228.679 216.848 228.822 216.332 228.418 215.733C228.013 215.134 227.348 214.948 227.295 215.041C227.243 215.134 227.674 215.434 227.994 215.914C228.313 216.394 228.411 216.848 228.548 216.848Z" fill="#263238"/>
<path d="M232.899 210.179C232.965 210.272 233.585 210.092 234.368 210.092C235.151 210.092 235.777 210.252 235.836 210.154C235.895 210.056 235.288 209.699 234.361 209.71C233.434 209.72 232.821 210.097 232.899 210.179Z" fill="#263238"/>
<path d="M232.647 207.862C233.12 207.936 233.61 207.908 234.064 207.779C234.568 207.681 235.054 207.534 235.512 207.341C235.784 207.228 236.046 207.1 236.295 206.959C236.449 206.88 236.586 206.783 236.7 206.67C236.783 206.587 236.828 206.484 236.828 206.378C236.828 206.272 236.783 206.169 236.7 206.086C236.625 206.014 236.53 205.957 236.423 205.919C236.315 205.882 236.198 205.865 236.08 205.87C235.899 205.877 235.721 205.906 235.551 205.957C235.254 206.032 234.966 206.127 234.69 206.241C234.228 206.438 233.808 206.691 233.444 206.99C232.83 207.506 232.641 207.924 232.693 207.944C232.745 207.965 233.046 207.619 233.679 207.186C234.047 206.935 234.455 206.723 234.892 206.556C235.15 206.46 235.416 206.379 235.688 206.313C235.982 206.236 236.237 206.221 236.341 206.313C236.445 206.406 236.38 206.37 236.341 206.442C236.254 206.522 236.155 206.593 236.047 206.654C235.806 206.793 235.564 206.917 235.323 207.031C234.908 207.224 234.471 207.387 234.018 207.516C233.551 207.605 233.093 207.721 232.647 207.862Z" fill="#263238"/>
<path d="M232.841 208.006C233.08 207.671 233.178 207.284 233.122 206.902C233.11 206.487 233.008 206.077 232.821 205.689C232.713 205.458 232.573 205.236 232.404 205.028C232.315 204.884 232.181 204.761 232.014 204.671C231.847 204.58 231.653 204.526 231.451 204.512C231.326 204.52 231.206 204.557 231.107 204.617C231.007 204.678 230.932 204.759 230.89 204.853C230.832 204.988 230.794 205.129 230.779 205.271C230.71 205.953 230.987 206.629 231.549 207.15C232.149 207.702 232.737 207.8 232.743 207.764C232.75 207.728 232.286 207.521 231.816 206.984C231.543 206.676 231.358 206.323 231.275 205.952C231.239 205.738 231.239 205.521 231.275 205.307C231.275 205.064 231.392 204.868 231.51 204.884C231.627 204.899 231.901 205.044 232.038 205.224C232.191 205.412 232.324 205.608 232.436 205.813C232.628 206.165 232.753 206.537 232.808 206.917C232.874 207.573 232.763 207.991 232.841 208.006Z" fill="#263238"/>
<path d="M229.382 117.384C229.382 117.384 216.866 162.329 216.481 166.344C216.095 170.36 231.999 205.003 231.999 205.003L245.703 202.938C245.703 202.938 244.835 151.774 244.398 150.773C243.961 149.771 247.889 124.62 247.889 124.62L229.382 117.384Z" fill="#263238"/>
<path d="M238.126 201.968L238.276 213.508C238.276 213.508 223.488 217.508 223.267 219.645L251.575 219.877L252.274 202.221L238.126 201.968Z" fill="#455A64"/>
<g opacity="0.6">
<path d="M247.054 212.719C247.318 212.789 247.541 212.931 247.683 213.121C247.824 213.311 247.874 213.534 247.824 213.751C247.743 213.964 247.564 214.145 247.322 214.258C247.08 214.371 246.793 214.407 246.518 214.36C246.233 214.284 245.992 214.127 245.844 213.919C245.696 213.712 245.65 213.468 245.716 213.235C245.827 213.015 246.041 212.839 246.314 212.742C246.587 212.646 246.897 212.637 247.178 212.719" fill="white"/>
</g>
<g opacity="0.6">
<path d="M251.564 219.877V218.401L224.423 218.53C224.423 218.53 223.151 218.938 223.268 219.645L251.564 219.877Z" fill="white"/>
</g>
<path d="M237.819 213.39C237.819 213.498 238.511 213.56 239.183 213.906C239.855 214.252 240.194 214.737 240.325 214.696C240.455 214.654 240.266 214.019 239.45 213.591C238.635 213.163 237.793 213.286 237.819 213.39Z" fill="#263238"/>
<path d="M234.82 214.298C234.787 214.406 235.381 214.603 235.831 215.072C236.281 215.542 236.412 216.037 236.549 216.037C236.686 216.037 236.79 215.418 236.216 214.84C235.642 214.262 234.826 214.195 234.82 214.298Z" fill="#263238"/>
<path d="M233.045 217.075C233.169 217.075 233.378 216.559 233.045 215.955C232.712 215.351 232.072 215.098 232.007 215.186C231.942 215.274 232.334 215.604 232.601 216.105C232.869 216.605 232.908 217.065 233.045 217.075Z" fill="#263238"/>
<path d="M238.161 210.752C238.213 210.855 238.852 210.716 239.629 210.752C240.406 210.788 241.012 211.021 241.091 210.928C241.169 210.835 240.595 210.411 239.675 210.375C238.755 210.339 238.095 210.664 238.161 210.752Z" fill="#263238"/>
<g opacity="0.3">
<path d="M238.159 204.254L238.179 206.308L252.098 206.489L252.177 204.636L238.159 204.254Z" fill="black"/>
</g>
<path d="M238.18 208.424C238.643 208.528 239.133 208.528 239.596 208.424C240.111 208.364 240.615 208.253 241.097 208.094C241.38 208.001 241.655 207.893 241.919 207.769C242.081 207.703 242.228 207.618 242.356 207.516C242.449 207.439 242.507 207.341 242.523 207.236C242.538 207.13 242.509 207.024 242.441 206.933C242.374 206.856 242.284 206.792 242.18 206.747C242.075 206.702 241.959 206.677 241.841 206.675C241.66 206.667 241.48 206.683 241.306 206.721C241.001 206.772 240.704 206.846 240.418 206.943C239.943 207.105 239.502 207.324 239.113 207.593C238.46 208.063 238.206 208.466 238.251 208.486C238.297 208.507 238.643 208.187 239.322 207.805C239.727 207.589 240.165 207.415 240.627 207.289C240.894 207.209 241.169 207.147 241.449 207.103C241.749 207.051 242.004 207.051 242.102 207.16C242.2 207.268 242.134 207.217 242.069 207.284C241.975 207.358 241.867 207.42 241.749 207.47C241.503 207.59 241.248 207.698 240.986 207.795C240.542 207.959 240.078 208.089 239.602 208.182C239.121 208.234 238.645 208.315 238.18 208.424Z" fill="#263238"/>
<path d="M238.355 208.584C238.631 208.269 238.775 207.894 238.766 207.511C238.802 207.096 238.749 206.678 238.61 206.277C238.528 206.039 238.414 205.809 238.27 205.591C238.199 205.44 238.08 205.307 237.925 205.204C237.769 205.101 237.582 205.031 237.383 205.002C237.256 205.002 237.132 205.03 237.025 205.084C236.919 205.138 236.834 205.215 236.782 205.307C236.704 205.436 236.651 205.573 236.626 205.715C236.574 205.964 236.574 206.219 236.626 206.468C236.69 206.89 236.885 207.292 237.194 207.64C237.729 208.228 238.303 208.373 238.309 208.337C238.316 208.3 237.885 208.063 237.481 207.495C237.246 207.169 237.104 206.806 237.063 206.432C237.042 206.216 237.059 205.999 237.115 205.787C237.167 205.549 237.285 205.358 237.396 205.384C237.507 205.41 237.768 205.57 237.879 205.761C238.011 205.958 238.122 206.164 238.212 206.375C238.356 206.74 238.438 207.118 238.453 207.5C238.44 208.161 238.283 208.564 238.355 208.584Z" fill="#263238"/>
<path d="M261.197 116.692L229.384 117.384L233.952 162.153L236.784 205.307L253.288 205.761C254.129 197.431 254.188 167.996 254.188 167.996L257.497 150.22C258.267 145.425 260.701 140.388 261.876 136.083C262.561 133.56 263.566 130.282 263.781 129.209C264.44 126.045 261.197 116.692 261.197 116.692Z" fill="#263238"/>
<path d="M231.237 127.686C231.244 127.753 231.244 127.82 231.237 127.887C231.237 128.032 231.237 128.228 231.237 128.476C231.237 128.992 231.171 129.766 231.126 130.736C231.08 131.707 231.008 132.92 230.956 134.313C230.904 135.707 230.812 137.296 230.773 139.051C230.649 142.561 230.584 146.742 230.61 151.387C230.636 156.032 230.793 161.131 231.126 166.484C231.458 171.836 231.98 176.93 232.568 181.55C232.888 183.857 233.168 186.05 233.521 188.099C233.69 189.132 233.834 190.112 234.003 191.062C234.173 192.012 234.349 192.92 234.512 193.787C234.813 195.526 235.165 197.09 235.446 198.468C235.726 199.847 235.994 201.049 236.229 201.994L236.731 204.218C236.783 204.466 236.829 204.657 236.855 204.796C236.862 204.863 236.862 204.931 236.855 204.998C236.827 204.934 236.805 204.868 236.79 204.801C236.757 204.662 236.705 204.471 236.64 204.228C236.503 203.712 236.314 202.964 236.072 202.009C235.831 201.054 235.531 199.867 235.237 198.489C234.943 197.111 234.584 195.552 234.251 193.813C234.082 192.946 233.906 192.037 233.723 191.088C233.547 190.138 233.397 189.147 233.22 188.125C232.855 186.061 232.568 183.883 232.235 181.57C231.635 176.951 231.113 171.857 230.767 166.499C230.421 161.142 230.303 156.032 230.277 151.387C230.251 146.742 230.362 142.556 230.512 139.046C230.564 137.291 230.669 135.702 230.741 134.308C230.812 132.914 230.891 131.727 230.962 130.731C231.034 129.735 231.099 129.002 231.139 128.471C231.139 128.223 231.178 128.032 231.191 127.887C231.199 127.819 231.214 127.752 231.237 127.686Z" fill="#455A64"/>
<path d="M213.126 67.8144L204.982 60.9343L198.561 64.4905L204.982 72.0054L213.126 67.8144Z" fill="#FFD3C1"/>
<path d="M264.634 70.3538L264.243 65.9925L245.846 65.786L245.69 71.2622C245.69 71.2622 236.658 79.0042 233.376 87.6494C227.868 102.215 225.871 120.754 225.871 120.754H263.518C263.127 115.624 260.451 104.145 260.451 104.145L268.817 84.4029C270.899 77.3061 264.634 70.3538 264.634 70.3538Z" fill="#0095E8"/>
<path d="M219.084 90.0648C219.084 90.0648 219.188 90.1474 219.397 90.2868C219.697 90.5022 220.018 90.699 220.356 90.8752C221.594 91.5346 223.004 91.9634 224.481 92.1294C225.499 92.2442 226.533 92.2355 227.548 92.1036C228.638 92.0055 229.806 91.8868 231.033 91.7577C233.493 91.4945 236.188 91.1642 239.007 90.7874L253.429 88.79L257.808 88.2222L259.002 88.0726L259.413 88.0106L258.996 88.0519L257.801 88.1809C256.764 88.2945 255.263 88.4751 253.41 88.6971C249.709 89.1668 244.619 89.91 238.981 90.6687C236.162 91.0455 233.473 91.3758 231.02 91.6442C229.793 91.7732 228.625 91.8971 227.528 92.0003C225.045 92.3302 222.495 91.9122 220.383 90.8287C220.048 90.6537 219.725 90.4641 219.417 90.261C219.201 90.1319 219.084 90.0648 219.084 90.0648Z" fill="#263238"/>
<path d="M265.795 83.0303C265.815 82.9925 265.829 82.9525 265.834 82.9115C265.834 82.8083 265.893 82.6948 265.925 82.5761C265.997 82.2819 266.089 81.8586 266.186 81.327C266.471 79.9476 266.425 78.538 266.049 77.1721C265.629 75.7953 264.587 74.5875 263.119 73.776C262.673 73.5419 262.182 73.3676 261.664 73.2599C261.476 73.2171 261.284 73.1877 261.09 73.1721C261.788 73.3044 262.451 73.5333 263.048 73.8483C264.47 74.6634 265.479 75.8528 265.893 77.2031C266.265 78.56 266.323 79.9591 266.062 81.3322C265.984 81.8483 265.906 82.287 265.847 82.5812C265.847 82.7051 265.828 82.8186 265.788 82.9219C265.785 82.9581 265.787 82.9945 265.795 83.0303Z" fill="#263238"/>
<path d="M226.636 86.5709C226.646 86.4627 226.646 86.354 226.636 86.2457L226.531 85.358C226.43 84.3847 226.393 83.4079 226.42 82.4315C226.455 81.4544 226.553 80.4794 226.714 79.5102C226.773 79.1954 226.825 78.9063 226.877 78.6328C226.903 78.5255 226.918 78.4168 226.923 78.3076C226.879 78.4106 226.844 78.5158 226.818 78.6225C226.76 78.8289 226.688 79.1386 226.616 79.4999C226.227 81.4409 226.163 83.4141 226.427 85.3683C226.479 85.7399 226.531 86.0444 226.577 86.2509C226.583 86.3588 226.603 86.4661 226.636 86.5709Z" fill="#263238"/>
<path d="M245.905 71.18C246.366 70.1676 247.046 69.2263 247.915 68.398C249.22 66.989 250.655 65.5128 252.711 64.847C254.108 64.398 257.716 64.6457 258.682 63.727C261.684 60.847 257.286 59.0818 258.878 55.1024C260.633 50.7721 259.726 51.4379 259.863 48.0263L266.526 45.7501C267.577 46.3695 270.487 48.6043 270.167 49.6108C269.857 50.7123 269.945 51.8607 270.422 52.9244C271.446 55.4689 274.99 56.9657 276.661 59.2831C278.331 61.6006 276.439 64.8006 276.393 67.5412C276.347 70.2819 277.652 73.5593 281.026 74.1529C279.75 76.1707 277.674 77.8023 275.114 78.7981L273 76.5219C273.169 77.5621 272.869 78.616 272.153 79.4986C271.436 80.3812 270.35 81.0359 269.084 81.3478C268.373 78.9478 267.629 76.4806 265.789 74.4884C263.948 72.4961 260.757 71.0871 257.749 71.7271C255.732 72.1503 254.179 73.3787 252.378 74.2097C250.577 75.0406 248.032 75.3968 246.596 74.2097C246.16 73.7947 245.868 73.2977 245.747 72.7668C245.625 72.2359 245.68 71.6893 245.905 71.18Z" fill="#263238"/>
<g opacity="0.3">
<path d="M233.35 91.4123C242.029 90.1632 253.579 88.6665 262.259 87.4122C262.579 87.34 262.918 87.34 263.238 87.4122C263.509 87.5303 263.711 87.7274 263.801 87.9617C263.892 88.196 263.863 88.4489 263.721 88.6664C263.412 89.0947 262.936 89.4317 262.363 89.6265C259.511 90.8032 256.177 90.9013 252.966 90.9684L233.35 91.4071V91.4123Z" fill="black"/>
</g>
<path d="M227.039 92.0985C229.741 92.1398 260.803 87.6494 260.803 87.6494L227.039 92.0985Z" fill="#0095E8"/>
<path d="M260.277 72.3101C262.554 72.532 264.036 72.8262 266.698 75.0972C267.006 75.3648 267.271 75.6612 267.488 75.9798C270.45 80.1088 268.31 85.7863 262.633 87.3605L257.138 88.2534L227.041 92.0986C227.041 92.0986 220.633 93.2341 215.125 86.4779C213.109 83.9953 199.202 67.5926 199.202 67.5926L208.338 62.7565L226.754 78.3385L260.277 72.3101Z" fill="#0095E8"/>
<path d="M219.084 90.0648C219.084 90.0648 219.188 90.1474 219.397 90.2868C219.697 90.5022 220.018 90.699 220.356 90.8752C221.594 91.5346 223.004 91.9634 224.481 92.1294C225.499 92.2442 226.533 92.2355 227.548 92.1036C228.638 92.0055 229.806 91.8868 231.033 91.7577C233.493 91.4945 236.188 91.1642 239.007 90.7874L253.429 88.79L257.808 88.2222L259.002 88.0726L259.413 88.0106L258.996 88.0519L257.801 88.1809C256.764 88.2945 255.263 88.4751 253.41 88.6971C249.709 89.1668 244.619 89.91 238.981 90.6687C236.162 91.0455 233.473 91.3758 231.02 91.6442C229.793 91.7732 228.625 91.8971 227.528 92.0003C225.045 92.3302 222.495 91.9122 220.383 90.8287C220.048 90.6537 219.725 90.4641 219.417 90.261C219.201 90.1319 219.084 90.0648 219.084 90.0648Z" fill="#263238"/>
<path d="M265.795 83.0303C265.815 82.9925 265.829 82.9525 265.834 82.9115C265.834 82.8083 265.893 82.6948 265.925 82.5761C265.997 82.2819 266.089 81.8586 266.186 81.327C266.471 79.9476 266.425 78.538 266.049 77.1721C265.629 75.7953 264.587 74.5875 263.119 73.776C262.673 73.5419 262.182 73.3676 261.664 73.2599C261.476 73.2171 261.284 73.1877 261.09 73.1721C261.788 73.3044 262.451 73.5333 263.048 73.8483C264.47 74.6634 265.479 75.8528 265.893 77.2031C266.265 78.56 266.323 79.9591 266.062 81.3322C265.984 81.8483 265.906 82.287 265.847 82.5812C265.847 82.7051 265.828 82.8186 265.788 82.9219C265.785 82.9581 265.787 82.9945 265.795 83.0303Z" fill="#263238"/>
<path d="M226.636 86.5709C226.646 86.4627 226.646 86.354 226.636 86.2457L226.531 85.358C226.43 84.3847 226.393 83.4079 226.42 82.4315C226.455 81.4544 226.553 80.4794 226.714 79.5102C226.773 79.1954 226.825 78.9063 226.877 78.6328C226.903 78.5255 226.918 78.4168 226.923 78.3076C226.879 78.4106 226.844 78.5158 226.818 78.6225C226.76 78.8289 226.688 79.1386 226.616 79.4999C226.227 81.4409 226.163 83.4141 226.427 85.3683C226.479 85.7399 226.531 86.0444 226.577 86.2509C226.583 86.3588 226.603 86.4661 226.636 86.5709Z" fill="#263238"/>
<path d="M204.943 55.6029C204.761 54.6224 204.704 53.6299 204.773 52.6403C204.779 52.5901 204.771 52.5393 204.75 52.4918C204.728 52.4443 204.693 52.4014 204.647 52.3661C204.601 52.3309 204.546 52.3043 204.485 52.2883C204.424 52.2723 204.36 52.2674 204.297 52.2739C203.904 52.3146 203.536 52.446 203.237 52.6517C202.939 52.8574 202.724 53.1281 202.62 53.43C202.418 53.9704 202.354 54.537 202.43 55.0971C202.43 56.0159 202.43 56.7436 202.43 56.7436C202.43 56.7436 196.635 51.2571 195.461 51.0094C195.363 50.972 195.257 50.9503 195.149 50.9457C195.041 50.941 194.933 50.9535 194.83 50.9823C194.728 51.0111 194.635 51.0558 194.555 51.1136C194.475 51.1714 194.41 51.2412 194.364 51.319C194.149 51.5926 194.58 52.2326 194.58 52.2326L197.843 55.9281C197.843 55.9281 192.903 51.3345 192.009 51.3449C191.115 51.3552 190.704 51.861 191.284 52.7126C191.708 53.3371 196.022 57.3578 196.022 57.3578C196.022 57.3578 191.408 53.8378 190.488 53.8636C189.568 53.8894 189.725 54.6636 190.208 54.9836C190.69 55.3036 194.123 58.4468 194.123 58.4468C194.123 58.4468 190.788 56.2171 190.116 56.3823C189.444 56.5475 189.731 57.1462 190.084 57.6262C190.436 58.1062 198.802 64.7179 198.802 64.7179L206.059 61.8378C206.247 61.0326 206.209 60.2044 205.948 59.412C205.509 58.1608 205.174 56.8884 204.943 55.6029Z" fill="#FFD3C1"/>
<path d="M98.3949 120.796C96.6289 120.79 94.9375 120.231 93.6912 119.242C92.4449 118.252 91.7451 116.912 91.7451 115.516V69.6107C91.7962 68.452 92.4258 67.3566 93.4961 66.5643C94.5663 65.772 95.99 65.3474 97.4552 65.3836H102.911C103.984 65.4005 105.042 65.1793 105.965 64.7451C106.887 64.3109 107.638 63.681 108.131 62.9268L109.299 61.0429C109.79 60.2927 110.536 59.6655 111.452 59.2315C112.368 58.7976 113.419 58.5741 114.487 58.5862H140.388C141.361 58.5762 142.322 58.7601 143.182 59.1208C144.042 59.4816 144.773 60.0077 145.309 60.6507L146.581 62.2455C147.115 62.8881 147.846 63.414 148.704 63.7748C149.563 64.1356 150.523 64.3196 151.495 64.3101H184.515C185.982 64.2725 187.408 64.6973 188.479 65.491C189.549 66.2847 190.178 67.3823 190.225 68.5424V115.51C190.225 116.911 189.522 118.254 188.27 119.244C187.018 120.234 185.32 120.79 183.55 120.79L98.3949 120.796Z" fill="#0095E8"/>
<g opacity="0.3">
<path d="M98.3949 120.796C96.6289 120.79 94.9375 120.231 93.6912 119.242C92.4449 118.252 91.7451 116.912 91.7451 115.516V69.6107C91.7962 68.452 92.4258 67.3566 93.4961 66.5643C94.5663 65.772 95.99 65.3474 97.4552 65.3836H102.911C103.984 65.4005 105.042 65.1793 105.965 64.7451C106.887 64.3109 107.638 63.681 108.131 62.9268L109.299 61.0429C109.79 60.2927 110.536 59.6655 111.452 59.2315C112.368 58.7976 113.419 58.5741 114.487 58.5862H140.388C141.361 58.5762 142.322 58.7601 143.182 59.1208C144.042 59.4816 144.773 60.0077 145.309 60.6507L146.581 62.2455C147.115 62.8881 147.846 63.414 148.704 63.7748C149.563 64.1356 150.523 64.3196 151.495 64.3101H184.515C185.982 64.2725 187.408 64.6973 188.479 65.491C189.549 66.2847 190.178 67.3823 190.225 68.5424V115.51C190.225 116.911 189.522 118.254 188.27 119.244C187.018 120.234 185.32 120.79 183.55 120.79L98.3949 120.796Z" fill="black"/>
</g>
<path d="M148.18 64.3359L127.167 64.2997L125.294 61.523C124.657 60.6215 123.724 59.8728 122.594 59.3559C121.464 58.839 120.178 58.573 118.872 58.5862H98.3359C94.6814 58.5862 91.7188 60.7797 91.7188 63.4894V115.227C91.7188 118.323 95.086 120.796 99.2364 120.796H182.649C186.806 120.796 190.166 118.303 190.166 115.227V68.1398C190.166 67.1309 189.66 66.1634 188.758 65.45C187.856 64.7366 186.633 64.3359 185.357 64.3359H148.18Z" fill="#0095E8"/>
<path d="M158.771 103.541H149.472C149.299 103.541 149.133 103.487 149.011 103.39C148.888 103.293 148.82 103.162 148.82 103.025C148.82 102.888 148.888 102.757 149.011 102.66C149.133 102.563 149.299 102.509 149.472 102.509H158.771C161.183 102.513 163.501 101.771 165.231 100.443C166.961 99.1141 167.967 97.3034 168.033 95.3968C168.099 93.4902 167.221 91.6386 165.586 90.2366C163.951 88.8347 161.688 87.9934 159.28 87.8922C159.141 87.8868 159.008 87.8464 158.9 87.7767C158.792 87.707 158.715 87.6119 158.68 87.5051C157.993 85.4069 156.582 83.5011 154.604 82.0008C152.626 80.5006 150.16 79.465 147.48 79.0098C144.801 78.5546 142.014 78.6977 139.432 79.4232C136.85 80.1487 134.573 81.428 132.857 83.118C132.788 83.1875 132.696 83.2416 132.592 83.2751C132.488 83.3085 132.375 83.3202 132.264 83.3089C131.796 83.2612 131.325 83.237 130.854 83.2367C127.672 83.2949 124.646 84.3355 122.422 86.1358C120.198 87.9361 118.952 90.3532 118.952 92.8703C118.952 95.3873 120.198 97.8045 122.422 99.6048C124.646 101.405 127.672 102.446 130.854 102.504H138.391C138.564 102.504 138.73 102.558 138.853 102.655C138.975 102.752 139.044 102.883 139.044 103.02C139.044 103.157 138.975 103.288 138.853 103.385C138.73 103.482 138.564 103.536 138.391 103.536H130.821C127.242 103.536 123.81 102.412 121.279 100.41C118.748 98.4082 117.326 95.6934 117.326 92.8625C117.326 90.0317 118.748 87.3168 121.279 85.3152C123.81 83.3135 127.242 82.1889 130.821 82.1889C131.223 82.1891 131.623 82.2063 132.022 82.2405C133.896 80.469 136.345 79.1342 139.105 78.3792C141.865 77.6242 144.833 77.4776 147.69 77.9549C150.548 78.4323 153.187 79.5157 155.325 81.0889C157.464 82.6622 159.02 84.6661 159.828 86.8857C162.539 87.0852 165.048 88.105 166.831 89.7323C168.613 91.3597 169.532 93.4688 169.396 95.6193C169.26 97.7698 168.078 99.7956 166.098 101.274C164.119 102.752 161.494 103.568 158.771 103.552V103.541Z" fill="white"/>
<path d="M143.735 108.249C143.562 108.249 143.396 108.194 143.273 108.097C143.151 108.001 143.082 107.869 143.082 107.732V94.313C143.082 94.1761 143.151 94.0448 143.273 93.948C143.396 93.8513 143.562 93.7969 143.735 93.7969C143.908 93.7969 144.074 93.8513 144.196 93.948C144.318 94.0448 144.387 94.1761 144.387 94.313V107.732C144.387 107.869 144.318 108.001 144.196 108.097C144.074 108.194 143.908 108.249 143.735 108.249Z" fill="white"/>
<path d="M148.695 99.6549C148.592 99.6557 148.491 99.6374 148.399 99.6015C148.308 99.5657 148.228 99.5132 148.166 99.4484L143.846 94.8652C143.83 94.8501 143.81 94.8381 143.788 94.83C143.765 94.822 143.741 94.8181 143.716 94.8187C143.692 94.8192 143.669 94.8236 143.648 94.8316C143.626 94.8396 143.607 94.851 143.592 94.8652L139.024 99.3194C138.914 99.4268 138.754 99.4954 138.581 99.5099C138.407 99.5244 138.233 99.4837 138.097 99.3968C137.961 99.3099 137.875 99.1838 137.856 99.0464C137.838 98.9089 137.889 98.7713 137.999 98.6639L142.567 94.2097C142.711 94.0737 142.89 93.9644 143.093 93.8894C143.296 93.8145 143.518 93.7758 143.742 93.7761C143.965 93.7787 144.184 93.8214 144.383 93.901C144.582 93.9806 144.756 94.095 144.89 94.2355L149.223 98.8239C149.276 98.8786 149.313 98.9409 149.335 99.0073C149.356 99.0737 149.36 99.1427 149.348 99.2105C149.335 99.2782 149.305 99.3433 149.26 99.4018C149.216 99.4604 149.156 99.5113 149.086 99.5516C148.973 99.6186 148.836 99.6549 148.695 99.6549Z" fill="white"/>
<path d="M130.999 131.67V129.358H131.547V131.655C131.547 132.615 132.115 133.054 133.107 133.054C134.099 133.054 134.673 132.615 134.673 131.655V129.358H135.202V131.67C135.202 132.832 134.412 133.43 133.107 133.43C131.802 133.43 130.999 132.832 130.999 131.67Z" fill="#263238"/>
<path d="M140.6 131.882C140.615 132.085 140.576 132.289 140.486 132.48C140.395 132.67 140.256 132.844 140.076 132.99C139.896 133.135 139.68 133.25 139.441 133.326C139.202 133.402 138.946 133.437 138.688 133.431C138.4 133.438 138.114 133.387 137.859 133.282C137.603 133.177 137.385 133.022 137.226 132.832V134.525H136.711V130.396H137.207V130.958C137.363 130.76 137.582 130.599 137.842 130.489C138.102 130.379 138.394 130.326 138.688 130.334C138.945 130.328 139.201 130.364 139.44 130.44C139.678 130.516 139.894 130.631 140.074 130.776C140.253 130.922 140.393 131.095 140.484 131.286C140.574 131.476 140.614 131.679 140.6 131.882ZM140.085 131.882C140.073 131.66 139.979 131.445 139.815 131.264C139.65 131.084 139.422 130.946 139.159 130.867C138.896 130.788 138.609 130.772 138.335 130.821C138.06 130.87 137.81 130.981 137.615 131.142C137.42 131.302 137.289 131.505 137.238 131.724C137.187 131.943 137.219 132.168 137.329 132.373C137.439 132.578 137.623 132.753 137.858 132.876C138.093 132.998 138.368 133.064 138.649 133.064C138.843 133.066 139.036 133.037 139.216 132.978C139.395 132.919 139.557 132.831 139.692 132.72C139.827 132.609 139.931 132.478 139.999 132.334C140.066 132.189 140.096 132.036 140.085 131.882Z" fill="#263238"/>
<path d="M141.657 129.115H142.173V133.399H141.657V129.115Z" fill="#263238"/>
<path d="M143.231 131.882C143.231 131.576 143.345 131.277 143.561 131.022C143.776 130.767 144.081 130.569 144.439 130.452C144.797 130.334 145.191 130.304 145.57 130.363C145.95 130.423 146.299 130.571 146.573 130.787C146.847 131.004 147.033 131.28 147.109 131.58C147.184 131.88 147.145 132.192 146.997 132.475C146.849 132.758 146.598 132.999 146.276 133.17C145.954 133.34 145.576 133.431 145.188 133.431C144.929 133.438 144.67 133.403 144.429 133.327C144.187 133.252 143.967 133.138 143.784 132.993C143.6 132.848 143.456 132.674 143.361 132.483C143.266 132.292 143.222 132.087 143.231 131.882ZM146.611 131.882C146.598 131.661 146.503 131.447 146.339 131.268C146.174 131.089 145.946 130.952 145.684 130.875C145.421 130.797 145.136 130.783 144.863 130.832C144.59 130.882 144.341 130.994 144.148 131.154C143.955 131.315 143.826 131.517 143.777 131.735C143.727 131.953 143.76 132.178 143.871 132.381C143.982 132.584 144.166 132.758 144.4 132.879C144.634 133.001 144.908 133.065 145.188 133.064C145.382 133.067 145.575 133.037 145.753 132.978C145.932 132.919 146.094 132.831 146.227 132.72C146.361 132.609 146.464 132.477 146.53 132.333C146.596 132.189 146.624 132.035 146.611 131.882Z" fill="#263238"/>
<path d="M151.067 131.516V133.4H150.571V132.925C150.43 133.094 150.236 133.232 150.006 133.322C149.777 133.413 149.521 133.454 149.266 133.441C148.398 133.441 147.869 133.085 147.869 132.558C147.869 132.032 148.248 131.701 149.35 131.701H150.564V131.516C150.564 131 150.192 130.711 149.481 130.711C149.005 130.701 148.541 130.83 148.176 131.072L147.941 130.762C148.386 130.489 148.937 130.345 149.501 130.354C149.705 130.329 149.914 130.342 150.111 130.39C150.309 130.438 150.49 130.522 150.641 130.634C150.792 130.745 150.909 130.883 150.982 131.036C151.056 131.189 151.085 131.353 151.067 131.516ZM150.545 132.486V131.97H149.344C148.6 131.97 148.359 132.202 148.359 132.512C148.359 132.821 148.717 133.085 149.331 133.085C149.584 133.099 149.837 133.052 150.054 132.948C150.271 132.845 150.443 132.69 150.545 132.507V132.486Z" fill="#263238"/>
<path d="M155.987 129.116V133.399H155.491V132.796C155.337 132.995 155.119 133.159 154.859 133.27C154.598 133.381 154.305 133.434 154.009 133.425C153.49 133.425 152.992 133.262 152.625 132.972C152.258 132.681 152.052 132.288 152.052 131.877C152.052 131.466 152.258 131.072 152.625 130.782C152.992 130.492 153.49 130.328 154.009 130.328C154.298 130.32 154.584 130.371 154.84 130.476C155.096 130.581 155.313 130.736 155.471 130.927V129.105L155.987 129.116ZM155.478 131.882C155.465 131.661 155.37 131.447 155.205 131.268C155.04 131.089 154.813 130.952 154.55 130.875C154.288 130.797 154.003 130.782 153.73 130.832C153.457 130.882 153.208 130.994 153.015 131.154C152.822 131.315 152.693 131.517 152.643 131.735C152.594 131.953 152.627 132.177 152.738 132.381C152.848 132.584 153.032 132.758 153.267 132.879C153.501 133 153.775 133.065 154.055 133.064C154.249 133.066 154.441 133.036 154.619 132.976C154.797 132.917 154.958 132.829 155.092 132.718C155.225 132.607 155.328 132.476 155.395 132.332C155.461 132.188 155.489 132.035 155.478 131.882Z" fill="#263238"/>
<path d="M157.096 133.111C157.094 133.07 157.103 133.029 157.121 132.991C157.14 132.953 157.168 132.918 157.204 132.888C157.24 132.859 157.283 132.836 157.331 132.82C157.378 132.804 157.429 132.796 157.481 132.796C157.533 132.796 157.584 132.804 157.632 132.82C157.68 132.836 157.724 132.859 157.76 132.888C157.797 132.917 157.825 132.952 157.845 132.99C157.864 133.029 157.873 133.069 157.872 133.111C157.873 133.193 157.831 133.272 157.758 133.331C157.685 133.39 157.585 133.424 157.481 133.425C157.43 133.425 157.379 133.416 157.332 133.4C157.284 133.384 157.242 133.36 157.206 133.331C157.17 133.302 157.142 133.267 157.123 133.229C157.104 133.192 157.095 133.151 157.096 133.111Z" fill="#263238"/>
<path d="M158.646 133.111C158.645 133.07 158.654 133.029 158.673 132.992C158.692 132.954 158.72 132.919 158.756 132.89C158.791 132.861 158.834 132.837 158.881 132.821C158.928 132.805 158.979 132.796 159.031 132.796C159.083 132.796 159.134 132.804 159.182 132.82C159.23 132.836 159.273 132.859 159.31 132.888C159.346 132.917 159.375 132.952 159.394 132.99C159.414 133.029 159.423 133.069 159.422 133.111C159.422 133.193 159.381 133.272 159.308 133.331C159.235 133.39 159.135 133.424 159.031 133.425C158.979 133.425 158.928 133.416 158.881 133.4C158.834 133.384 158.791 133.36 158.756 133.331C158.72 133.302 158.692 133.267 158.673 133.229C158.654 133.192 158.645 133.151 158.646 133.111Z" fill="#263238"/>
<path d="M160.192 133.111C160.19 133.07 160.199 133.029 160.217 132.991C160.236 132.953 160.264 132.918 160.3 132.888C160.336 132.859 160.379 132.836 160.426 132.82C160.474 132.804 160.525 132.796 160.577 132.796C160.629 132.796 160.68 132.804 160.728 132.82C160.776 132.836 160.819 132.859 160.856 132.888C160.892 132.917 160.921 132.952 160.94 132.99C160.96 133.029 160.969 133.069 160.968 133.111C160.968 133.193 160.927 133.272 160.854 133.331C160.781 133.39 160.681 133.424 160.577 133.425C160.525 133.425 160.474 133.416 160.427 133.4C160.38 133.384 160.337 133.36 160.302 133.331C160.266 133.302 160.238 133.267 160.219 133.229C160.2 133.192 160.191 133.151 160.192 133.111Z" fill="#263238"/>
<path d="M193.419 140.305H91.643C89.2535 140.305 87.3164 141.837 87.3164 143.727V144.724C87.3164 146.613 89.2535 148.145 91.643 148.145H193.419C195.808 148.145 197.745 146.613 197.745 144.724V143.727C197.745 141.837 195.808 140.305 193.419 140.305Z" fill="#E0E0E0"/>
<path d="M138.204 140.305H91.643C89.2535 140.305 87.3164 141.837 87.3164 143.727V144.724C87.3164 146.613 89.2535 148.145 91.643 148.145H138.204C140.594 148.145 142.531 146.613 142.531 144.724V143.727C142.531 141.837 140.594 140.305 138.204 140.305Z" fill="#0095E8"/>
<g opacity="0.3">
<path d="M95.6583 140.305L89.7852 147.681L90.7053 148.006C90.9659 148.099 91.2484 148.146 91.5341 148.145H93.4004L99.7826 140.305H95.6583Z" fill="white"/>
</g>
<g opacity="0.3">
<path d="M106.165 140.305L99.9199 148.145H103.907L110.283 140.305H106.165Z" fill="white"/>
</g>
<g opacity="0.3">
<path d="M116.663 140.305L110.418 148.145H114.405L120.787 140.305H116.663Z" fill="white"/>
</g>
<g opacity="0.3">
<path d="M127.172 140.305L120.92 148.145H124.907L131.289 140.305H127.172Z" fill="white"/>
</g>
<g opacity="0.3">
<path d="M137.669 140.305L131.424 148.145H135.411L140.436 141.952L141.036 141.281C140.266 140.625 139.085 140.352 137.669 140.305Z" fill="white"/>
</g>
<path d="M193.544 148.145C193.544 148.145 193.746 148.145 194.138 148.094C194.719 148.03 195.278 147.87 195.776 147.624C196.592 147.229 197.219 146.629 197.557 145.921C197.77 145.473 197.868 144.995 197.844 144.517C197.885 143.972 197.832 143.425 197.688 142.891C197.48 142.272 197.055 141.712 196.461 141.276C195.868 140.84 195.13 140.546 194.333 140.429C193.884 140.379 193.43 140.36 192.976 140.372H188.512H174.273L91.8396 140.409C90.8684 140.409 89.9274 140.676 89.1767 141.163C88.426 141.651 87.9119 142.329 87.7219 143.082C87.6492 143.461 87.623 143.845 87.6436 144.228C87.6227 144.61 87.6555 144.992 87.7415 145.369C87.9369 146.098 88.4384 146.754 89.1645 147.23C89.8907 147.706 90.7989 147.974 91.7418 147.99H100.421H122.308L159.368 148.021L184.355 148.063L191.149 148.089H192.917H193.518H192.917H191.149H184.355L159.368 148.135L122.308 148.161H100.421H91.7418C90.7143 148.153 89.7205 147.87 88.9236 147.357C88.1267 146.844 87.574 146.132 87.3564 145.338C87.2637 144.943 87.2287 144.541 87.252 144.14C87.2287 143.74 87.2571 143.339 87.3369 142.943C87.5397 142.127 88.0946 141.393 88.9065 140.866C89.7184 140.339 90.7369 140.051 91.7874 140.052L174.221 140.094H188.46H192.924C193.389 140.08 193.854 140.102 194.314 140.161C195.136 140.285 195.896 140.591 196.507 141.043C197.118 141.495 197.555 142.075 197.766 142.716C197.905 143.261 197.953 143.818 197.909 144.372C197.926 144.862 197.822 145.349 197.603 145.807C197.246 146.525 196.599 147.129 195.762 147.526C195.252 147.768 194.683 147.923 194.092 147.98C193.916 148.048 193.732 148.104 193.544 148.145Z" fill="#263238"/>
</svg>
