<svg width="550" height="442" viewBox="0 0 550 442" fill="none" xmlns="http://www.w3.org/2000/svg">
<path d="M494.834 411.229H458.406V411.529H494.834V411.229Z" fill="#EBEBEB"/>
<path d="M364.301 414.477H354.743V414.777H364.301V414.477Z" fill="#EBEBEB"/>
<path d="M457.306 400.145H436.2V400.445H457.306V400.145Z" fill="#EBEBEB"/>
<path d="M105.203 402.152H57.6995V402.452H105.203V402.152Z" fill="#EBEBEB"/>
<path d="M121.965 402.152H115.003V402.452H121.965V402.152Z" fill="#EBEBEB"/>
<path d="M247.637 407.192H144.601V407.492H247.637V407.192Z" fill="#EBEBEB"/>
<path d="M262.21 338.744H49.8242C48.1586 338.744 46.5612 338.025 45.3834 336.746C44.2056 335.467 43.5439 333.733 43.5439 331.924V7.74237C43.5584 5.94403 44.2265 4.22471 45.4027 2.95865C46.5789 1.69259 48.1681 0.982292 49.8242 0.982361H262.21C263.035 0.982361 263.852 1.15876 264.614 1.50148C265.376 1.8442 266.068 2.34654 266.651 2.97981C267.234 3.61308 267.697 4.36488 268.012 5.19229C268.328 6.0197 268.49 6.9065 268.49 7.80208V331.924C268.49 332.82 268.328 333.706 268.012 334.534C267.697 335.361 267.234 336.113 266.651 336.746C266.068 337.38 265.376 337.882 264.614 338.225C263.852 338.567 263.035 338.744 262.21 338.744ZM49.8242 1.22123C48.2324 1.22439 46.7066 1.91245 45.581 3.13471C44.4555 4.35698 43.8218 6.01382 43.8189 7.74237V331.924C43.8218 333.653 44.4555 335.309 45.581 336.532C46.7066 337.754 48.2324 338.442 49.8242 338.445H262.21C263.802 338.442 265.328 337.754 266.453 336.532C267.579 335.309 268.213 333.653 268.216 331.924V7.74237C268.213 6.01382 267.579 4.35698 266.453 3.13471C265.328 1.91245 263.802 1.22439 262.21 1.22123H49.8242Z" fill="#EBEBEB"/>
<path d="M500.114 338.744H287.728C286.062 338.744 284.464 338.025 283.287 336.746C282.109 335.467 281.447 333.733 281.447 331.924V7.74237C281.462 5.94403 282.13 4.22471 283.306 2.95865C284.482 1.69259 286.071 0.982292 287.728 0.982361H500.114C501.779 0.982361 503.377 1.70087 504.554 2.97981C505.732 4.25876 506.394 5.99338 506.394 7.80208V331.924C506.394 333.733 505.732 335.467 504.554 336.746C503.377 338.025 501.779 338.744 500.114 338.744ZM287.728 1.22123C286.136 1.22439 284.61 1.91245 283.484 3.13471C282.359 4.35698 281.725 6.01382 281.722 7.74237V331.924C281.725 333.653 282.359 335.309 283.484 336.532C284.61 337.754 286.136 338.442 287.728 338.445H500.114C501.705 338.442 503.231 337.754 504.357 336.532C505.482 335.309 506.116 333.653 506.119 331.924V7.74237C506.116 6.01382 505.482 4.35698 504.357 3.13471C503.231 1.91245 501.705 1.22439 500.114 1.22123H287.728Z" fill="#EBEBEB"/>
<path d="M549.938 392.012H0V392.312H549.938V392.012Z" fill="#EBEBEB"/>
<path d="M99.9568 242.396L83.1507 236.758C82.9076 236.663 82.7034 236.477 82.5739 236.234C82.4444 235.991 82.3979 235.706 82.4425 235.43C82.4872 235.153 82.6201 234.902 82.818 234.722C83.0159 234.541 83.2661 234.442 83.5246 234.441L102.904 235.552C98.3289 226.917 95.6232 221.519 92.5436 214.759C92.4411 214.503 92.4244 214.216 92.4962 213.948C92.5681 213.68 92.724 213.448 92.937 213.292C93.1499 213.136 93.4064 213.066 93.6621 213.094C93.9177 213.122 94.1562 213.246 94.3364 213.445C98.4719 218.497 101.937 222.593 107.535 229.055C108.855 220.694 110.395 212.991 112.308 205.263C112.358 204.947 112.521 204.664 112.763 204.478C113.004 204.293 113.304 204.218 113.595 204.272C113.887 204.326 114.147 204.504 114.318 204.766C114.489 205.028 114.558 205.353 114.508 205.67C113.994 211.895 113.807 218.148 113.947 224.397L114.475 224.6C119.124 218.835 124.004 213.297 129.114 207.987C129.32 207.812 129.576 207.722 129.838 207.733C130.099 207.745 130.347 207.857 130.539 208.05C130.731 208.242 130.854 208.503 130.885 208.784C130.916 209.066 130.854 209.351 130.709 209.587C125.767 216.393 121.202 223.512 117.038 230.906C123.681 228.183 130.361 225.544 137.078 222.988C137.331 222.909 137.602 222.931 137.841 223.051C138.08 223.171 138.272 223.38 138.381 223.641C138.491 223.901 138.51 224.195 138.436 224.47C138.363 224.745 138.2 224.982 137.979 225.137C131.017 229.425 124.132 233.808 117.258 238.347L134.977 244.474C135.222 244.57 135.427 244.758 135.557 245.004C135.686 245.249 135.731 245.537 135.684 245.815C135.636 246.093 135.499 246.344 135.297 246.522C135.095 246.701 134.841 246.796 134.581 246.791L116.378 245.597C119.974 250.171 122.471 253.312 125.386 256.859C125.55 257.077 125.638 257.351 125.635 257.632C125.631 257.914 125.536 258.185 125.367 258.398C125.197 258.611 124.963 258.752 124.707 258.796C124.451 258.84 124.189 258.784 123.967 258.639C120.304 255.999 117.082 253.658 112.396 250.278C112.88 254.339 113.287 257.445 113.782 260.574C113.81 260.855 113.745 261.137 113.599 261.371C113.452 261.605 113.235 261.775 112.984 261.851C112.733 261.927 112.466 261.904 112.23 261.786C111.993 261.668 111.803 261.463 111.692 261.207C110.472 257.827 109.361 254.471 107.953 250.004C102.662 277.474 104.026 304.143 109.141 331.47L102.805 330.276C99.0714 303.434 100.079 276.066 105.775 249.633C102.596 253.217 100.276 255.88 98.076 258.579C97.8895 258.778 97.644 258.898 97.3836 258.917C97.1231 258.937 96.8646 258.856 96.6543 258.688C96.444 258.52 96.2956 258.276 96.2357 258C96.1757 257.724 96.2082 257.434 96.3272 257.182C97.823 254.483 99.4398 251.747 101.618 248.2C95.9532 249.55 92.0816 250.481 87.8031 251.532C87.5464 251.583 87.2816 251.532 87.056 251.39C86.8304 251.248 86.6586 251.023 86.5714 250.757C86.4842 250.49 86.4872 250.198 86.5798 249.933C86.6725 249.668 86.8487 249.448 87.0772 249.311C90.9158 247.078 94.5894 245.167 99.9568 242.396Z" fill="#EBEBEB"/>
<path d="M91.0148 251.891L103.927 244.462C104.251 244.284 104.502 243.983 104.632 243.615C104.762 243.248 104.762 242.842 104.632 242.474C104.502 242.107 104.251 241.805 103.928 241.627C103.605 241.45 103.232 241.409 102.882 241.512L86.9453 245.824C89.541 237.702 91.1798 232.232 92.7856 226.212C92.884 225.841 92.8547 225.444 92.7032 225.095C92.5517 224.746 92.2883 224.469 91.9622 224.315C91.6362 224.162 91.2698 224.142 90.9314 224.26C90.5931 224.379 90.3061 224.627 90.1239 224.958C87.5062 229.736 85.0095 234.035 81.3249 240.377C79.1251 233.904 76.8044 227.896 74.2967 221.996C74.1392 221.644 73.8676 221.368 73.5339 221.22C73.2002 221.072 72.8279 221.063 72.4884 221.194C72.149 221.326 71.8663 221.589 71.6946 221.933C71.5229 222.278 71.4742 222.679 71.558 223.059C72.6579 227.741 73.5708 232.459 74.2747 237.081L73.7907 237.391C69.6112 233.856 65.3364 230.468 60.9662 227.228C60.6619 226.999 60.289 226.904 59.9227 226.962C59.5565 227.02 59.224 227.226 58.9925 227.54C58.7609 227.853 58.6474 228.251 58.6749 228.652C58.7023 229.052 58.8687 229.427 59.1404 229.7C63.7452 234.278 68.1447 239.079 72.3389 244.104C66.6856 243.045 61.0212 242.033 55.3458 241.07C54.9872 241.016 54.6228 241.108 54.3231 241.329C54.0235 241.55 53.8099 241.883 53.7237 242.265C53.6375 242.647 53.6848 243.05 53.8564 243.396C54.0281 243.743 54.3119 244.007 54.6529 244.139C60.9222 246.528 67.1475 248.917 73.3508 251.461L59.6134 259.535C59.2764 259.709 59.0135 260.016 58.8785 260.394C58.7434 260.772 58.7465 261.192 58.8871 261.567C59.0276 261.942 59.295 262.245 59.6345 262.414C59.974 262.582 60.3599 262.603 60.7132 262.473L75.5066 258.4C73.3068 262.473 71.723 265.566 70.0072 268.647C69.8194 268.98 69.7508 269.376 69.8144 269.759C69.8779 270.143 70.0692 270.488 70.3518 270.728C70.6344 270.969 70.9886 271.088 71.3469 271.063C71.7052 271.039 72.0426 270.872 72.2949 270.594L80.291 262.102C80.423 264.491 80.533 266.617 80.599 268.576C80.6135 268.968 80.7613 269.341 81.0139 269.622C81.2664 269.902 81.6058 270.072 81.9666 270.097C82.3274 270.122 82.684 270.002 82.9677 269.758C83.2513 269.515 83.4419 269.166 83.5026 268.779C83.8656 266.39 84.2176 263.906 84.6025 260.932C94.5014 286.861 97.801 313.316 97.4271 341.204L103.443 338.696C102.498 311.568 96.8018 284.885 86.6593 260.072C88.947 261.816 90.8608 263.297 92.6096 264.694C92.9013 264.973 93.2831 265.114 93.6708 265.088C94.0586 265.061 94.4207 264.868 94.6774 264.551C94.9341 264.234 95.0644 263.82 95.0396 263.399C95.0149 262.977 94.8371 262.584 94.5454 262.306C93.3575 260.932 92.0487 259.475 90.5419 257.803C94.9414 257.934 98.307 258.042 101.541 258.161C101.897 258.17 102.243 258.037 102.516 257.788C102.788 257.539 102.968 257.19 103.02 256.808C103.073 256.425 102.995 256.035 102.802 255.71C102.608 255.386 102.312 255.149 101.97 255.044C98.7579 254.1 95.4253 253.133 91.0148 251.891Z" fill="#F0F0F0"/>
<path d="M113.815 266.963L104.18 261.41C103.959 261.28 103.789 261.067 103.702 260.811C103.615 260.555 103.617 260.274 103.707 260.019C103.798 259.764 103.97 259.554 104.193 259.428C104.415 259.301 104.673 259.267 104.917 259.332L116.785 262.544C114.849 256.501 113.65 252.488 112.462 247.997C112.343 247.72 112.329 247.403 112.425 247.115C112.521 246.827 112.718 246.592 112.974 246.463C113.229 246.333 113.521 246.318 113.786 246.422C114.051 246.527 114.267 246.741 114.387 247.018C116.345 250.529 118.182 253.754 120.92 258.472C122.581 253.635 124.297 249.156 126.178 244.749C126.289 244.499 126.481 244.303 126.717 244.198C126.953 244.093 127.217 244.087 127.457 244.18C127.697 244.274 127.897 244.46 128.018 244.704C128.14 244.948 128.173 245.232 128.113 245.501C127.267 249.084 126.574 252.667 126.046 256.143L126.354 256.334C129.521 253.65 132.77 251.083 136.099 248.63C136.205 248.539 136.328 248.472 136.459 248.432C136.589 248.393 136.726 248.382 136.861 248.399C136.996 248.417 137.126 248.463 137.244 248.536C137.363 248.608 137.467 248.705 137.55 248.821C137.634 248.937 137.696 249.07 137.733 249.212C137.769 249.354 137.779 249.503 137.763 249.649C137.747 249.796 137.704 249.937 137.637 250.066C137.571 250.194 137.481 250.307 137.374 250.398C133.906 253.814 130.606 257.397 127.475 261.147C131.699 260.351 135.937 259.59 140.19 258.866C140.447 258.818 140.712 258.878 140.93 259.034C141.148 259.189 141.304 259.428 141.367 259.703C141.429 259.978 141.394 260.269 141.267 260.517C141.141 260.764 140.933 260.951 140.685 261.04C136.014 262.799 131.354 264.623 126.706 266.51L136.934 272.481C137.159 272.61 137.333 272.824 137.421 273.083C137.51 273.341 137.508 273.626 137.415 273.883C137.323 274.14 137.147 274.351 136.92 274.476C136.693 274.601 136.432 274.631 136.186 274.56L125.188 271.526C126.805 274.595 128.025 276.888 129.29 279.217C129.412 279.451 129.453 279.724 129.405 279.988C129.358 280.251 129.225 280.487 129.031 280.653C128.836 280.819 128.594 280.904 128.347 280.893C128.1 280.882 127.865 280.774 127.684 280.591L121.767 274.273C121.657 276.172 121.58 277.796 121.525 279.313C121.521 279.595 121.419 279.865 121.24 280.069C121.06 280.273 120.817 280.396 120.558 280.414C120.298 280.433 120.042 280.344 119.841 280.166C119.639 279.989 119.506 279.735 119.468 279.456C119.193 277.653 118.918 275.718 118.61 273.413C111.373 292.319 109.02 311.632 109.262 331.936L104.862 330.109C105.552 310.329 109.703 290.874 117.093 272.78C115.322 274.142 113.793 275.288 112.495 276.363C112.289 276.541 112.027 276.627 111.764 276.602C111.501 276.578 111.257 276.445 111.081 276.231C110.906 276.018 110.812 275.739 110.819 275.453C110.826 275.166 110.934 274.894 111.12 274.691C112.055 273.616 113.067 272.469 114.266 271.108L105.951 271.371C105.696 271.382 105.446 271.29 105.249 271.112C105.053 270.935 104.924 270.685 104.887 270.411C104.85 270.137 104.908 269.857 105.05 269.626C105.191 269.395 105.406 269.23 105.654 269.161C107.997 268.612 110.482 267.895 113.815 266.963Z" fill="#F5F5F5"/>
<path d="M86.6592 391.809H119.457C120.562 391.811 121.627 391.355 122.432 390.533C123.238 389.712 123.724 388.587 123.791 387.389L127.267 325.952C127.421 323.241 78.6961 323.241 78.8721 325.952L82.3477 387.389C82.4147 388.583 82.8978 389.704 83.6986 390.525C84.4994 391.346 85.558 391.805 86.6592 391.809Z" fill="#F0F0F0"/>
<path d="M84.6904 249.86C84.2639 249.478 83.9327 248.986 83.727 248.429C83.5214 247.872 83.448 247.268 83.5135 246.671L84.2504 239.864L82.5676 243.029C82.3348 243.473 82.0169 243.859 81.6355 244.159C81.2541 244.459 80.8179 244.667 80.3564 244.769C79.8948 244.87 79.4185 244.864 78.9594 244.749C78.5004 244.634 78.0693 244.414 77.6952 244.104L74.3955 241.404L77.3982 246.671C77.8194 247.401 77.9845 248.271 77.8633 249.122C77.7421 249.973 77.3427 250.748 76.7383 251.306L72.8557 254.889L76.6613 253.945C77.4679 253.74 78.3162 253.871 79.0376 254.314C79.7589 254.756 80.3005 255.478 80.5548 256.334L81.8637 260.681L82.6996 256.059C82.7903 255.57 82.9741 255.106 83.2394 254.698C83.5047 254.29 83.8455 253.947 84.2401 253.691C84.6347 253.434 85.0742 253.27 85.5306 253.209C85.9869 253.148 86.45 253.191 86.8901 253.336L89.4528 254.148L84.6904 249.86Z" fill="#E6E6E6"/>
<path d="M106.545 238.132C106.858 237.854 107.101 237.495 107.251 237.088C107.401 236.68 107.453 236.238 107.403 235.803L106.864 230.823L108.096 233.14C108.266 233.464 108.497 233.745 108.775 233.964C109.053 234.183 109.371 234.334 109.707 234.409C110.044 234.484 110.391 234.479 110.726 234.396C111.061 234.313 111.375 234.154 111.648 233.928L114.057 231.957L111.857 235.803C111.553 236.336 111.435 236.97 111.523 237.59C111.612 238.21 111.902 238.775 112.341 239.183L115.179 241.834L112.396 241.142C111.808 240.996 111.191 241.094 110.666 241.417C110.141 241.739 109.746 242.263 109.559 242.885L108.602 246.062L107.986 242.682C107.92 242.324 107.786 241.985 107.593 241.686C107.4 241.387 107.152 241.134 106.865 240.944C106.578 240.755 106.257 240.632 105.924 240.584C105.59 240.535 105.251 240.563 104.928 240.664L103.058 241.261L106.545 238.132Z" fill="#F5F5F5"/>
<path d="M119.513 266.641C119.735 266.437 119.907 266.176 120.015 265.883C120.122 265.589 120.161 265.271 120.129 264.957L119.744 261.374L120.623 263.034C120.747 263.265 120.914 263.466 121.114 263.622C121.314 263.778 121.542 263.886 121.783 263.939C122.024 263.992 122.273 263.989 122.513 263.93C122.753 263.87 122.979 263.756 123.175 263.595L124.902 262.174L123.329 264.933C123.12 265.312 123.039 265.758 123.101 266.194C123.164 266.631 123.365 267.03 123.67 267.322L125.705 269.221L123.714 268.719C123.298 268.612 122.859 268.674 122.482 268.894C122.105 269.114 121.816 269.477 121.668 269.913L120.986 272.195L120.546 269.806C120.5 269.548 120.404 269.304 120.265 269.088C120.127 268.873 119.948 268.691 119.741 268.555C119.534 268.419 119.303 268.332 119.063 268.298C118.823 268.265 118.579 268.286 118.347 268.361L117.005 268.791L119.513 266.641Z" fill="#E6E6E6"/>
<path d="M423.056 97.3184H394.272C393.471 97.3184 392.821 98.0242 392.821 98.8949V104.974C392.821 105.845 393.471 106.551 394.272 106.551H423.056C423.858 106.551 424.508 105.845 424.508 104.974V98.8949C424.508 98.0242 423.858 97.3184 423.056 97.3184Z" fill="#F5F5F5"/>
<path d="M413.377 108.76H384.593C383.792 108.76 383.142 109.466 383.142 110.337V116.416C383.142 117.287 383.792 117.993 384.593 117.993H413.377C414.179 117.993 414.829 117.287 414.829 116.416V110.337C414.829 109.466 414.179 108.76 413.377 108.76Z" fill="#F5F5F5"/>
<path d="M446.539 108.76H417.755C416.953 108.76 416.303 109.466 416.303 110.337V116.416C416.303 117.287 416.953 117.993 417.755 117.993H446.539C447.34 117.993 447.99 117.287 447.99 116.416V110.337C447.99 109.466 447.34 108.76 446.539 108.76Z" fill="#F0F0F0"/>
<path d="M461.926 23.8302H431.217C430.415 23.8302 429.765 24.5361 429.765 25.4068V32.0473C429.765 32.918 430.415 33.6239 431.217 33.6239H461.926C462.728 33.6239 463.378 32.918 463.378 32.0473V25.4068C463.378 24.5361 462.728 23.8302 461.926 23.8302Z" fill="#F5F5F5"/>
<path d="M461.926 48.1232H431.217C430.415 48.1232 429.765 48.8291 429.765 49.6998V56.3403C429.765 57.211 430.415 57.9169 431.217 57.9169H461.926C462.728 57.9169 463.378 57.211 463.378 56.3403V49.6998C463.378 48.8291 462.728 48.1232 461.926 48.1232Z" fill="#F5F5F5"/>
<path d="M451.664 35.9648H420.955C420.153 35.9648 419.503 36.6706 419.503 37.5413V44.1819C419.503 45.0526 420.153 45.7584 420.955 45.7584H451.664C452.466 45.7584 453.116 45.0526 453.116 44.1819V37.5413C453.116 36.6706 452.466 35.9648 451.664 35.9648Z" fill="#F5F5F5"/>
<path d="M486.838 35.9648H456.129C455.327 35.9648 454.677 36.6706 454.677 37.5413V44.1819C454.677 45.0526 455.327 45.7584 456.129 45.7584H486.838C487.64 45.7584 488.29 45.0526 488.29 44.1819V37.5413C488.29 36.6706 487.64 35.9648 486.838 35.9648Z" fill="#F0F0F0"/>
<path d="M240.796 321.306H452.027V314.713H240.796V321.306Z" fill="#F5F5F5"/>
<path d="M450.454 321.306H497.771V314.713H450.454V321.306Z" fill="#EBEBEB"/>
<path d="M262.749 337.334V321.306H252.905L262.749 337.334Z" fill="#E0E0E0"/>
<path d="M257.833 337.334L247.989 321.306H252.905L262.749 337.334H257.833Z" fill="#FAFAFA"/>
<path d="M490.06 337.334V321.306H480.217L490.06 337.334Z" fill="#E0E0E0"/>
<path d="M485.133 337.334L475.3 321.306H480.217L490.061 337.334H485.133Z" fill="#FAFAFA"/>
<path d="M463.96 315.609H469.526C470.119 315.61 470.706 315.48 471.251 315.228C471.797 314.976 472.29 314.607 472.701 314.143C473.112 313.679 473.432 313.13 473.642 312.528C473.853 311.926 473.949 311.284 473.925 310.641L473.221 287.876H460.243L459.539 310.641C459.515 311.286 459.612 311.93 459.824 312.533C460.036 313.137 460.358 313.687 460.771 314.152C461.184 314.616 461.68 314.985 462.228 315.235C462.776 315.486 463.366 315.613 463.96 315.609Z" fill="#F0F0F0"/>
<path d="M440.36 301.192C445.179 295.959 445.179 287.474 440.36 282.241C435.541 277.007 427.727 277.007 422.908 282.241C418.088 287.474 418.088 295.959 422.908 301.192C427.727 306.425 435.541 306.425 440.36 301.192Z" fill="#F0F0F0"/>
<path d="M430.777 315.406H432.493V306.532H431.635C429.812 306.588 427.997 306.247 426.298 305.528C424.599 304.81 423.05 303.728 421.742 302.348C420.434 300.968 419.395 299.317 418.685 297.493C417.975 295.669 417.609 293.709 417.609 291.728C417.609 289.748 417.975 287.788 418.685 285.964C419.395 284.14 420.434 282.489 421.742 281.108C423.05 279.728 424.599 278.647 426.298 277.928C427.997 277.209 429.812 276.868 431.635 276.924V275.049C427.769 275.267 424.12 277.058 421.416 280.066C418.711 283.074 417.149 287.078 417.041 291.28C416.933 295.483 418.286 299.575 420.832 302.742C423.377 305.91 426.928 307.919 430.777 308.371V315.406Z" fill="#EBEBEB"/>
<path d="M424.387 315.609H439.059C439.059 314.659 438.712 313.748 438.093 313.076C437.474 312.404 436.635 312.026 435.76 312.026H427.665C426.79 312.026 425.95 312.404 425.331 313.076C424.713 313.748 424.365 314.659 424.365 315.609H424.387Z" fill="#EBEBEB"/>
<path d="M464.796 315.609L453.204 303.021L441.6 315.609H464.796Z" fill="#F5F5F5"/>
<path d="M453.204 303.021L464.796 315.609H453.204V303.021Z" fill="#E6E6E6"/>
<path d="M372.374 299.139C372.429 300.334 372.462 301.289 372.462 301.922C372.462 304.528 371.939 307.103 370.928 309.467C369.917 311.831 368.444 313.927 366.61 315.609H346.23C344.403 313.93 342.934 311.839 341.925 309.482C340.917 307.125 340.393 304.557 340.389 301.958C340.389 301.325 340.389 300.369 340.477 299.175L372.374 299.139Z" fill="#F5F5F5"/>
<path d="M369.558 308.945C369.558 310.214 369.812 311.468 370.304 312.619C370.796 313.77 371.514 314.79 372.407 315.609H382.306C383.443 314.557 384.292 313.185 384.758 311.644C384.954 311.683 385.153 311.703 385.352 311.704C387.343 311.704 389.565 309.984 389.565 307.691C389.565 305.398 388.289 303.678 386.386 303.678C385.946 303.682 385.508 303.759 385.088 303.905V303.749C385.083 303.194 384.875 302.664 384.51 302.274C384.145 301.885 383.653 301.668 383.142 301.671H371.538C371.282 301.665 371.027 301.714 370.789 301.815C370.55 301.916 370.332 302.068 370.148 302.261C369.964 302.455 369.817 302.686 369.716 302.941C369.615 303.197 369.561 303.471 369.558 303.749C369.558 306.15 369.558 308.109 369.558 308.945ZM385.066 310.342C385.145 309.881 385.186 309.414 385.187 308.945C385.187 308.3 385.187 306.998 385.187 305.362C385.587 305.159 386.022 305.049 386.463 305.039C388.267 305.039 388.41 307.082 388.41 307.715C388.41 309.196 386.782 310.39 385.429 310.39L385.066 310.342Z" fill="#EBEBEB"/>
<path d="M277.653 315.609L279.269 295.437H255.721L254.093 315.609H277.653Z" fill="#F0F0F0"/>
<path d="M277.653 315.609L279.269 295.437H280.545L278.917 315.609H277.653Z" fill="#E0E0E0"/>
<path d="M275.409 313.555L276.707 297.503H257.954L256.656 313.555H275.409Z" fill="#FAFAFA"/>
<path d="M273.979 312.229L275.057 298.817H259.395L258.306 312.229H273.979Z" fill="#EBEBEB"/>
<path d="M304.203 315.609H280.545L283.163 283.027H306.832L304.203 315.609Z" fill="#F0F0F0"/>
<path d="M304.204 315.609H305.336L307.965 283.027H306.832L304.204 315.609Z" fill="#E0E0E0"/>
<path d="M302.059 312.289H283.218L285.308 286.348H304.149L302.059 312.289Z" fill="#E0E0E0"/>
<path d="M300.684 310.151H284.945L286.694 288.486H302.433L300.684 310.151Z" fill="#FAFAFA"/>
<path d="M289.319 300.237L290.867 301.918C292.233 303.401 294.447 303.401 295.813 301.918L297.361 300.237C298.727 298.754 298.727 296.349 297.361 294.866L295.813 293.185C294.447 291.702 292.233 291.702 290.867 293.185L289.319 294.866C287.953 296.349 287.953 298.754 289.319 300.237Z" fill="#EBEBEB"/>
<path d="M288.56 306.472L289.322 307.3C290.688 308.783 292.902 308.783 294.268 307.3L295.03 306.472C296.396 304.989 296.396 302.584 295.03 301.101L294.268 300.273C292.902 298.79 290.688 298.79 289.322 300.273L288.56 301.101C287.194 302.584 287.194 304.989 288.56 306.472Z" fill="#E6E6E6"/>
<path d="M76.3202 83.0818H109.932C110.734 83.0818 111.384 82.3759 111.384 81.5052V74.0167C111.384 73.146 110.734 72.4402 109.932 72.4402H76.3202C75.5184 72.4402 74.8684 73.146 74.8684 74.0167V81.5052C74.8684 82.3759 75.5184 83.0818 76.3202 83.0818Z" fill="#F5F5F5"/>
<path d="M93.3683 69.8962H126.981C127.782 69.8962 128.432 69.1903 128.432 68.3196V60.8311C128.432 59.9604 127.782 59.2546 126.981 59.2546L93.3683 59.2546C92.5665 59.2546 91.9165 59.9604 91.9165 60.8311V68.3196C91.9165 69.1903 92.5665 69.8962 93.3683 69.8962Z" fill="#F5F5F5"/>
<path d="M55.1589 69.8962H88.7711C89.5729 69.8962 90.2229 69.1903 90.2229 68.3196V60.8311C90.2229 59.9604 89.5729 59.2546 88.7711 59.2546L55.1589 59.2546C54.357 59.2546 53.707 59.9604 53.707 60.8311V68.3196C53.707 69.1903 54.357 69.8962 55.1589 69.8962Z" fill="#F0F0F0"/>
<path d="M274.969 441.35C392.746 441.35 488.224 435.297 488.224 427.83C488.224 420.363 392.746 414.31 274.969 414.31C157.192 414.31 61.7141 420.363 61.7141 427.83C61.7141 435.297 157.192 441.35 274.969 441.35Z" fill="#F5F5F5"/>
<path d="M431.965 32.6206H367.622C356.306 32.6206 347.132 42.5826 347.132 54.8713V244.51C347.132 256.798 356.306 266.76 367.622 266.76H431.965C443.282 266.76 452.456 256.798 452.456 244.51V54.8713C452.456 42.5826 443.282 32.6206 431.965 32.6206Z" fill="#006CFF"/>
<path opacity="0.3" d="M432.196 32.6206H367.391C356.202 32.6206 347.132 42.4703 347.132 54.6205V244.761C347.132 256.911 356.202 266.76 367.391 266.76H432.196C443.385 266.76 452.456 256.911 452.456 244.761V54.6205C452.456 42.4703 443.385 32.6206 432.196 32.6206Z" fill="black"/>
<path d="M452.456 44.1102V90.5584H347.132V44.1102C347.132 41.063 348.246 38.1406 350.231 35.9858C352.215 33.8311 354.906 32.6206 357.712 32.6206H441.875C444.681 32.6206 447.372 33.8311 449.357 35.9858C451.341 38.1406 452.456 41.063 452.456 44.1102Z" fill="#006CFF"/>
<path d="M421.78 229.927H377.807C371.83 229.927 366.984 235.188 366.984 241.679V242.575C366.984 249.066 371.83 254.327 377.807 254.327H421.78C427.757 254.327 432.603 249.066 432.603 242.575V241.679C432.603 235.188 427.757 229.927 421.78 229.927Z" fill="#006CFF"/>
<path d="M382.757 243.996C382.757 246.218 381.118 247.699 378.555 247.926L378.214 249.765H376.674L377.015 247.926C375.756 247.842 374.539 247.401 373.485 246.648L374.507 244.581C375.363 245.247 376.364 245.658 377.411 245.776L377.939 242.957C376.509 242.491 374.936 241.87 374.936 239.852C374.936 237.63 376.619 236.125 379.226 235.934L379.567 234.095H381.107L380.766 235.946C381.762 236.031 382.728 236.358 383.592 236.902L382.658 238.968C381.97 238.483 381.186 238.184 380.37 238.096L379.831 241.034C381.25 241.476 382.757 242.073 382.757 243.996ZM378.357 240.556L378.797 238.168C377.928 238.347 377.433 238.86 377.422 239.505C377.411 240.15 377.829 240.306 378.357 240.556ZM380.26 244.426C380.26 243.948 379.908 243.638 379.369 243.423L378.951 245.716C379.809 245.525 380.282 245.059 380.282 244.426H380.26Z" fill="white"/>
<path d="M425.839 180.003H371.472V182.392H425.839V180.003Z" fill="#006CFF"/>
<path d="M425.839 140.781H371.472V143.169H425.839V140.781Z" fill="#006CFF"/>
<path d="M425.839 102.98H371.472V105.368H425.839V102.98Z" fill="#006CFF"/>
<path d="M404.909 130.236C408.603 126.224 408.603 119.721 404.909 115.71C401.215 111.698 395.226 111.698 391.532 115.71C387.838 119.721 387.838 126.224 391.532 130.236C395.226 134.247 401.215 134.247 404.909 130.236Z" fill="#006CFF"/>
<path d="M404.985 120.751L399.552 126.664L397.011 129.422L394.47 126.664L397.011 123.905L402.444 117.993L404.985 120.751Z" fill="white"/>
<path d="M399.552 126.663L397.011 129.422L391.622 123.57L394.162 120.811L397.011 123.905L399.552 126.663Z" fill="white"/>
<path d="M398.221 171.141C403.445 171.141 407.68 166.542 407.68 160.87C407.68 155.197 403.445 150.598 398.221 150.598C392.997 150.598 388.762 155.197 388.762 160.87C388.762 166.542 392.997 171.141 398.221 171.141Z" fill="#006CFF"/>
<path d="M404.985 158.648L399.552 164.56L397.011 167.319L394.47 164.56L397.011 161.801L402.444 155.889L404.985 158.648Z" fill="white"/>
<path d="M399.552 164.56L397.011 167.319L391.622 161.467L394.162 158.708L397.011 161.801L399.552 164.56Z" fill="white"/>
<path d="M398.221 211.785C403.445 211.785 407.68 207.186 407.68 201.513C407.68 195.84 403.445 191.242 398.221 191.242C392.997 191.242 388.762 195.84 388.762 201.513C388.762 207.186 392.997 211.785 398.221 211.785Z" fill="#006CFF"/>
<path d="M404.985 199.292L399.552 205.204L397.011 207.963L394.47 205.204L397.011 202.445L402.444 196.533L404.985 199.292Z" fill="white"/>
<path d="M399.552 205.204L397.011 207.963L391.622 202.11L394.162 199.351L397.011 202.445L399.552 205.204Z" fill="white"/>
<path d="M385.825 74.1003L387.596 77.1698L390.83 78.0416L388.685 80.8245L388.916 84.4433L385.825 83.0818L382.724 84.4433L382.955 80.8245L380.81 78.0416L384.054 77.1698L385.825 74.1003Z" fill="white"/>
<path d="M398.221 74.1003L399.992 77.1698L403.236 78.0416L401.091 80.8245L401.322 84.4433L398.221 83.0818L395.13 84.4433L395.361 80.8245L393.216 78.0416L396.45 77.1698L398.221 74.1003Z" fill="white"/>
<path d="M410.627 74.1003L412.387 77.1698L415.632 78.0416L413.487 80.8245L413.718 84.4433L410.627 83.0818L407.526 84.4433L407.757 80.8245L405.612 78.0416L408.857 77.1698L410.627 74.1003Z" fill="white"/>
<path d="M308.218 19.2917H243.875C232.559 19.2917 223.385 29.2537 223.385 41.5424V231.181C223.385 243.47 232.559 253.431 243.875 253.431H308.218C319.535 253.431 328.709 243.47 328.709 231.181V41.5424C328.709 29.2537 319.535 19.2917 308.218 19.2917Z" fill="#006CFF"/>
<path opacity="0.5" d="M307.536 19.2917H244.557C238.942 19.2917 233.557 21.714 229.586 26.0257C225.615 30.3373 223.385 36.1852 223.385 42.2829V230.44C223.385 233.461 223.933 236.451 224.997 239.241C226.062 242.032 227.623 244.567 229.59 246.702C231.557 248.837 233.893 250.53 236.463 251.685C239.033 252.84 241.787 253.433 244.568 253.431H307.536C310.318 253.433 313.072 252.84 315.642 251.685C318.212 250.53 320.547 248.837 322.515 246.702C324.482 244.567 326.042 242.032 327.107 239.241C328.172 236.451 328.72 233.461 328.72 230.44V42.2829C328.72 39.2626 328.172 36.272 327.107 33.4818C326.042 30.6916 324.482 28.1565 322.515 26.0214C320.547 23.8864 318.212 22.1931 315.642 21.0384C313.072 19.8837 310.318 19.2901 307.536 19.2917Z" fill="white"/>
<path d="M328.72 30.841V77.2773H223.385V30.841C223.385 27.7938 224.5 24.8714 226.484 22.7167C228.468 20.5619 231.159 19.3514 233.966 19.3514H318.128C320.935 19.3514 323.628 20.5616 325.614 22.7159C327.6 24.8703 328.717 27.7927 328.72 30.841Z" fill="#006CFF"/>
<path d="M298.924 216.598H254.951C248.974 216.598 244.128 221.86 244.128 228.35V229.246C244.128 235.737 248.974 240.998 254.951 240.998H298.924C304.901 240.998 309.747 235.737 309.747 229.246V228.35C309.747 221.86 304.901 216.598 298.924 216.598Z" fill="#006CFF"/>
<path d="M302.994 166.674H248.627V169.063H302.994V166.674Z" fill="#006CFF"/>
<path d="M302.994 127.452H248.627V129.84H302.994V127.452Z" fill="#006CFF"/>
<path d="M302.994 89.6507H248.627V92.0394H302.994V89.6507Z" fill="#006CFF"/>
<path d="M284.183 149.9C285.383 144.379 282.234 138.847 277.15 137.543C272.066 136.24 266.971 139.66 265.771 145.181C264.571 150.702 267.72 156.234 272.804 157.537C277.889 158.84 282.983 155.421 284.183 149.9Z" fill="#006CFF"/>
<path d="M281.755 145.331L276.311 151.231L273.77 153.99L271.229 151.231L273.77 148.484L279.214 142.572L281.755 145.331Z" fill="white"/>
<path d="M276.311 151.231L273.77 153.99L268.392 148.138L270.921 145.391L273.77 148.484L276.311 151.231Z" fill="white"/>
<path d="M279.426 197.675C284.253 195.504 286.544 189.495 284.545 184.254C282.546 179.013 277.013 176.525 272.187 178.695C267.36 180.866 265.068 186.875 267.068 192.116C269.067 197.357 274.6 199.845 279.426 197.675Z" fill="#006CFF"/>
<path d="M282.58 185.963L277.136 191.875L274.595 194.634L272.054 191.875L274.595 189.116L280.039 183.204L282.58 185.963Z" fill="white"/>
<path d="M277.136 191.875L274.595 194.634L269.217 188.782L271.746 186.023L274.595 189.116L277.136 191.875Z" fill="white"/>
<path d="M274.98 119.915C280.149 119.915 284.34 115.365 284.34 109.752C284.34 104.138 280.149 99.5876 274.98 99.5876C269.81 99.5876 265.62 104.138 265.62 109.752C265.62 115.365 269.81 119.915 274.98 119.915Z" fill="#002D6B"/>
<path opacity="0.5" d="M274.98 119.915C280.149 119.915 284.34 115.365 284.34 109.752C284.34 104.138 280.149 99.5876 274.98 99.5876C269.81 99.5876 265.62 104.138 265.62 109.752C265.62 115.365 269.81 119.915 274.98 119.915Z" fill="white"/>
<path d="M277.757 104.004L269.692 112.762L272.204 115.49L280.269 106.732L277.757 104.004Z" fill="white"/>
<path d="M269.698 106.736L277.763 115.493L280.275 112.766L272.21 104.008L269.698 106.736Z" fill="white"/>
<path d="M318.194 32.1429V59.3979L323.495 53.6531V32.1429H318.194Z" fill="#006CFF"/>
<path d="M328.786 32.1429V59.3979L323.495 53.6531V32.1429H328.786Z" fill="#006CFF"/>
<g opacity="0.3">
<path d="M328.797 32.1309V59.4098L323.495 53.6411L318.194 59.4098V32.1309H328.797Z" fill="black"/>
</g>
<path d="M326.08 4.88789C326.442 5.63581 327.058 6.20061 327.798 6.4617C328.538 6.72279 329.342 6.65947 330.04 6.28527C330.53 6.0254 331.076 5.91549 331.62 5.96735C332.163 6.01922 332.683 6.23089 333.124 6.57964C333.565 6.92838 333.911 7.40102 334.123 7.94677C334.335 8.49252 334.407 9.09076 334.329 9.67722C334.226 10.5135 334.423 11.3608 334.88 12.0435C335.337 12.7261 336.018 13.1918 336.782 13.3439C337.32 13.4435 337.822 13.7009 338.235 14.0882C338.647 14.4755 338.955 14.9779 339.124 15.5412C339.292 16.1044 339.316 16.7071 339.192 17.2839C339.068 17.8608 338.802 18.3899 338.421 18.814C337.881 19.4217 337.58 20.233 337.58 21.0773C337.58 21.9215 337.881 22.7328 338.421 23.3406C338.801 23.766 339.067 24.2959 339.19 24.8733C339.314 25.4506 339.29 26.0536 339.121 26.6174C338.953 27.1811 338.646 27.6843 338.234 28.0729C337.822 28.4614 337.32 28.7206 336.782 28.8226C336.022 28.98 335.348 29.4484 334.897 30.1309C334.447 30.8133 334.255 31.6577 334.362 32.4892C334.437 33.0748 334.364 33.6714 334.151 34.2154C333.938 34.7593 333.592 35.23 333.152 35.5772C332.711 35.9244 332.192 36.135 331.649 36.1864C331.107 36.2379 330.562 36.1282 330.073 35.8693C329.374 35.5012 328.572 35.4412 327.834 35.7017C327.095 35.9623 326.479 36.5231 326.113 37.2666C325.857 37.7888 325.475 38.2255 325.008 38.53C324.542 38.8346 324.007 38.9955 323.462 38.9955C322.918 38.9955 322.383 38.8346 321.916 38.53C321.449 38.2255 321.068 37.7888 320.812 37.2666C320.441 36.503 319.809 35.9282 319.052 35.6668C318.294 35.4053 317.473 35.478 316.764 35.8693C316.275 36.1282 315.73 36.2379 315.187 36.1864C314.645 36.135 314.126 35.9244 313.685 35.5772C313.245 35.23 312.899 34.7593 312.686 34.2154C312.473 33.6714 312.4 33.0748 312.475 32.4892C312.583 31.652 312.388 30.8017 311.931 30.1176C311.473 29.4335 310.789 28.9692 310.022 28.8226C309.484 28.7206 308.982 28.4614 308.57 28.0729C308.158 27.6843 307.851 27.1811 307.683 26.6174C307.514 26.0536 307.49 25.4506 307.614 24.8733C307.737 24.2959 308.003 23.766 308.383 23.3406C308.923 22.7328 309.224 21.9215 309.224 21.0773C309.224 20.233 308.923 19.4217 308.383 18.814C308.006 18.3882 307.743 17.8592 307.621 17.2835C307.499 16.7078 307.524 16.1071 307.692 15.5454C307.861 14.9837 308.166 14.4822 308.576 14.0944C308.987 13.7067 309.486 13.4473 310.022 13.3439C310.788 13.1945 311.47 12.7295 311.927 12.0462C312.385 11.3628 312.581 10.514 312.475 9.67722C312.397 9.09076 312.469 8.49252 312.681 7.94677C312.893 7.40102 313.239 6.92838 313.68 6.57964C314.121 6.23089 314.641 6.01922 315.184 5.96735C315.728 5.91549 316.274 6.0254 316.764 6.28527C317.464 6.65693 318.269 6.71895 319.01 6.45823C319.75 6.19751 320.369 5.63445 320.735 4.88789C320.987 4.35362 321.37 3.90522 321.841 3.59211C322.313 3.27899 322.855 3.11331 323.407 3.11331C323.96 3.11331 324.502 3.27899 324.974 3.59211C325.445 3.90522 325.828 4.35362 326.08 4.88789Z" fill="#006CFF"/>
<path d="M326.08 4.88789C326.442 5.63581 327.058 6.20061 327.798 6.4617C328.538 6.72279 329.342 6.65947 330.04 6.28527C330.53 6.0254 331.076 5.91549 331.62 5.96735C332.163 6.01922 332.683 6.23089 333.124 6.57964C333.565 6.92838 333.911 7.40102 334.123 7.94677C334.335 8.49252 334.407 9.09076 334.329 9.67722C334.226 10.5135 334.423 11.3608 334.88 12.0435C335.337 12.7261 336.018 13.1918 336.782 13.3439C337.32 13.4435 337.822 13.7009 338.235 14.0882C338.647 14.4755 338.955 14.9779 339.124 15.5412C339.292 16.1044 339.316 16.7071 339.192 17.2839C339.068 17.8608 338.802 18.3899 338.421 18.814C337.881 19.4217 337.58 20.233 337.58 21.0773C337.58 21.9215 337.881 22.7328 338.421 23.3406C338.801 23.766 339.067 24.2959 339.19 24.8733C339.314 25.4506 339.29 26.0536 339.121 26.6174C338.953 27.1811 338.646 27.6843 338.234 28.0729C337.822 28.4614 337.32 28.7206 336.782 28.8226C336.022 28.98 335.348 29.4484 334.897 30.1309C334.447 30.8133 334.255 31.6577 334.362 32.4892C334.437 33.0748 334.364 33.6714 334.151 34.2154C333.938 34.7593 333.592 35.23 333.152 35.5772C332.711 35.9244 332.192 36.135 331.649 36.1864C331.107 36.2379 330.562 36.1282 330.073 35.8693C329.374 35.5012 328.572 35.4412 327.834 35.7017C327.095 35.9623 326.479 36.5231 326.113 37.2666C325.857 37.7888 325.475 38.2255 325.008 38.53C324.542 38.8346 324.007 38.9955 323.462 38.9955C322.918 38.9955 322.383 38.8346 321.916 38.53C321.449 38.2255 321.068 37.7888 320.812 37.2666C320.441 36.503 319.809 35.9282 319.052 35.6668C318.294 35.4053 317.473 35.478 316.764 35.8693C316.275 36.1282 315.73 36.2379 315.187 36.1864C314.645 36.135 314.126 35.9244 313.685 35.5772C313.245 35.23 312.899 34.7593 312.686 34.2154C312.473 33.6714 312.4 33.0748 312.475 32.4892C312.583 31.652 312.388 30.8017 311.931 30.1176C311.473 29.4335 310.789 28.9692 310.022 28.8226C309.484 28.7206 308.982 28.4614 308.57 28.0729C308.158 27.6843 307.851 27.1811 307.683 26.6174C307.514 26.0536 307.49 25.4506 307.614 24.8733C307.737 24.2959 308.003 23.766 308.383 23.3406C308.923 22.7328 309.224 21.9215 309.224 21.0773C309.224 20.233 308.923 19.4217 308.383 18.814C308.006 18.3882 307.743 17.8592 307.621 17.2835C307.499 16.7078 307.524 16.1071 307.692 15.5454C307.861 14.9837 308.166 14.4822 308.576 14.0944C308.987 13.7067 309.486 13.4473 310.022 13.3439C310.788 13.1945 311.47 12.7295 311.927 12.0462C312.385 11.3628 312.581 10.514 312.475 9.67722C312.397 9.09076 312.469 8.49252 312.681 7.94677C312.893 7.40102 313.239 6.92838 313.68 6.57964C314.121 6.23089 314.641 6.01922 315.184 5.96735C315.728 5.91549 316.274 6.0254 316.764 6.28527C317.464 6.65693 318.269 6.71895 319.01 6.45823C319.75 6.19751 320.369 5.63445 320.735 4.88789C320.987 4.35362 321.37 3.90522 321.841 3.59211C322.313 3.27899 322.855 3.11331 323.407 3.11331C323.96 3.11331 324.502 3.27899 324.974 3.59211C325.445 3.90522 325.828 4.35362 326.08 4.88789Z" fill="#006CFF"/>
<g opacity="0.5">
<path d="M326.08 4.88789C326.442 5.63581 327.058 6.20061 327.798 6.4617C328.538 6.72279 329.342 6.65947 330.04 6.28527C330.53 6.0254 331.076 5.91549 331.62 5.96735C332.163 6.01922 332.683 6.23089 333.124 6.57964C333.565 6.92838 333.911 7.40102 334.123 7.94677C334.335 8.49252 334.407 9.09076 334.329 9.67722C334.226 10.5135 334.423 11.3608 334.88 12.0435C335.337 12.7261 336.018 13.1918 336.782 13.3439C337.32 13.4435 337.822 13.7009 338.235 14.0882C338.647 14.4755 338.955 14.9779 339.124 15.5412C339.292 16.1044 339.316 16.7071 339.192 17.2839C339.068 17.8608 338.802 18.3899 338.421 18.814C337.881 19.4217 337.58 20.233 337.58 21.0773C337.58 21.9215 337.881 22.7328 338.421 23.3406C338.801 23.766 339.067 24.2959 339.19 24.8733C339.314 25.4506 339.29 26.0536 339.121 26.6174C338.953 27.1811 338.646 27.6843 338.234 28.0729C337.822 28.4614 337.32 28.7206 336.782 28.8226C336.022 28.98 335.348 29.4484 334.897 30.1309C334.447 30.8133 334.255 31.6577 334.362 32.4892C334.437 33.0748 334.364 33.6714 334.151 34.2154C333.938 34.7593 333.592 35.23 333.152 35.5772C332.711 35.9244 332.192 36.135 331.649 36.1864C331.107 36.2379 330.562 36.1282 330.073 35.8693C329.374 35.5012 328.572 35.4412 327.834 35.7017C327.095 35.9623 326.479 36.5231 326.113 37.2666C325.857 37.7888 325.475 38.2255 325.008 38.53C324.542 38.8346 324.007 38.9955 323.462 38.9955C322.918 38.9955 322.383 38.8346 321.916 38.53C321.449 38.2255 321.068 37.7888 320.812 37.2666C320.441 36.503 319.809 35.9282 319.052 35.6668C318.294 35.4053 317.473 35.478 316.764 35.8693C316.275 36.1282 315.73 36.2379 315.187 36.1864C314.645 36.135 314.126 35.9244 313.685 35.5772C313.245 35.23 312.899 34.7593 312.686 34.2154C312.473 33.6714 312.4 33.0748 312.475 32.4892C312.583 31.652 312.388 30.8017 311.931 30.1176C311.473 29.4335 310.789 28.9692 310.022 28.8226C309.484 28.7206 308.982 28.4614 308.57 28.0729C308.158 27.6843 307.851 27.1811 307.683 26.6174C307.514 26.0536 307.49 25.4506 307.614 24.8733C307.737 24.2959 308.003 23.766 308.383 23.3406C308.923 22.7328 309.224 21.9215 309.224 21.0773C309.224 20.233 308.923 19.4217 308.383 18.814C308.006 18.3882 307.743 17.8592 307.621 17.2835C307.499 16.7078 307.524 16.1071 307.692 15.5454C307.861 14.9837 308.166 14.4822 308.576 14.0944C308.987 13.7067 309.486 13.4473 310.022 13.3439C310.788 13.1945 311.47 12.7295 311.927 12.0462C312.385 11.3628 312.581 10.514 312.475 9.67722C312.397 9.09076 312.469 8.49252 312.681 7.94677C312.893 7.40102 313.239 6.92838 313.68 6.57964C314.121 6.23089 314.641 6.01922 315.184 5.96735C315.728 5.91549 316.274 6.0254 316.764 6.28527C317.464 6.65693 318.269 6.71895 319.01 6.45823C319.75 6.19751 320.369 5.63445 320.735 4.88789C320.987 4.35362 321.37 3.90522 321.841 3.59211C322.313 3.27899 322.855 3.11331 323.407 3.11331C323.96 3.11331 324.502 3.27899 324.974 3.59211C325.445 3.90522 325.828 4.35362 326.08 4.88789Z" fill="white"/>
</g>
<path d="M318.667 17.7032H317.303C317 17.7043 316.708 17.8267 316.482 18.047C316.257 18.2674 316.115 18.5702 316.082 18.8976L315.752 25.7292C315.743 25.892 315.765 26.055 315.816 26.2083C315.867 26.3616 315.947 26.5019 316.05 26.6205C316.153 26.7391 316.277 26.8335 316.415 26.898C316.553 26.9624 316.702 26.9955 316.852 26.9952H318.216C318.529 26.9899 318.828 26.8565 319.055 26.6218C319.281 26.3872 319.417 26.0684 319.437 25.7292L319.767 18.8976C319.767 18.5808 319.651 18.277 319.445 18.053C319.238 17.829 318.959 17.7032 318.667 17.7032Z" fill="white"/>
<path d="M329.545 17.7032H326.344L327.235 15.422C327.336 15.1832 327.374 14.9186 327.345 14.6577L327.158 12.8661C327.123 12.5188 326.971 12.1976 326.732 11.9641C326.492 11.7305 326.182 11.601 325.86 11.6001H324.265C324.167 13.39 323.564 15.1036 322.539 16.5089L321.56 17.8466C321.309 18.1884 321.159 18.6049 321.131 19.0409L320.823 25.4187C320.812 25.6201 320.84 25.8217 320.904 26.0112C320.967 26.2006 321.066 26.3739 321.194 26.5204C321.322 26.6669 321.476 26.7835 321.646 26.8631C321.817 26.9427 322.001 26.9836 322.187 26.9833H327.763C328.01 26.9804 328.255 26.9216 328.48 26.8105C328.705 26.6995 328.907 26.5387 329.072 26.3384L329.589 25.7173C329.769 25.4681 329.897 25.1785 329.963 24.8693L331.063 19.7217C331.111 19.4855 331.112 19.2409 331.066 19.0041C331.021 18.7674 330.93 18.5438 330.799 18.3482C330.65 18.1424 330.459 17.9769 330.242 17.865C330.024 17.753 329.785 17.6977 329.545 17.7032Z" fill="white"/>
<path d="M274.98 59.3979L276.751 62.4793L279.995 63.3512L277.851 66.134L278.082 69.7409L274.98 68.3913L271.889 69.7409L272.12 66.134L269.976 63.3512L273.22 62.4793L274.98 59.3979Z" fill="white"/>
<path d="M260.253 230.703C260.253 232.925 258.614 234.406 256.051 234.644L255.71 236.472H254.17L254.511 234.644C253.252 234.551 252.036 234.107 250.981 233.355L252.004 231.288C252.86 231.953 253.86 232.365 254.907 232.483L255.435 229.664C254.005 229.198 252.433 228.577 252.433 226.559C252.433 224.337 254.115 222.844 256.722 222.641L257.063 220.802H258.603L258.262 222.653C259.258 222.738 260.224 223.065 261.089 223.609L260.154 225.675C259.462 225.192 258.674 224.897 257.855 224.815L257.327 227.741C258.735 228.183 260.253 228.78 260.253 230.703ZM255.853 227.263L256.293 224.875C255.424 225.054 254.929 225.579 254.918 226.212C254.907 226.845 255.314 227.013 255.864 227.263H255.853ZM257.756 231.133C257.756 230.655 257.404 230.357 256.865 230.142L256.447 232.423C257.294 232.244 257.767 231.766 257.767 231.133H257.756Z" fill="white"/>
<path d="M182.315 32.6206H117.973C106.656 32.6206 97.4819 42.5826 97.4819 54.8713V244.51C97.4819 256.798 106.656 266.76 117.973 266.76H182.315C193.632 266.76 202.806 256.798 202.806 244.51V54.8713C202.806 42.5826 193.632 32.6206 182.315 32.6206Z" fill="#002D6B"/>
<path opacity="0.7" d="M181.996 32.6206H118.292C106.799 32.6206 97.4819 42.7377 97.4819 55.2177V244.163C97.4819 256.643 106.799 266.76 118.292 266.76H181.996C193.489 266.76 202.806 256.643 202.806 244.163V55.2177C202.806 42.7377 193.489 32.6206 181.996 32.6206Z" fill="white"/>
<path d="M202.806 44.1102V90.5584H97.4819V44.1102C97.4819 41.063 98.5967 38.1406 100.581 35.9858C102.565 33.8311 105.257 32.6206 108.063 32.6206H192.225C195.031 32.6206 197.723 33.8311 199.707 35.9858C201.691 38.1406 202.806 41.063 202.806 44.1102Z" fill="#006CFF"/>
<path d="M202.806 44.1102V90.5584H97.4819V44.1102C97.4819 41.063 98.5967 38.1406 100.581 35.9858C102.565 33.8311 105.257 32.6206 108.063 32.6206H192.225C195.031 32.6206 197.723 33.8311 199.707 35.9858C201.691 38.1406 202.806 41.063 202.806 44.1102Z" fill="#006CFF"/>
<path d="M155.197 170.196C158.853 166.226 158.853 159.791 155.197 155.822C151.542 151.852 145.616 151.852 141.961 155.822C138.305 159.791 138.305 166.226 141.961 170.196C145.616 174.165 151.542 174.165 155.197 170.196Z" fill="#002D6B"/>
<path opacity="0.5" d="M155.197 170.196C158.853 166.226 158.853 159.791 155.197 155.822C151.542 151.852 145.616 151.852 141.961 155.822C138.305 159.791 138.305 166.226 141.961 170.196C145.616 174.165 151.542 174.165 155.197 170.196Z" fill="white"/>
<path d="M151.348 157.266L143.283 166.024L145.795 168.751L153.86 159.994L151.348 157.266Z" fill="white"/>
<path d="M143.284 160.004L151.349 168.762L153.861 166.034L145.796 157.277L143.284 160.004Z" fill="white"/>
<path d="M149.011 210.841C154.235 210.841 158.47 206.242 158.47 200.57C158.47 194.897 154.235 190.298 149.011 190.298C143.787 190.298 139.552 194.897 139.552 200.57C139.552 206.242 143.787 210.841 149.011 210.841Z" fill="#006CFF"/>
<path d="M155.786 198.348L150.342 204.26L147.801 207.019L145.26 204.26L147.801 201.501L153.246 195.589L155.786 198.348Z" fill="white"/>
<path d="M150.342 204.26L147.801 207.019L142.423 201.167L144.953 198.408L147.801 201.501L150.342 204.26Z" fill="white"/>
<path d="M172.131 229.927H128.157C122.18 229.927 117.335 235.188 117.335 241.679V242.575C117.335 249.066 122.18 254.327 128.157 254.327H172.131C178.108 254.327 182.953 249.066 182.953 242.575V241.679C182.953 235.188 178.108 229.927 172.131 229.927Z" fill="#006CFF"/>
<path d="M131.556 244.438C131.556 246.66 129.917 248.141 127.344 248.367L127.014 250.207H125.474L125.815 248.367C124.552 248.281 123.332 247.841 122.273 247.09L123.307 245.023C124.163 245.688 125.164 246.1 126.211 246.218L126.728 243.399C125.309 242.933 123.736 242.312 123.736 240.294C123.736 238.072 125.408 236.567 128.026 236.376L128.367 234.537H129.895L129.565 236.388C130.562 236.473 131.527 236.8 132.392 237.344L131.446 239.41C130.759 238.923 129.975 238.624 129.158 238.538L128.619 241.476C130.038 241.918 131.556 242.515 131.556 244.438ZM127.157 240.998L127.597 238.61C126.717 238.789 126.233 239.302 126.211 239.947C126.189 240.592 126.607 240.748 127.168 241.046L127.157 240.998ZM129.059 244.868C129.059 244.39 128.707 244.08 128.169 243.865L127.751 246.158C128.586 245.967 129.07 245.501 129.07 244.868H129.059Z" fill="white"/>
<path d="M176.2 180.003H121.833V182.392H176.2V180.003Z" fill="#006CFF"/>
<path d="M176.2 140.781H121.833V143.169H176.2V140.781Z" fill="#006CFF"/>
<path d="M176.2 102.98H121.833V105.368H176.2V102.98Z" fill="#006CFF"/>
<path d="M155.202 130.262C158.857 126.293 158.857 119.857 155.202 115.888C151.547 111.919 145.62 111.919 141.965 115.888C138.31 119.857 138.31 126.293 141.965 130.262C145.62 134.231 151.547 134.231 155.202 130.262Z" fill="#002D6B"/>
<path opacity="0.5" d="M155.202 130.262C158.857 126.293 158.857 119.857 155.202 115.888C151.547 111.919 145.62 111.919 141.965 115.888C138.31 119.857 138.31 126.293 141.965 130.262C145.62 134.231 151.547 134.231 155.202 130.262Z" fill="white"/>
<path d="M151.352 117.332L143.287 126.09L145.799 128.818L153.864 120.06L151.352 117.332Z" fill="white"/>
<path d="M143.288 120.06L151.354 128.818L153.866 126.09L145.801 117.332L143.288 120.06Z" fill="white"/>
<path d="M286.067 423.925L294.503 425.597L300.882 408.697L291.665 404.696L286.067 423.925Z" fill="#FFC2BC"/>
<path opacity="0.1" d="M289.091 413.199L291.5 405.341L295.746 406.463L300.882 408.697L298.132 416.054L289.091 413.199Z" fill="black"/>
<path d="M284.417 420.748C284.417 420.748 284.087 420.425 283.658 420.055C283.229 419.685 282.965 419.482 282.558 419.171C281.771 418.524 280.842 418.113 279.863 417.977C279.558 417.983 279.264 418.101 279.027 418.311C278.89 418.42 278.788 418.574 278.739 418.751C278.689 418.927 278.694 419.117 278.753 419.29C279.433 420.067 280.337 420.569 281.315 420.712L282.096 420.891C282.824 421.034 283.558 421.134 284.296 421.19C284.34 421.19 284.383 421.176 284.42 421.151C284.457 421.125 284.486 421.089 284.505 421.046C284.528 420.994 284.532 420.933 284.516 420.878C284.5 420.822 284.464 420.776 284.417 420.748ZM282.657 420.509C281.073 420.222 279.357 419.685 279.17 419.076C279.17 418.992 279.104 418.837 279.346 418.598C279.415 418.531 279.494 418.479 279.581 418.446C279.668 418.413 279.761 418.4 279.852 418.407C280.004 418.409 280.155 418.429 280.303 418.466C281.323 418.894 282.273 419.495 283.119 420.246C283.284 420.377 283.438 420.521 283.592 420.664C283.295 420.628 282.976 420.568 282.668 420.509H282.657Z" fill="#006CFF"/>
<path d="M283.988 416.985C283.714 416.614 283.322 416.367 282.888 416.293C282.261 416.185 281.997 416.448 281.898 416.699C281.656 417.236 282.03 418.239 282.58 419.171C282.794 419.529 283.029 419.873 283.284 420.198C283.541 420.531 283.829 420.836 284.142 421.106C284.174 421.12 284.209 421.12 284.241 421.106C284.277 421.118 284.315 421.118 284.351 421.106C284.386 421.093 284.417 421.071 284.442 421.042C284.467 421.013 284.485 420.977 284.494 420.939C284.543 420.587 284.572 420.232 284.582 419.876C284.68 418.868 284.472 417.852 283.988 416.985ZM284.087 420.413C283.977 420.294 283.856 420.174 283.746 420.031C282.877 418.992 282.063 417.391 282.272 416.842C282.272 416.842 282.36 416.627 282.778 416.699H282.899C283.173 416.77 283.416 416.938 283.592 417.177C284.01 418.018 284.197 418.971 284.131 419.923C284.12 420.115 284.109 420.258 284.087 420.413Z" fill="#006CFF"/>
<path d="M285.528 420.079L295.724 422.73C295.904 422.769 296.067 422.875 296.183 423.03C296.299 423.184 296.363 423.378 296.362 423.578L296.054 432.392C296.028 432.781 295.863 433.143 295.593 433.401C295.323 433.658 294.971 433.789 294.613 433.766C294.514 433.779 294.414 433.779 294.316 433.766C290.653 432.751 287.442 431.7 282.855 430.517C277.455 429.12 278.665 430.123 272.296 428.571C268.458 427.627 268.876 423.077 270.559 423.28C278.258 424.271 279.567 422.229 283.119 420.306C283.875 419.933 284.725 419.853 285.528 420.079Z" fill="#002D6B"/>
<path d="M346.78 425.585H354.853L357.24 411.061L347.363 409.055L346.78 425.585Z" fill="#FFC2BC"/>
<path opacity="0.1" d="M347.363 409.055L357.24 411.061L355.634 420.843L347.033 420.461L347.363 409.055Z" fill="black"/>
<path d="M358.978 418.168L344.481 417.272L344.041 411.061L360.264 412.268L358.978 418.168Z" fill="#006CFF"/>
<path opacity="0.5" d="M358.978 418.168L344.481 417.272L344.041 411.061L360.264 412.268L358.978 418.168Z" fill="white"/>
<path d="M345.603 425.812C345.603 425.812 345.229 425.585 344.745 425.322C344.261 425.059 344.019 424.952 343.579 424.772C342.72 424.317 341.758 424.138 340.808 424.259C340.528 424.336 340.287 424.529 340.137 424.796C340.042 424.946 339.991 425.123 339.991 425.304C339.991 425.485 340.042 425.662 340.137 425.812C340.908 426.4 341.851 426.659 342.787 426.54H343.524C344.192 426.495 344.857 426.407 345.515 426.277C345.556 426.264 345.592 426.239 345.621 426.206C345.65 426.172 345.67 426.131 345.68 426.086C345.695 426.037 345.695 425.985 345.681 425.936C345.668 425.887 345.64 425.843 345.603 425.812ZM343.942 426.039C342.446 426.158 340.83 426.039 340.478 425.537C340.412 425.453 340.357 425.322 340.478 425.035C340.519 424.949 340.579 424.874 340.651 424.816C340.724 424.758 340.807 424.719 340.896 424.701C341.031 424.683 341.167 424.683 341.303 424.701C342.337 424.859 343.341 425.202 344.272 425.716C344.456 425.788 344.633 425.88 344.8 425.991L343.942 426.039Z" fill="#006CFF"/>
<path d="M345.735 426.027C345.703 425.669 345.652 425.314 345.581 424.964C345.419 423.939 344.979 422.991 344.316 422.241C344.155 422.092 343.967 421.981 343.765 421.915C343.562 421.85 343.349 421.83 343.139 421.858C342.534 421.918 342.358 422.241 342.336 422.515C342.238 423.112 342.831 424.008 343.579 424.773C343.839 425.058 344.118 425.322 344.415 425.561C344.724 425.825 345.06 426.05 345.416 426.23C345.444 426.242 345.476 426.242 345.504 426.23C345.54 426.242 345.578 426.242 345.614 426.23C345.65 426.212 345.68 426.183 345.702 426.147C345.723 426.111 345.735 426.069 345.735 426.027ZM342.732 422.587C342.732 422.527 342.732 422.36 343.161 422.312H343.271C343.546 422.307 343.813 422.413 344.019 422.611C344.586 423.334 344.966 424.208 345.119 425.143C345.152 425.292 345.174 425.444 345.185 425.597L344.789 425.31C343.788 424.486 342.688 423.136 342.732 422.587Z" fill="#006CFF"/>
<path d="M346.461 424.868L356.294 424.808C356.473 424.809 356.646 424.875 356.786 424.997C356.926 425.118 357.024 425.288 357.064 425.477L358.889 434.148C358.929 434.33 358.934 434.519 358.906 434.703C358.878 434.887 358.817 435.064 358.726 435.223C358.635 435.381 358.516 435.519 358.376 435.628C358.236 435.736 358.078 435.814 357.911 435.856H357.636C354.094 435.856 350.937 435.617 346.527 435.653C341.324 435.653 342.644 436.346 336.529 436.477C332.844 436.561 332.129 432.01 333.713 431.783C340.862 430.756 341.588 428.403 344.338 425.609C344.94 425.092 345.694 424.829 346.461 424.868Z" fill="#002D6B"/>
<path d="M328.577 211.02L290.499 404.504L304.534 408.553C315.027 383.615 323.826 358.092 330.381 338.087C333.493 328.616 334.78 319.706 337.123 311.357C339.961 301.432 343.777 292.308 345.713 283.971C355.887 240.33 355.073 218.473 355.073 218.473L357.273 212.716L328.577 211.02Z" fill="#002D6B"/>
<path opacity="0.3" d="M351.96 252.548C350.585 261.35 348.595 271.86 345.746 284.067C344.822 288.032 338.63 307.129 337.156 311.453C335.44 283.505 341.324 236.209 341.324 236.209L351.96 252.548Z" fill="black"/>
<path d="M340.269 212.012L343.139 318.308L345.658 411.468L358.856 412.459C362.541 389.659 365.247 368.985 367.183 350.353C368.458 338.182 366.303 329.285 366.985 318.858C367.106 317.126 367.227 315.346 367.37 313.531C369.705 283.677 369.863 253.669 367.842 223.788C367.458 218.091 367.194 214.233 367.194 214.233L340.236 210.495L340.269 212.012Z" fill="#002D6B"/>
<path d="M302.675 414L288.794 409.354L289.74 403.215L305.227 408.613L302.675 414Z" fill="#006CFF"/>
<path opacity="0.5" d="M302.675 414L288.794 409.354L289.74 403.215L305.227 408.613L302.675 414Z" fill="white"/>
<path d="M338.377 144.591C335.791 148.749 333.862 153.347 332.669 158.194C332.08 160.379 331.618 162.6 331.283 164.847L330.326 167.701L321.835 164.035L320.493 163.461C322.561 153.345 330.568 144.197 336.507 144.352C337.138 144.33 337.768 144.411 338.377 144.591Z" fill="#006CFF"/>
<path opacity="0.2" d="M338.377 144.591C335.791 148.749 333.862 153.347 332.669 158.194C332.08 160.379 331.618 162.6 331.283 164.847L330.326 167.701L321.835 164.035L320.493 163.461C322.561 153.345 330.568 144.197 336.507 144.352C337.138 144.33 337.768 144.411 338.377 144.591Z" fill="white"/>
<path d="M327.763 210.113C328.786 207.628 328.654 202.791 332.03 201.872C336.518 200.677 340.214 200.319 357.878 201.943C366.215 202.72 368.062 209.945 367.776 213.66C367.743 214.153 367.587 214.628 367.325 215.033L366.973 215.583C366.149 215.929 328.346 211.379 327.972 211.629C327.813 211.421 327.709 211.17 327.672 210.903C327.636 210.635 327.667 210.362 327.763 210.113Z" fill="#006CFF"/>
<path opacity="0.2" d="M327.763 210.113C328.786 207.628 328.654 202.791 332.03 201.872C336.518 200.677 340.214 200.319 357.878 201.943C366.215 202.72 368.062 209.945 367.776 213.66C367.743 214.153 367.587 214.628 367.325 215.033L366.973 215.583C366.149 215.929 328.346 211.379 327.972 211.629C327.813 211.421 327.709 211.17 327.672 210.903C327.636 210.635 327.667 210.362 327.763 210.113Z" fill="white"/>
<path d="M336.958 144.519C336.716 145.009 329.204 145.857 329.798 181.544C329.875 186.142 328.797 195.876 328.797 195.876L327.697 198.85C327.255 200.057 327.06 201.354 327.125 202.651C327.189 203.948 327.512 205.214 328.071 206.362L328.621 207.473L366.71 211.677H367.809C367.809 211.677 370.262 190.083 373.54 175.644C374.64 170.938 375.739 165.157 375.739 165.157C374.966 159.716 374.598 154.216 374.64 148.711C374.64 148.711 374.64 148.651 374.64 148.64C370.024 147.154 365.315 146.037 360.55 145.295C355.489 144.457 350.381 144.007 345.262 143.946C340.499 144.22 336.969 144.507 336.958 144.519Z" fill="#006CFF"/>
<path d="M360.506 126.628C359.142 131.895 357.437 141.605 360.616 145.474L358.207 148.21C357.247 149.279 356.036 150.044 354.705 150.423C353.374 150.802 351.974 150.78 350.653 150.361C349.333 149.941 348.143 149.139 347.21 148.04C346.278 146.942 345.639 145.588 345.361 144.125C350.937 143.169 349.76 137.09 350.772 131.226L360.506 126.628Z" fill="#FFC2BC"/>
<path opacity="0.2" d="M347.814 125.194C348.914 129.399 350.541 136.159 349.376 140.828C354.38 141.306 357.702 136.374 357.911 134.797C357.295 132.94 356.81 131.036 356.459 129.1L347.814 125.194Z" fill="black"/>
<path d="M361.98 118.399C361.375 127.356 361.309 131.154 357.097 135.693C350.761 142.536 340.763 139.777 338.883 130.82C337.189 122.746 338.454 109.477 346.582 106.001C348.366 105.235 350.301 104.975 352.203 105.246C354.105 105.518 355.913 106.311 357.454 107.552C358.995 108.793 360.22 110.441 361.012 112.338C361.804 114.236 362.137 116.322 361.98 118.399Z" fill="#FFC2BC"/>
<path d="M366.743 114.242C365.904 117.629 365.348 121.09 365.082 124.585H361.936C361.653 124.891 361.454 125.277 361.363 125.699C361.271 126.122 361.291 126.563 361.419 126.974C360.889 126.722 360.437 126.307 360.121 125.78C359.894 125.262 359.781 124.693 359.791 124.12C359.714 121.92 359.497 119.73 359.142 117.563C357.526 116.846 355.656 117.037 354.149 116.082C350.757 113.983 347.808 111.135 345.493 107.721C344.241 108.358 343.128 109.276 342.228 110.415C341.327 111.553 340.659 112.886 340.269 114.326C339.903 114.404 339.524 114.363 339.179 114.208C338.835 114.053 338.54 113.79 338.333 113.454C337.933 112.77 337.709 111.982 337.684 111.173C337.464 109.062 337.965 106.937 339.092 105.201C339.923 104.009 341.136 103.2 342.49 102.932C343.066 102.943 343.639 102.866 344.195 102.705C344.767 102.418 345.295 101.678 345.845 101.296C347.123 100.529 348.528 100.044 349.98 99.8676C351.431 99.6913 352.9 99.8275 354.303 100.268C357.785 101.501 360.937 103.637 363.487 106.491C364.928 108.032 367.281 112.176 366.743 114.242Z" fill="#002D6B"/>
<path d="M364.851 127.01C364.044 128.509 362.723 129.6 361.177 130.044C359.131 130.605 358.152 128.61 358.757 126.532C359.307 124.657 361.045 122.149 363.069 122.459C363.777 122.596 364.407 123.033 364.819 123.673C365.232 124.314 365.393 125.106 365.269 125.875C365.206 126.282 365.064 126.669 364.851 127.01Z" fill="#FFC2BC"/>
<path d="M349.21 120.644C349.21 121.432 348.803 122.041 348.342 122.053C347.88 122.065 347.495 121.408 347.495 120.632C347.495 119.856 347.902 119.235 348.364 119.223C348.825 119.211 349.21 119.868 349.21 120.644Z" fill="#002D6B"/>
<path d="M341.049 120.548C341.049 121.337 340.642 121.946 340.169 121.958C339.696 121.97 339.322 121.313 339.333 120.525C339.344 119.736 339.729 119.127 340.202 119.115C340.675 119.103 341.082 119.748 341.049 120.548Z" fill="#002D6B"/>
<path d="M344.261 122.173C343.596 123.954 342.712 125.63 341.632 127.153C341.999 127.438 342.417 127.634 342.86 127.727C343.302 127.819 343.757 127.807 344.195 127.691L344.261 122.173Z" fill="#EC837E"/>
<path d="M346.758 130.342C346.351 130.532 345.927 130.676 345.493 130.772C345.445 130.783 345.395 130.772 345.354 130.743C345.312 130.714 345.283 130.669 345.273 130.617C345.269 130.567 345.28 130.517 345.307 130.475C345.333 130.434 345.371 130.404 345.416 130.39C346.305 130.212 347.143 129.809 347.862 129.214C348.58 128.618 349.159 127.847 349.551 126.962C349.562 126.913 349.59 126.871 349.629 126.844C349.668 126.817 349.715 126.808 349.76 126.819C349.781 126.822 349.8 126.829 349.818 126.84C349.836 126.851 349.851 126.866 349.863 126.884C349.876 126.902 349.884 126.922 349.889 126.944C349.894 126.965 349.895 126.988 349.892 127.01C349.291 128.524 348.165 129.721 346.758 130.342Z" fill="#002D6B"/>
<path d="M352.07 116.213C352.023 116.231 351.972 116.233 351.923 116.22C351.874 116.208 351.83 116.18 351.795 116.141C351.467 115.776 351.063 115.501 350.617 115.341C350.171 115.181 349.696 115.14 349.232 115.222C349.151 115.236 349.068 115.218 348.998 115.169C348.929 115.121 348.879 115.046 348.858 114.959C348.842 114.921 348.834 114.881 348.833 114.84C348.832 114.798 348.839 114.757 348.853 114.719C348.868 114.681 348.89 114.647 348.917 114.618C348.944 114.589 348.977 114.567 349.012 114.553C349.572 114.449 350.146 114.494 350.686 114.683C351.226 114.872 351.716 115.2 352.114 115.64C352.174 115.699 352.213 115.779 352.225 115.866C352.237 115.953 352.221 116.042 352.18 116.117C352.169 116.141 352.154 116.162 352.135 116.179C352.116 116.195 352.094 116.207 352.07 116.213Z" fill="#002D6B"/>
<path d="M338.894 116.631C338.836 116.656 338.774 116.663 338.713 116.65C338.653 116.637 338.597 116.606 338.553 116.559C338.521 116.525 338.495 116.484 338.478 116.439C338.461 116.394 338.452 116.345 338.452 116.297C338.452 116.248 338.461 116.199 338.478 116.154C338.495 116.109 338.521 116.068 338.553 116.034C338.969 115.475 339.503 115.035 340.11 114.75C340.718 114.465 341.38 114.344 342.039 114.398C342.084 114.401 342.127 114.413 342.167 114.435C342.206 114.456 342.242 114.487 342.271 114.523C342.299 114.56 342.321 114.603 342.334 114.649C342.347 114.695 342.352 114.744 342.347 114.792C342.334 114.892 342.285 114.983 342.211 115.045C342.137 115.107 342.044 115.136 341.951 115.126C341.407 115.09 340.863 115.197 340.365 115.439C339.867 115.68 339.43 116.048 339.092 116.512C339.036 116.569 338.968 116.61 338.894 116.631Z" fill="#002D6B"/>
<path d="M359.274 142.62L362.321 145.737C362.321 145.737 351.322 154.098 351.135 153.56C350.378 152.408 349.551 151.31 348.661 150.276L359.274 142.62Z" fill="#006CFF"/>
<path d="M348.155 142.333L344.272 144.005C344.272 144.005 344.932 153.035 345.273 152.605C346.365 151.818 347.504 151.111 348.683 150.491L348.155 142.333Z" fill="#006CFF"/>
<path opacity="0.2" d="M359.274 142.62L362.321 145.737C362.321 145.737 351.322 154.098 351.135 153.56C350.378 152.408 349.551 151.31 348.661 150.276L359.274 142.62Z" fill="white"/>
<path opacity="0.2" d="M348.155 142.333L344.272 144.005C344.272 144.005 344.932 153.035 345.273 152.605C346.365 151.818 347.504 151.111 348.683 150.491L348.155 142.333Z" fill="white"/>
<path d="M346.087 179.609C346.791 180.744 352.521 179.609 352.521 179.609L357.438 179.979C357.703 179.982 357.96 179.881 358.162 179.695C358.365 179.508 358.498 179.249 358.538 178.964L359.901 172.216C359.92 172.06 359.883 171.901 359.797 171.774C359.711 171.647 359.583 171.562 359.439 171.535L355.557 170.783C353.995 170.472 352.383 170.841 351.069 171.81L346.956 174.843L346.087 179.609Z" fill="#FFC2BC"/>
<path d="M347.165 174.509L346.912 179.704C346.912 179.704 324.804 188.722 318.469 184.78C314.311 182.201 318.469 171.26 321.835 164.011L330.326 167.462L327.521 175.357L347.165 174.509Z" fill="#FFC2BC"/>
<g opacity="0.1">
<path d="M346.087 179.609C346.791 180.744 352.521 179.609 352.521 179.609L357.438 179.979C357.703 179.982 357.96 179.881 358.162 179.695C358.365 179.508 358.498 179.249 358.538 178.964L359.901 172.216C359.92 172.06 359.883 171.901 359.797 171.774C359.711 171.647 359.583 171.562 359.439 171.535L355.557 170.783C353.995 170.472 352.383 170.841 351.069 171.81L346.956 174.843L346.087 179.609Z" fill="black"/>
<path d="M347.165 174.509L346.912 179.704C346.912 179.704 324.804 188.722 318.469 184.78C314.311 182.201 318.469 171.26 321.835 164.011L330.326 167.462L327.521 175.357L347.165 174.509Z" fill="black"/>
</g>
<path d="M373.331 152.581L357.031 176.946L333.152 172.168L332.052 177.28C332.052 177.28 355.15 190.943 361.496 186.942C367.842 182.941 378.434 158.72 378.434 158.72L373.331 152.581Z" fill="#FFC2BC"/>
<path d="M332.075 177.268C331.36 178.391 325.64 177.184 325.64 177.184L320.724 177.483C320.455 177.485 320.195 177.381 319.993 177.19C319.79 176.998 319.659 176.733 319.624 176.444L318.337 169.696C318.318 169.539 318.355 169.381 318.442 169.254C318.528 169.127 318.656 169.042 318.799 169.015L322.704 168.31C324.271 168.025 325.878 168.42 327.18 169.409L333.131 172.335L332.075 177.268Z" fill="#FFC2BC"/>
<path d="M376.421 150.276C380.26 155.196 379.138 167.379 373.606 175.118L360.132 166.519C360.132 166.519 368.04 152.02 372.396 149.165C374.266 147.971 375.058 148.496 376.421 150.276Z" fill="#006CFF"/>
<path opacity="0.2" d="M376.421 150.276C380.26 155.196 379.138 167.379 373.606 175.118L360.132 166.519C360.132 166.519 368.04 152.02 372.396 149.165C374.266 147.971 375.058 148.496 376.421 150.276Z" fill="white"/>
<path d="M255.116 427.161L263.662 428.439L272.395 409.927L262.936 408.219L255.116 427.161Z" fill="#FFC2BC"/>
<path opacity="0.2" d="M262.936 408.219L272.395 409.927L267.633 419.995L258.68 418.538L262.936 408.219Z" fill="black"/>
<path d="M266.17 424.976L255.6 424.355C255.426 424.338 255.252 424.391 255.11 424.503C254.969 424.615 254.869 424.778 254.83 424.964L252.685 433.324C252.641 433.499 252.628 433.682 252.648 433.862C252.669 434.042 252.722 434.216 252.805 434.374C252.888 434.532 252.999 434.67 253.131 434.781C253.264 434.892 253.415 434.973 253.576 435.02H253.873C257.294 435.163 259.758 435.08 264.091 435.331C266.742 435.486 274.705 436.262 278.39 436.525C282.074 436.788 282.712 432.834 281.238 432.392C274.639 430.41 269.69 427.866 267.633 425.692C267.251 425.254 266.725 424.996 266.17 424.976Z" fill="#002D6B"/>
<path d="M266.687 426.17C266.645 426.159 266.608 426.133 266.582 426.096C266.556 426.059 266.543 426.013 266.544 425.967C266.535 425.924 266.54 425.88 266.558 425.84C266.576 425.801 266.606 425.77 266.643 425.752C266.962 425.561 269.877 423.853 270.811 424.438C270.917 424.503 271.002 424.6 271.059 424.716C271.115 424.833 271.14 424.964 271.13 425.095C271.155 425.324 271.122 425.556 271.035 425.766C270.947 425.977 270.809 426.157 270.635 426.289C270.128 426.623 269.529 426.754 268.942 426.66C268.175 426.593 267.418 426.428 266.687 426.17ZM270.327 424.832C269.267 424.981 268.242 425.341 267.303 425.895C268.294 426.331 269.402 426.331 270.393 425.895C270.502 425.802 270.588 425.682 270.643 425.544C270.699 425.407 270.723 425.257 270.712 425.107C270.713 425.055 270.703 425.004 270.684 424.957C270.665 424.91 270.637 424.867 270.602 424.832C270.512 424.808 270.418 424.808 270.327 424.832Z" fill="#006CFF"/>
<path d="M266.665 426.325C266.638 426.298 266.616 426.264 266.601 426.228C266.585 426.191 266.577 426.151 266.577 426.11C266.577 425.967 266.885 423.268 267.941 422.444C268.066 422.335 268.212 422.257 268.367 422.216C268.523 422.174 268.685 422.171 268.843 422.205C268.998 422.212 269.146 422.278 269.26 422.391C269.375 422.505 269.449 422.659 269.47 422.826C269.591 423.829 267.754 425.812 266.83 426.289H266.731L266.665 426.325ZM268.667 422.551C268.498 422.551 268.335 422.614 268.205 422.73C267.548 423.541 267.134 424.549 267.017 425.621C267.952 424.952 269.14 423.435 269.052 422.814C269.052 422.754 269.052 422.587 268.777 422.563H268.667V422.551Z" fill="#006CFF"/>
<path d="M209.526 373.392L215.785 373.643C226.208 373.116 236.555 371.447 246.669 368.662C255.721 366.273 270.723 358.749 270.723 358.749C265.895 381.179 257.195 415.361 257.195 415.361L270.635 417.045C270.635 417.045 305.633 344.644 290.191 336.355C276.388 328.353 222.989 333.608 222.989 333.608L217.489 327.338L180.171 330.622C180.171 330.622 173.032 373.332 209.526 373.392Z" fill="#002D6B"/>
<path d="M271.493 419.995L256.117 414.931L257.965 407.968L274.628 414.859L271.493 419.995Z" fill="#006CFF"/>
<path opacity="0.5" d="M271.493 419.995L256.117 414.931L257.965 407.968L274.628 414.859L271.493 419.995Z" fill="white"/>
<path opacity="0.4" d="M214.157 357.555C217.907 369.498 246.405 368.304 250.376 367.731C226.915 372.639 222.494 373.308 215.785 373.643L209.526 373.392C207.572 373.39 205.62 373.235 203.686 372.926C206.59 352.395 209.625 343.139 214.157 357.555Z" fill="black"/>
<path d="M137.33 406.535L136.23 415.922L156.171 419.458L157.271 410.058L137.33 406.535Z" fill="#FFC2BC"/>
<path d="M138.001 417.224L144.205 407.849C144.304 407.696 144.353 407.511 144.343 407.325C144.333 407.138 144.265 406.961 144.15 406.822L138.859 400.384C138.63 400.111 138.31 399.947 137.97 399.929C137.63 399.911 137.297 400.04 137.044 400.288C136.983 400.366 136.934 400.455 136.901 400.551C134.944 403.609 133.679 405.902 131.149 409.736C129.609 412.065 124.704 418.956 122.581 422.169C120.458 425.382 123.109 428.141 124.242 426.946C129.356 421.954 133.943 418.789 136.769 418.108C137.267 417.989 137.706 417.674 138.001 417.224Z" fill="#002D6B"/>
<path d="M136.67 416.985C136.705 416.962 136.745 416.95 136.786 416.95C136.827 416.95 136.867 416.962 136.901 416.985C136.938 417.004 136.968 417.035 136.986 417.074C137.004 417.113 137.009 417.158 137 417.2C137 417.606 136.747 421.19 135.791 421.715C135.689 421.785 135.57 421.822 135.45 421.822C135.329 421.822 135.211 421.785 135.109 421.715C134.923 421.611 134.765 421.456 134.651 421.265C134.537 421.075 134.471 420.855 134.46 420.628C134.471 419.983 134.689 419.363 135.076 418.873C135.543 418.183 136.078 417.551 136.67 416.985ZM136.56 417.702C135.681 418.373 135.074 419.387 134.867 420.533C134.882 420.683 134.93 420.827 135.007 420.954C135.083 421.08 135.186 421.186 135.307 421.261C135.45 421.345 135.56 421.333 135.582 421.261C135.67 421.221 135.744 421.149 135.791 421.058C136.235 420 136.496 418.863 136.56 417.702Z" fill="#006CFF"/>
<path d="M136.682 416.914C136.748 416.884 136.824 416.884 136.891 416.914C136.99 417.009 138.892 418.789 138.969 420.198C138.984 420.367 138.965 420.538 138.913 420.699C138.862 420.859 138.78 421.006 138.672 421.13C138.583 421.269 138.452 421.371 138.302 421.417C138.151 421.463 137.99 421.45 137.847 421.381C136.99 420.951 136.451 418.204 136.583 417.105V417.009C136.591 416.986 136.605 416.966 136.622 416.949C136.639 416.933 136.66 416.921 136.682 416.914ZM138.617 420.306C138.334 419.27 137.771 418.35 137.001 417.666C137.006 418.895 137.394 420.086 138.1 421.046C138.131 421.064 138.165 421.075 138.2 421.078C138.235 421.081 138.27 421.077 138.303 421.064C138.336 421.052 138.366 421.032 138.392 421.007C138.418 420.981 138.438 420.95 138.452 420.915V420.807C138.545 420.66 138.592 420.484 138.584 420.306H138.617Z" fill="#006CFF"/>
<path opacity="0.2" d="M157.26 410.046L156.16 419.458L145.876 417.63L146.987 408.231L157.26 410.046Z" fill="black"/>
<path d="M214.949 348.669C217.984 353.888 228.477 416.854 208.888 430.923C194.458 441.255 149.033 421.703 149.033 421.703L150.485 406.069C150.485 406.069 187.386 413.57 191.95 409.533C196.515 405.496 181.282 361.759 180.534 351.523C179.786 341.288 214.949 348.669 214.949 348.669Z" fill="#002D6B"/>
<path d="M148.021 422.838L148.516 405.388L155.181 405.52L153.4 424.784L148.021 422.838Z" fill="#006CFF"/>
<path opacity="0.5" d="M148.021 422.838L148.516 405.388L155.181 405.52L153.4 424.784L148.021 422.838Z" fill="white"/>
<path d="M219.062 328.986C217.885 326.597 214.3 321.903 210.846 321.247C206.26 320.375 205.281 320.184 187.584 323.134C179.236 324.519 178.631 331.637 179.093 335.328C179.156 335.823 179.342 336.29 179.632 336.678L180.017 337.191C180.875 337.478 218.512 330.3 218.897 330.527C219.053 330.311 219.151 330.054 219.18 329.782C219.21 329.51 219.169 329.234 219.062 328.986Z" fill="#006CFF"/>
<path opacity="0.2" d="M219.062 328.986C217.885 326.597 214.3 321.903 210.846 321.247C206.26 320.375 205.281 320.184 187.584 323.134C179.236 324.519 178.631 331.637 179.093 335.328C179.156 335.823 179.342 336.29 179.632 336.678L180.017 337.191C180.875 337.478 218.512 330.3 218.897 330.527C219.053 330.311 219.151 330.054 219.18 329.782C219.21 329.51 219.169 329.234 219.062 328.986Z" fill="white"/>
<path d="M259.912 260.156C262.352 259.961 264.715 259.143 266.808 257.767C268.251 256.669 269.48 255.273 270.426 253.658C270.729 253.176 270.858 252.589 270.789 252.01C270.631 250.655 270.136 249.371 269.359 248.296C269.147 248.016 268.842 247.837 268.511 247.794C268.179 247.752 267.844 247.85 267.578 248.069C266.302 249.06 264.85 250.099 263.706 251.067C260.483 251.724 257.426 254.948 257.162 258.496C258.031 258.961 259.032 259.654 259.912 260.156Z" fill="#FFC2BC"/>
<path d="M261.319 255.462L262.199 260.084C262.199 260.084 241.027 276.363 236.99 276.602C234.218 276.769 231.007 276.924 227.685 277.044C223.879 277.187 219.909 277.271 216.301 277.247C209.779 277.187 204.445 276.721 203.356 275.479C200.056 271.693 203.587 265.721 208.745 265.781C215.465 265.853 227.212 267.585 238.365 267.119C242.181 266.963 261.319 255.462 261.319 255.462Z" fill="#FFC2BC"/>
<path opacity="0.2" d="M227.674 277.044C223.869 277.187 219.898 277.271 216.29 277.247L212.276 271.012C217.586 272.441 222.747 274.462 227.674 277.044Z" fill="black"/>
<path d="M214.476 264.443C214.476 264.443 205.138 262.521 203.554 267.417C201.97 272.314 206.128 281.033 219.106 279.504L220.426 264.599L214.476 264.443Z" fill="#006CFF"/>
<path opacity="0.2" d="M214.476 264.443C214.476 264.443 205.138 262.521 203.554 267.417C201.97 272.314 206.128 281.033 219.106 279.504L220.426 264.599L214.476 264.443Z" fill="white"/>
<path d="M207.337 264.563C207.59 265.041 214.696 275.181 215.685 283.087C216.4 288.796 215.685 295.031 215.586 301.385C215.509 305.971 217.005 315.717 217.005 315.717L218.182 318.655C218.658 319.847 218.89 321.137 218.864 322.435C218.837 323.734 218.552 325.011 218.028 326.179L217.511 327.374L179.555 332.891L179.324 332.76C179.324 332.76 175.947 329.691 177.069 325.785V322.763C178.587 317.377 178.169 310.438 174.407 296.117C173.208 291.448 171.877 285.715 171.877 285.715C172.878 275.396 169.788 270.188 169.755 270.188C169.722 270.188 169.755 270.129 169.755 270.117C174.324 268.479 178.996 267.202 183.734 266.295C188.768 265.273 193.862 264.642 198.978 264.408C203.796 264.396 207.326 264.551 207.337 264.563Z" fill="#006CFF"/>
<path d="M203.587 228.243C205.974 231.241 206.491 235.409 207.502 239.267C208.327 242.372 210.12 248.678 209.009 251.664C207.744 255.068 201.519 252.189 199.451 255.08C191.224 266.629 186.253 261.661 183.096 258.806C181.512 257.397 175.496 255.999 173.945 254.554C172.394 253.109 169.744 252.381 170.888 246.767C175.463 224.278 183.063 222.952 193.204 223.561C197.087 223.788 200.969 224.946 203.587 228.243Z" fill="#002D6B"/>
<path d="M183.272 247.496C184.801 252.715 186.792 262.353 183.723 266.342L186.209 268.994C187.2 270.044 188.437 270.78 189.786 271.121C191.135 271.462 192.544 271.394 193.86 270.927C195.176 270.459 196.349 269.608 197.252 268.467C198.154 267.327 198.751 265.939 198.978 264.455C193.38 263.703 194.381 257.588 193.193 251.748L183.272 247.496Z" fill="#FFC2BC"/>
<path opacity="0.2" d="M195.921 245.585C194.887 249.825 193.523 256.644 194.821 261.266C189.827 261.923 186.363 257.098 186.121 255.534C186.678 253.657 187.101 251.736 187.386 249.789L195.921 245.585Z" fill="black"/>
<path d="M181.567 239.314C182.425 248.248 182.612 252.046 186.957 256.441C193.49 263.058 203.455 259.953 205.016 250.935C206.468 242.814 204.818 229.592 196.613 226.392C194.807 225.679 192.862 225.48 190.964 225.813C189.067 226.147 187.279 227.002 185.772 228.297C184.264 229.591 183.086 231.284 182.35 233.212C181.614 235.14 181.345 237.241 181.567 239.314Z" fill="#FFC2BC"/>
<path d="M183.547 244.008C184.191 245.204 184.532 246.564 184.537 247.949C184.898 247.649 185.156 247.226 185.27 246.747C185.384 246.269 185.346 245.763 185.164 245.31C184.9 244.366 184.449 243.913 183.547 244.008Z" fill="#002D6B"/>
<path d="M178.939 248.021C179.793 249.489 181.144 250.536 182.7 250.935C184.768 251.425 185.692 249.395 185.021 247.352C184.427 245.501 182.612 243.053 180.621 243.423C179.917 243.586 179.3 244.046 178.906 244.702C178.513 245.358 178.374 246.156 178.521 246.922C178.589 247.316 178.731 247.69 178.939 248.021Z" fill="#FFC2BC"/>
<path d="M193.336 241.404C193.336 242.193 193.776 242.79 194.238 242.79C194.7 242.79 195.074 242.109 195.041 241.333C195.008 240.556 194.59 239.947 194.128 239.959C193.666 239.971 193.303 240.628 193.336 241.404Z" fill="#002D6B"/>
<path d="M201.486 241.046C201.486 241.822 201.926 242.432 202.399 242.42C202.872 242.408 203.235 241.751 203.191 240.963C203.147 240.174 202.762 239.577 202.289 239.577C201.816 239.577 201.42 240.234 201.486 241.046Z" fill="#002D6B"/>
<path d="M202.08 239.625L203.774 239.052C203.774 239.052 202.971 240.474 202.08 239.625Z" fill="#002D6B"/>
<path d="M199.385 242.479C200.101 244.237 201.033 245.88 202.157 247.364C201.799 247.664 201.386 247.876 200.945 247.985C200.505 248.094 200.047 248.098 199.605 247.997L199.385 242.479Z" fill="#EC837E"/>
<path d="M197.131 250.732C197.542 250.908 197.97 251.036 198.406 251.115C198.43 251.12 198.453 251.12 198.477 251.115C198.5 251.11 198.522 251.1 198.541 251.085C198.561 251.071 198.577 251.052 198.59 251.03C198.603 251.009 198.611 250.985 198.615 250.959C198.62 250.909 198.608 250.859 198.582 250.818C198.556 250.776 198.517 250.746 198.472 250.732C197.577 250.59 196.725 250.218 195.989 249.647C195.252 249.076 194.652 248.322 194.238 247.448C194.223 247.402 194.195 247.362 194.157 247.336C194.119 247.31 194.074 247.299 194.029 247.305C193.987 247.313 193.95 247.339 193.925 247.377C193.901 247.415 193.89 247.462 193.897 247.508C194.547 248.999 195.707 250.156 197.131 250.732Z" fill="#002D6B"/>
<path d="M191.378 235.6C191.427 235.615 191.478 235.615 191.526 235.6C191.575 235.585 191.619 235.556 191.653 235.516C191.97 235.142 192.366 234.856 192.806 234.681C193.246 234.507 193.718 234.449 194.183 234.513C194.265 234.525 194.349 234.503 194.418 234.453C194.486 234.402 194.536 234.326 194.557 234.238C194.571 234.199 194.577 234.157 194.576 234.116C194.574 234.074 194.565 234.032 194.549 233.995C194.532 233.957 194.509 233.923 194.48 233.895C194.451 233.867 194.417 233.846 194.381 233.832C193.818 233.747 193.245 233.811 192.711 234.019C192.176 234.227 191.696 234.573 191.312 235.027C191.252 235.086 191.213 235.167 191.203 235.254C191.193 235.342 191.212 235.431 191.257 235.504C191.269 235.53 191.286 235.551 191.307 235.568C191.328 235.585 191.352 235.596 191.378 235.6Z" fill="#002D6B"/>
<path d="M204.577 235.564C204.635 235.584 204.698 235.586 204.757 235.572C204.817 235.557 204.872 235.525 204.918 235.481C204.983 235.409 205.019 235.312 205.019 235.212C205.019 235.111 204.983 235.015 204.918 234.943C204.486 234.399 203.939 233.977 203.324 233.713C202.709 233.449 202.045 233.35 201.387 233.426C201.343 233.431 201.299 233.445 201.26 233.468C201.221 233.491 201.186 233.522 201.158 233.56C201.131 233.598 201.11 233.642 201.099 233.689C201.087 233.735 201.084 233.784 201.09 233.832C201.106 233.932 201.158 234.021 201.234 234.079C201.311 234.137 201.405 234.16 201.497 234.143C202.04 234.096 202.586 234.188 203.09 234.412C203.595 234.636 204.044 234.986 204.401 235.433C204.443 235.498 204.505 235.545 204.577 235.564Z" fill="#002D6B"/>
<path d="M193.93 240.008L195.624 239.422C195.624 239.422 194.81 240.892 193.93 240.008Z" fill="#002D6B"/>
<path d="M189.431 230.584C191.862 233.808 183.074 242.241 183.547 244.008C181.16 244.175 179.389 238.741 179.268 235.922C179.146 233.076 179.966 230.276 181.578 228.028C182.601 226.607 184.493 226.344 186.154 226.105C186.635 225.994 187.135 226.035 187.595 226.224C187.871 226.387 188.107 226.621 188.279 226.907C188.452 227.193 188.557 227.52 188.584 227.861C188.706 228.818 188.993 229.742 189.431 230.584Z" fill="#002D6B"/>
<path d="M186.154 226.105C187.737 227.469 188.905 229.321 189.503 231.418C190.102 233.515 190.104 235.759 189.508 237.857C190.575 236.913 191.457 235.748 192.104 234.429C192.444 233.743 192.602 232.967 192.559 232.189C192.516 231.41 192.275 230.66 191.862 230.022C193.023 230.951 194.003 232.121 194.745 233.464C195.487 234.807 195.976 236.296 196.185 237.845C196.681 237.449 197.092 236.938 197.386 236.35C197.681 235.761 197.853 235.11 197.889 234.441C197.941 233.784 197.859 233.123 197.65 232.504C197.441 231.885 197.11 231.323 196.68 230.858C197.525 231.662 198.169 232.684 198.554 233.831C198.938 234.977 199.05 236.21 198.879 237.415C199.44 236.945 199.888 236.334 200.185 235.636C200.482 234.937 200.619 234.171 200.584 233.402C200.523 232.581 200.294 231.785 199.914 231.072C199.533 230.359 199.011 229.747 198.384 229.282C199.539 229.973 200.506 230.981 201.189 232.205C201.872 233.429 202.248 234.826 202.278 236.257C204.786 233.617 203.939 229.831 200.859 227.753C196.347 225.129 191.065 224.537 186.154 226.105Z" fill="#002D6B"/>
<path d="M184.944 263.44L181.996 266.653C181.996 266.653 193.237 274.631 193.402 274.094C194.12 272.9 194.91 271.758 195.767 270.678L184.944 263.44Z" fill="#006CFF"/>
<path d="M196.053 262.759L199.979 264.312C199.979 264.312 199.594 273.353 199.231 272.935C198.124 272.175 196.97 271.496 195.778 270.905L196.053 262.759Z" fill="#006CFF"/>
<path opacity="0.2" d="M184.944 263.44L181.996 266.653C181.996 266.653 193.237 274.631 193.402 274.094C194.12 272.9 194.91 271.758 195.767 270.678L184.944 263.44Z" fill="white"/>
<path opacity="0.2" d="M196.053 262.759L199.979 264.312C199.979 264.312 199.594 273.353 199.231 272.935C198.124 272.175 196.97 271.496 195.778 270.905L196.053 262.759Z" fill="white"/>
<path d="M124.506 301.11L115.036 302.089L118.336 310.163C120.904 308.941 123.361 307.457 125.672 305.732L124.506 301.11Z" fill="#FFC2BC"/>
<path d="M111.538 308.264L111.692 308.563C111.982 309.109 112.404 309.558 112.911 309.864C113.419 310.169 113.994 310.318 114.574 310.294L118.347 310.163L115.047 302.089L112.737 303.522C112.371 303.747 112.049 304.048 111.79 304.409C111.531 304.769 111.34 305.181 111.229 305.622C111.117 306.063 111.087 306.523 111.14 306.977C111.193 307.43 111.329 307.868 111.538 308.264Z" fill="#FFC2BC"/>
<path d="M126.629 305.433C126.629 305.433 143.182 307.082 158.679 299.139C158.679 299.139 169.095 289.716 174.726 281.797C183.085 270.021 175.309 266.474 169.139 274.07C164.563 279.707 153.961 290.6 153.961 290.6C140.641 298.96 123.34 301.564 123.34 301.564C119.985 306.819 126.629 305.433 126.629 305.433Z" fill="#FFC2BC"/>
<path d="M179.522 269.591C183.459 273.019 177.586 281.976 169.931 292.749L160.439 279.373C160.439 279.373 172.482 263.464 179.522 269.591Z" fill="#006CFF"/>
<path opacity="0.2" d="M179.522 269.591C183.459 273.019 177.586 281.976 169.931 292.749L160.439 279.373C160.439 279.373 172.482 263.464 179.522 269.591Z" fill="white"/>
</svg>
