<svg width="301" height="200" viewBox="0 0 301 200" fill="none" xmlns="http://www.w3.org/2000/svg">
<g clip-path="url(#clip0_3774_42501)">
<path d="M282.069 187.203H268.22V190.774H282.069V187.203Z" stroke="#120F0F" stroke-width="5" stroke-linejoin="round"/>
<path d="M268.22 197.926L272.435 194.265L274.713 196.14L277.498 193.75L279.049 195.05" stroke="#120F0F" stroke-width="5" stroke-linecap="round" stroke-linejoin="round"/>
<path d="M282.069 190.527V198.266M268.22 190.527V194.694M271.341 198.512H282.069M272.721 188.988H279.991M270.297 188.987H270.643" stroke="#120F0F" stroke-width="5" stroke-linecap="round"/>
</g>
<g clip-path="url(#clip1_3774_42501)">
<path d="M29.5326 195.238L30.6613 194.268C28.7433 192.47 28.7433 189.768 30.6613 187.875L29.5326 186.905C26.8321 189.22 26.8252 192.828 29.5326 195.238ZM32.9879 192.232C32.7043 191.895 32.5516 191.49 32.5516 191.075C32.5516 190.659 32.7043 190.254 32.9879 189.917L31.8246 188.911C30.4259 190.113 30.4259 191.929 31.8246 193.238L32.9879 192.232ZM23.3491 193.453C24.8794 193.453 26.1189 192.387 26.1189 191.072C26.1189 189.756 24.8794 188.691 23.3491 188.691C21.8188 188.691 20.5794 189.756 20.5794 191.072C20.5794 192.387 21.8188 193.453 23.3491 193.453ZM27.7738 194.976C26.6105 194.464 25.101 194.048 23.3491 194.048C21.5973 194.048 20.0877 194.464 18.9244 194.976C18.5866 195.126 18.3035 195.353 18.1067 195.633C17.9099 195.912 17.8071 196.233 17.8096 196.56V198.214H28.8887V196.56C28.8887 195.893 28.4663 195.28 27.7738 194.976Z" fill="#120F0F"/>
</g>
<path d="M8.11679 197.619H5.00081C3.9506 197.619 3.05343 197.307 2.30929 196.682C1.56468 196.057 1.19238 195.293 1.19238 194.39C1.19238 193.616 1.46359 192.927 2.006 192.322C2.54841 191.716 3.25816 191.33 4.13526 191.161C4.42377 190.248 5.00081 189.509 5.86636 188.944C6.73191 188.378 7.71286 188.095 8.80923 188.095C10.1595 188.095 11.3048 188.5 12.2451 189.308C13.1859 190.117 13.6563 191.101 13.6563 192.262C14.4526 192.341 15.1134 192.637 15.6388 193.147C16.1636 193.658 16.4261 194.256 16.4261 194.941C16.4261 195.685 16.1232 196.317 15.5176 196.838C14.9115 197.359 14.1756 197.619 13.3101 197.619H9.50167V193.363L10.6096 194.286L11.579 193.453L8.80923 191.072L6.03947 193.453L7.00888 194.286L8.11679 193.363V197.619Z" fill="#120F0F"/>
<path d="M300.5 168.864H0.5V168.993H300.5V168.864Z" fill="#EBEBEB"/>
<path d="M258.326 172.377H199.766V172.506H258.326V172.377Z" fill="#EBEBEB"/>
<path d="M201.901 175.358H173.899V175.487H201.901V175.358Z" fill="#EBEBEB"/>
<path d="M270.439 177.164H258.925V177.293H270.439V177.164Z" fill="#EBEBEB"/>
<path d="M131.9 175.42H76.3818V175.549H131.9V175.42Z" fill="#EBEBEB"/>
<path d="M71.0425 175.42H59.1025V175.549H71.0425V175.42Z" fill="#EBEBEB"/>
<path d="M54.8889 173.243H35.1729V173.372H54.8889V173.243Z" fill="#EBEBEB"/>
<path d="M142.699 145.861H26.8448C25.9372 145.86 25.0673 145.549 24.4261 144.996C23.7849 144.444 23.4248 143.696 23.4248 142.916V2.91928C23.4327 2.14357 23.7963 1.40186 24.4367 0.855266C25.077 0.308669 25.9424 0.00132883 26.8448 0H142.699C143.607 0 144.479 0.310283 145.121 0.862591C145.764 1.4149 146.125 2.16399 146.125 2.94507V142.916C146.125 143.697 145.764 144.446 145.121 144.998C144.479 145.551 143.607 145.861 142.699 145.861ZM26.8448 0.103155C25.977 0.104521 25.1453 0.401822 24.5322 0.9298C23.9191 1.45778 23.5748 2.17329 23.5748 2.91928V142.916C23.5748 143.662 23.9191 144.377 24.5322 144.905C25.1453 145.433 25.977 145.731 26.8448 145.732H142.699C143.567 145.731 144.4 145.433 145.014 144.906C145.628 144.378 145.973 143.662 145.975 142.916V2.91928C145.973 2.17282 145.628 1.45732 145.014 0.929485C144.4 0.401654 143.567 0.104519 142.699 0.103155H26.8448Z" fill="#EBEBEB"/>
<path d="M272.487 145.861H156.627C155.719 145.86 154.849 145.549 154.206 144.997C153.564 144.445 153.203 143.697 153.201 142.916V2.91928C153.211 2.1431 153.576 1.4014 154.217 0.854943C154.858 0.308489 155.724 0.00131434 156.627 0H272.487C273.389 0.00268434 274.252 0.310624 274.891 0.857076C275.53 1.40353 275.893 2.14446 275.901 2.91928V142.916C275.901 143.695 275.542 144.443 274.902 144.995C274.262 145.547 273.394 145.858 272.487 145.861ZM156.627 0.103155C155.759 0.104519 154.926 0.401654 154.312 0.929485C153.698 1.45732 153.353 2.17282 153.351 2.91928V142.916C153.353 143.662 153.698 144.378 154.312 144.906C154.926 145.433 155.759 145.731 156.627 145.732H272.487C273.356 145.731 274.188 145.433 274.802 144.906C275.416 144.378 275.762 143.662 275.763 142.916V2.91928C275.762 2.17282 275.416 1.45732 274.802 0.929485C274.188 0.401654 273.356 0.104519 272.487 0.103155H156.627Z" fill="#EBEBEB"/>
<path d="M32.6234 104.532L103.651 104.532V100.576L32.6234 100.576V104.532Z" fill="#EBEBEB"/>
<path d="M34.028 168.864H98L98 104.532H34.028L34.028 168.864Z" fill="#EBEBEB"/>
<path d="M99.584 104.532H98V168.865H99.584V104.532Z" fill="#F0F0F0"/>
<path d="M97.9995 104.532H34.0215V107.281L97.9995 105.904V104.532Z" fill="#E6E6E6"/>
<path d="M157.227 168.864H221.199V104.532H157.227V168.864Z" fill="#EBEBEB"/>
<path d="M222.783 104.532H221.199V168.865H222.783V104.532Z" fill="#F0F0F0"/>
<path d="M221.199 104.532H157.227V107.281L221.199 105.904V104.532Z" fill="#E6E6E6"/>
<path d="M227.917 100.576H103.651V104.532H227.917V100.576Z" fill="#F5F5F5"/>
<path d="M87.6328 91.1169H150.705C151.326 91.129 151.943 91.0235 152.511 90.8078C153.079 90.5922 153.586 90.2717 153.994 89.8691C154.402 89.4665 154.702 88.9916 154.873 88.4782C155.044 87.9647 155.082 87.4252 154.983 86.8979L150.111 54.0792C149.911 52.9297 149.248 51.8771 148.237 51.1057C147.225 50.3344 145.93 49.8935 144.579 49.8602H81.5008C80.8795 49.8482 80.2627 49.9538 79.6941 50.1694C79.1255 50.385 78.6189 50.7054 78.2103 51.1079C77.8016 51.5103 77.5008 51.9851 77.3291 52.4985C77.1574 53.012 77.1191 53.5516 77.2168 54.0792L82.1008 86.8979C82.3014 88.047 82.9652 89.099 83.9764 89.8702C84.9875 90.6414 86.2817 91.0826 87.6328 91.1169Z" fill="#E0E0E0"/>
<path d="M108.925 73.9258H122.995L118.231 100.576H104.161L108.925 73.9258Z" fill="#E0E0E0"/>
<path d="M88.4834 91.117H151.549C152.171 91.1298 152.788 91.0249 153.357 90.8096C153.927 90.5942 154.434 90.2739 154.842 89.8712C155.251 89.4685 155.552 88.9933 155.723 88.4795C155.895 87.9656 155.932 87.4257 155.833 86.8979L150.961 54.0792C150.761 52.9292 150.096 51.8766 149.084 51.1053C148.071 50.334 146.776 49.8933 145.423 49.8602H82.3514C81.7302 49.8481 81.1136 49.9536 80.5452 50.1693C79.9768 50.3849 79.4705 50.7054 79.0623 51.108C78.6541 51.5106 78.3539 51.9855 78.183 52.4989C78.012 53.0124 77.9746 53.5519 78.0733 54.0792L82.9454 86.8979C83.1461 88.0479 83.8108 89.1006 84.8232 89.8719C85.8356 90.6431 87.1312 91.0839 88.4834 91.117Z" fill="#E6E6E6"/>
<path d="M113.173 49.8597H122.371L138.925 82.1472H129.721L113.173 49.8597Z" fill="#F5F5F5"/>
<path d="M106.897 49.8597H110.581L127.129 82.1472H123.445L106.897 49.8597Z" fill="#F5F5F5"/>
<path d="M155.126 82.1473L155.834 86.8976C155.932 87.4252 155.894 87.9648 155.722 88.4783C155.55 88.9917 155.249 89.4665 154.841 89.869C154.432 90.2714 153.925 90.5918 153.357 90.8074C152.788 91.023 152.171 91.1286 151.55 91.1166H88.4841C87.1319 91.0835 85.8363 90.6428 84.824 89.8715C83.8116 89.1003 83.1469 88.0476 82.9461 86.8976L82.2441 82.1473H155.126Z" fill="#F0F0F0"/>
<path d="M63.5855 91.844C62.916 89.8095 62.7827 87.6721 63.1955 85.5877C63.561 83.4821 64.3294 81.443 65.4695 79.5531C65.7335 79.0735 66.0695 78.6351 66.3875 78.1709L66.8735 77.4952C67.0475 77.2734 67.2335 77.0619 67.4195 76.8505C67.7975 76.4327 68.1635 76.0098 68.5475 75.5972C68.9315 75.1845 69.3935 74.8286 69.8195 74.4521L70.4675 73.8899C70.6895 73.7146 70.9295 73.5495 71.1695 73.3742C71.6375 73.0389 72.1175 72.714 72.5975 72.3942C73.5952 71.8025 74.6375 71.2684 75.7175 70.7953C75.0035 71.6566 74.1875 72.389 73.4615 73.1833C73.1075 73.5908 72.7535 73.9879 72.3875 74.3748C72.2135 74.5759 72.0215 74.7564 71.8475 74.9576L71.3555 75.5714C71.0255 75.9737 70.6895 76.376 70.3475 76.768C70.0055 77.1599 69.7475 77.6035 69.4415 78.0161C69.2915 78.2224 69.1235 78.4236 68.9795 78.6299L68.5715 79.2746C68.3015 79.7027 67.9715 80.1102 67.7555 80.5537C66.7111 82.2894 65.8439 84.0997 65.1635 85.9642C64.441 87.8813 63.913 89.8486 63.5855 91.844Z" fill="#E6E6E6"/>
<path d="M50.9664 90.3378C50.6597 88.3434 50.158 86.3748 49.4664 84.4529C48.8085 82.5822 47.9654 80.7635 46.9464 79.0166C46.7184 78.573 46.4064 78.1604 46.1484 77.7323L45.7464 77.0824C45.6084 76.871 45.4404 76.675 45.2964 76.4635C44.9964 76.0457 44.6964 75.6331 44.4024 75.2102C44.1084 74.7873 43.7364 74.4107 43.4124 73.9981L42.9264 73.3843C42.7584 73.178 42.5664 72.9924 42.3924 72.7964C42.0384 72.4044 41.6844 72.0021 41.3364 71.5946C40.6224 70.79 39.8184 70.0473 39.1104 69.1808C40.1864 69.6645 41.2228 70.2108 42.2124 70.8158C42.6864 71.1356 43.1604 71.4657 43.6284 71.8061C43.8624 71.9711 44.1024 72.1362 44.3244 72.3218L44.9604 72.884C45.3884 73.2657 45.8084 73.6525 46.2204 74.0445C46.5984 74.4572 46.9584 74.8852 47.3304 75.3082C47.5104 75.5248 47.6964 75.7363 47.8644 75.9581L48.3444 76.6389C48.6444 77.1031 48.9864 77.5466 49.2444 78.0315C50.3554 79.9276 51.0953 81.9682 51.4344 84.0712C51.8242 86.1639 51.6643 88.3051 50.9664 90.3378Z" fill="#E6E6E6"/>
<path d="M51.158 91.2922C51.224 88.9609 51.158 86.707 50.984 84.4736C50.7964 82.256 50.4214 80.053 49.862 77.8821C49.634 76.7938 49.226 75.7519 48.902 74.6791C48.698 74.1633 48.476 73.6475 48.302 73.1318C48.1003 72.6063 47.868 72.0899 47.606 71.5845C46.7 69.4853 45.38 67.5563 44.126 65.4725C46.2591 66.9572 48.0534 68.7689 49.418 70.816L49.946 71.5793C50.12 71.8372 50.24 72.0951 50.39 72.3839C50.684 72.8997 50.99 73.467 51.23 74.0138C51.695 75.109 52.0778 76.2289 52.376 77.3663C52.964 79.6819 53.166 82.0576 52.976 84.4221C52.8359 86.7852 52.2208 89.1095 51.158 91.2922Z" fill="#E6E6E6"/>
<path d="M62.5529 92.6639C61.1495 90.5302 60.0362 88.2648 59.2349 85.9125C58.4134 83.5695 57.8115 81.1739 57.4349 78.7483C57.2249 77.5414 57.1229 76.3191 57.0089 75.0967C56.8949 73.8743 56.8829 72.6519 56.9609 71.4244C57.0222 68.9728 57.4046 66.535 58.1009 64.1571C58.4789 66.6019 58.6409 68.9847 58.9889 71.3779C59.1089 72.5642 59.3069 73.7453 59.4449 74.9265L59.7149 76.6956C59.7869 77.2887 59.8829 77.8767 59.9849 78.4647C60.3569 80.82 60.7689 83.1754 61.2209 85.5308L62.5529 92.6639Z" fill="#E6E6E6"/>
<path d="M61.9884 92.1948C60.3078 90.2122 58.8985 88.0696 57.7884 85.8096C56.652 83.5673 55.7309 81.2489 55.0344 78.8776C54.6564 77.6964 54.3924 76.4895 54.1224 75.2671C53.8524 74.0448 53.6724 72.8533 53.5884 71.6258C53.3213 69.1853 53.3756 66.7267 53.7504 64.2966C54.4464 66.6847 54.9504 69.0366 55.5504 71.3627C55.8324 72.5284 56.1864 73.6837 56.4804 74.8442L56.9844 76.5772C57.1344 77.1549 57.3084 77.7325 57.4884 78.3051C58.1664 80.6106 58.8984 82.9058 59.6544 85.2061L61.9884 92.1948Z" fill="#E6E6E6"/>
<path d="M60.8787 91.6737C58.9904 89.8372 57.3556 87.8191 56.0067 85.6598C54.6253 83.511 53.4513 81.2685 52.4967 78.9547C51.9927 77.8097 51.6027 76.6286 51.2007 75.4578C50.7987 74.287 50.4867 73.0852 50.2647 71.8731C49.7303 69.4639 49.5149 67.0104 49.6227 64.5594C50.5767 66.8804 51.3147 69.2014 52.2207 71.4502C52.6287 72.5901 53.1087 73.7093 53.5287 74.8388L54.2187 76.5254C54.4287 77.0876 54.6687 77.6446 54.9147 78.2017C55.8387 80.4453 56.8167 82.6734 57.8307 84.9067L60.8787 91.6737Z" fill="#E6E6E6"/>
<path d="M63.9728 91.0547C62.8763 89.1619 62.284 87.0828 62.2388 84.9686C62.1451 82.8415 62.4593 80.7156 63.1688 78.6762C63.3248 78.1604 63.5768 77.6704 63.7688 77.1701L64.0988 76.4274C64.2248 76.185 64.3628 75.9477 64.5008 75.7105C64.7768 75.2359 65.0468 74.7614 65.3348 74.2972C65.6228 73.833 66.0008 73.405 66.3368 72.9665L66.8528 72.3115C67.0328 72.1 67.2368 71.904 67.4528 71.7029C67.8488 71.3006 68.2448 70.9034 68.6528 70.5115C69.5035 69.7698 70.4137 69.0804 71.3768 68.4484C70.8548 69.4077 70.2128 70.2587 69.6728 71.1562C69.4088 71.6101 69.1448 72.0588 68.8748 72.4972C68.7428 72.719 68.5928 72.9304 68.4668 73.1574L68.1188 73.8382C67.8788 74.2869 67.6388 74.7356 67.3868 75.1741C67.1348 75.6125 66.9728 76.0921 66.7868 76.546C66.6848 76.773 66.5588 76.9947 66.4688 77.2217L66.2048 77.918C66.0308 78.3822 65.8088 78.836 65.6768 79.3054C65.0269 81.178 64.5652 83.0951 64.2968 85.0357C63.9888 87.0304 63.8804 89.0441 63.9728 91.0547Z" fill="#E6E6E6"/>
<path d="M63.9751 91.9936C62.4827 90.0218 61.4006 87.842 60.7771 85.5516C60.1182 83.2499 59.8434 80.8794 59.961 78.5112C60.0197 77.3243 60.172 76.1422 60.4171 74.973C60.5731 74.3902 60.7351 73.8125 60.9151 73.24C61.0111 72.9564 61.0711 72.6624 61.1911 72.3838L61.5571 71.5483C62.4859 69.3322 63.8834 67.2828 65.679 65.5034C64.8023 67.6407 64.075 69.8212 63.5011 72.0331C63.3433 72.5718 63.2211 73.1176 63.1351 73.6681C63.0451 74.2148 62.925 74.7564 62.829 75.3031C62.733 76.4069 62.5411 77.4952 62.5351 78.6041C62.4285 80.822 62.5047 83.0437 62.763 85.2524C63.021 87.4805 63.4351 89.7087 63.9751 91.9936Z" fill="#E6E6E6"/>
<path d="M59.8704 89.0429L52.6284 78.4335L51.7344 88.7696L59.8704 89.0429Z" fill="#E6E6E6"/>
<path d="M71.7868 86.1857H43.9648L47.6068 100.576H68.1448L71.7868 86.1857Z" fill="#F5F5F5"/>
<path d="M54.4048 86.1857H43.9648L47.6068 100.576H53.0908L54.4048 86.1857Z" fill="#EBEBEB"/>
<path d="M250.539 119.03H206.301C203.937 101.061 208.281 81.7448 219.117 63.6979C219.402 63.2245 219.832 62.8271 220.361 62.5489C220.889 62.2707 221.497 62.1222 222.117 62.1196H259.539C260.05 62.1188 260.552 62.2328 260.996 62.4505C261.44 62.6682 261.809 62.982 262.068 63.3606C262.328 63.7392 262.467 64.1695 262.472 64.6087C262.478 65.0479 262.35 65.4807 262.101 65.8642C252.183 83.2818 248.265 101.777 250.539 119.03Z" fill="#E0E0E0"/>
<path d="M240.043 114.3H191.299C189.841 114.303 188.443 114.802 187.412 115.689C186.381 116.575 185.8 117.777 185.797 119.03H245.557C245.554 117.775 244.971 116.572 243.938 115.685C242.904 114.798 241.503 114.3 240.043 114.3Z" fill="#E0E0E0"/>
<path d="M218.379 168.865H215.667L208.965 119.031H211.677L218.379 168.865Z" fill="#E0E0E0"/>
<path d="M257.241 168.865H254.529L247.827 119.031H250.539L257.241 168.865Z" fill="#E0E0E0"/>
<path d="M221.99 168.865H224.708L231.41 119.031H228.692L221.99 168.865Z" fill="#E0E0E0"/>
<path d="M183.134 168.865H185.846L192.548 119.031H189.836L183.134 168.865Z" fill="#E0E0E0"/>
<path d="M255.367 6.875H51.0547V39.1986H255.367V6.875Z" fill="#F5F5F5"/>
<path d="M49.5127 39.1987H51.0547L51.0547 6.87518H49.5127L49.5127 39.1987Z" fill="#EBEBEB"/>
<path d="M243.236 26.134C183.368 34.799 123.5 17.469 63.6318 26.134V19.9447C123.5 11.2797 183.368 28.6097 243.236 19.9447V26.134Z" fill="#EBEBEB"/>
<path d="M300.5 168.864H0.5V168.993H300.5V168.864Z" fill="#EBEBEB"/>
<path d="M258.326 172.377H199.766V172.506H258.326V172.377Z" fill="#EBEBEB"/>
<path d="M201.901 175.358H173.899V175.487H201.901V175.358Z" fill="#EBEBEB"/>
<path d="M270.439 177.164H258.925V177.293H270.439V177.164Z" fill="#EBEBEB"/>
<path d="M131.9 175.42H76.3818V175.549H131.9V175.42Z" fill="#EBEBEB"/>
<path d="M71.0425 175.42H59.1025V175.549H71.0425V175.42Z" fill="#EBEBEB"/>
<path d="M54.8889 173.243H35.1729V173.372H54.8889V173.243Z" fill="#EBEBEB"/>
<path d="M142.699 145.861H26.8448C25.9372 145.86 25.0673 145.549 24.4261 144.996C23.7849 144.444 23.4248 143.696 23.4248 142.916V2.91928C23.4327 2.14357 23.7963 1.40186 24.4367 0.855266C25.077 0.308669 25.9424 0.00132883 26.8448 0H142.699C143.607 0 144.479 0.310283 145.121 0.862591C145.764 1.4149 146.125 2.16399 146.125 2.94507V142.916C146.125 143.697 145.764 144.446 145.121 144.998C144.479 145.551 143.607 145.861 142.699 145.861ZM26.8448 0.103155C25.977 0.104521 25.1453 0.401822 24.5322 0.9298C23.9191 1.45778 23.5748 2.17329 23.5748 2.91928V142.916C23.5748 143.662 23.9191 144.377 24.5322 144.905C25.1453 145.433 25.977 145.731 26.8448 145.732H142.699C143.567 145.731 144.4 145.433 145.014 144.906C145.628 144.378 145.973 143.662 145.975 142.916V2.91928C145.973 2.17282 145.628 1.45732 145.014 0.929485C144.4 0.401654 143.567 0.104519 142.699 0.103155H26.8448Z" fill="#EBEBEB"/>
<path d="M272.487 145.861H156.627C155.719 145.86 154.849 145.549 154.206 144.997C153.564 144.445 153.203 143.697 153.201 142.916V2.91928C153.211 2.1431 153.576 1.4014 154.217 0.854943C154.858 0.308489 155.724 0.00131434 156.627 0H272.487C273.389 0.00268434 274.252 0.310624 274.891 0.857076C275.53 1.40353 275.893 2.14446 275.901 2.91928V142.916C275.901 143.695 275.542 144.443 274.902 144.995C274.262 145.547 273.394 145.858 272.487 145.861ZM156.627 0.103155C155.759 0.104519 154.926 0.401654 154.312 0.929485C153.698 1.45732 153.353 2.17282 153.351 2.91928V142.916C153.353 143.662 153.698 144.378 154.312 144.906C154.926 145.433 155.759 145.731 156.627 145.732H272.487C273.356 145.731 274.188 145.433 274.802 144.906C275.416 144.378 275.762 143.662 275.763 142.916V2.91928C275.762 2.17282 275.416 1.45732 274.802 0.929485C274.188 0.401654 273.356 0.104519 272.487 0.103155H156.627Z" fill="#EBEBEB"/>
<path d="M32.6234 104.532L103.651 104.532V100.576L32.6234 100.576V104.532Z" fill="#EBEBEB"/>
<path d="M34.028 168.864H98L98 104.532H34.028L34.028 168.864Z" fill="#EBEBEB"/>
<path d="M99.584 104.532H98V168.865H99.584V104.532Z" fill="#F0F0F0"/>
<path d="M97.9995 104.532H34.0215V107.281L97.9995 105.904V104.532Z" fill="#E6E6E6"/>
<path d="M157.227 168.864H221.199V104.532H157.227V168.864Z" fill="#EBEBEB"/>
<path d="M222.783 104.532H221.199V168.865H222.783V104.532Z" fill="#F0F0F0"/>
<path d="M221.199 104.532H157.227V107.281L221.199 105.904V104.532Z" fill="#E6E6E6"/>
<path d="M227.917 100.576H103.651V104.532H227.917V100.576Z" fill="#F5F5F5"/>
<path d="M87.6328 91.1169H150.705C151.326 91.129 151.943 91.0235 152.511 90.8078C153.079 90.5922 153.586 90.2717 153.994 89.8691C154.402 89.4665 154.702 88.9916 154.873 88.4782C155.044 87.9647 155.082 87.4252 154.983 86.8979L150.111 54.0792C149.911 52.9297 149.248 51.8771 148.237 51.1057C147.225 50.3344 145.93 49.8935 144.579 49.8602H81.5008C80.8795 49.8482 80.2627 49.9538 79.6941 50.1694C79.1255 50.385 78.6189 50.7054 78.2103 51.1079C77.8016 51.5103 77.5008 51.9851 77.3291 52.4985C77.1574 53.012 77.1191 53.5516 77.2168 54.0792L82.1008 86.8979C82.3014 88.047 82.9652 89.099 83.9764 89.8702C84.9875 90.6414 86.2817 91.0826 87.6328 91.1169Z" fill="#E0E0E0"/>
<path d="M108.925 73.9258H122.995L118.231 100.576H104.161L108.925 73.9258Z" fill="#E0E0E0"/>
<path d="M88.4834 91.117H151.549C152.171 91.1298 152.788 91.0249 153.357 90.8096C153.927 90.5942 154.434 90.2739 154.842 89.8712C155.251 89.4685 155.552 88.9933 155.723 88.4795C155.895 87.9656 155.932 87.4257 155.833 86.8979L150.961 54.0792C150.761 52.9292 150.096 51.8766 149.084 51.1053C148.071 50.334 146.776 49.8933 145.423 49.8602H82.3514C81.7302 49.8481 81.1136 49.9536 80.5452 50.1693C79.9768 50.3849 79.4705 50.7054 79.0623 51.108C78.6541 51.5106 78.3539 51.9855 78.183 52.4989C78.012 53.0124 77.9746 53.5519 78.0733 54.0792L82.9454 86.8979C83.1461 88.0479 83.8108 89.1006 84.8232 89.8719C85.8356 90.6431 87.1312 91.0839 88.4834 91.117Z" fill="#E6E6E6"/>
<path d="M113.173 49.8597H122.371L138.925 82.1472H129.721L113.173 49.8597Z" fill="#F5F5F5"/>
<path d="M106.897 49.8597H110.581L127.129 82.1472H123.445L106.897 49.8597Z" fill="#F5F5F5"/>
<path d="M155.126 82.1473L155.834 86.8976C155.932 87.4252 155.894 87.9648 155.722 88.4783C155.55 88.9917 155.249 89.4665 154.841 89.869C154.432 90.2714 153.925 90.5918 153.357 90.8074C152.788 91.023 152.171 91.1286 151.55 91.1166H88.4841C87.1319 91.0835 85.8363 90.6428 84.824 89.8715C83.8116 89.1003 83.1469 88.0476 82.9461 86.8976L82.2441 82.1473H155.126Z" fill="#F0F0F0"/>
<path d="M63.5855 91.844C62.916 89.8095 62.7827 87.6721 63.1955 85.5877C63.561 83.4821 64.3294 81.443 65.4695 79.5531C65.7335 79.0735 66.0695 78.6351 66.3875 78.1709L66.8735 77.4952C67.0475 77.2734 67.2335 77.0619 67.4195 76.8505C67.7975 76.4327 68.1635 76.0098 68.5475 75.5972C68.9315 75.1845 69.3935 74.8286 69.8195 74.4521L70.4675 73.8899C70.6895 73.7146 70.9295 73.5495 71.1695 73.3742C71.6375 73.0389 72.1175 72.714 72.5975 72.3942C73.5952 71.8025 74.6375 71.2684 75.7175 70.7953C75.0035 71.6566 74.1875 72.389 73.4615 73.1833C73.1075 73.5908 72.7535 73.9879 72.3875 74.3748C72.2135 74.5759 72.0215 74.7564 71.8475 74.9576L71.3555 75.5714C71.0255 75.9737 70.6895 76.376 70.3475 76.768C70.0055 77.1599 69.7475 77.6035 69.4415 78.0161C69.2915 78.2224 69.1235 78.4236 68.9795 78.6299L68.5715 79.2746C68.3015 79.7027 67.9715 80.1102 67.7555 80.5537C66.7111 82.2894 65.8439 84.0997 65.1635 85.9642C64.441 87.8813 63.913 89.8486 63.5855 91.844Z" fill="#E6E6E6"/>
<path d="M50.9664 90.3378C50.6597 88.3434 50.158 86.3748 49.4664 84.4529C48.8085 82.5822 47.9654 80.7635 46.9464 79.0166C46.7184 78.573 46.4064 78.1604 46.1484 77.7323L45.7464 77.0824C45.6084 76.871 45.4404 76.675 45.2964 76.4635C44.9964 76.0457 44.6964 75.6331 44.4024 75.2102C44.1084 74.7873 43.7364 74.4107 43.4124 73.9981L42.9264 73.3843C42.7584 73.178 42.5664 72.9924 42.3924 72.7964C42.0384 72.4044 41.6844 72.0021 41.3364 71.5946C40.6224 70.79 39.8184 70.0473 39.1104 69.1808C40.1864 69.6645 41.2228 70.2108 42.2124 70.8158C42.6864 71.1356 43.1604 71.4657 43.6284 71.8061C43.8624 71.9711 44.1024 72.1362 44.3244 72.3218L44.9604 72.884C45.3884 73.2657 45.8084 73.6525 46.2204 74.0445C46.5984 74.4572 46.9584 74.8852 47.3304 75.3082C47.5104 75.5248 47.6964 75.7363 47.8644 75.9581L48.3444 76.6389C48.6444 77.1031 48.9864 77.5466 49.2444 78.0315C50.3554 79.9276 51.0953 81.9682 51.4344 84.0712C51.8242 86.1639 51.6643 88.3051 50.9664 90.3378Z" fill="#E6E6E6"/>
<path d="M51.158 91.2922C51.224 88.9609 51.158 86.707 50.984 84.4736C50.7964 82.256 50.4214 80.053 49.862 77.8821C49.634 76.7938 49.226 75.7519 48.902 74.6791C48.698 74.1633 48.476 73.6475 48.302 73.1318C48.1003 72.6063 47.868 72.0899 47.606 71.5845C46.7 69.4853 45.38 67.5563 44.126 65.4725C46.2591 66.9572 48.0534 68.7689 49.418 70.816L49.946 71.5793C50.12 71.8372 50.24 72.0951 50.39 72.3839C50.684 72.8997 50.99 73.467 51.23 74.0138C51.695 75.109 52.0778 76.2289 52.376 77.3663C52.964 79.6819 53.166 82.0576 52.976 84.4221C52.8359 86.7852 52.2208 89.1095 51.158 91.2922Z" fill="#E6E6E6"/>
<path d="M62.5529 92.6639C61.1495 90.5302 60.0362 88.2648 59.2349 85.9125C58.4134 83.5695 57.8115 81.1739 57.4349 78.7483C57.2249 77.5414 57.1229 76.3191 57.0089 75.0967C56.8949 73.8743 56.8829 72.6519 56.9609 71.4244C57.0222 68.9728 57.4046 66.535 58.1009 64.1571C58.4789 66.6019 58.6409 68.9847 58.9889 71.3779C59.1089 72.5642 59.3069 73.7453 59.4449 74.9265L59.7149 76.6956C59.7869 77.2887 59.8829 77.8767 59.9849 78.4647C60.3569 80.82 60.7689 83.1754 61.2209 85.5308L62.5529 92.6639Z" fill="#E6E6E6"/>
<path d="M61.9884 92.1948C60.3078 90.2122 58.8985 88.0696 57.7884 85.8096C56.652 83.5673 55.7309 81.2489 55.0344 78.8776C54.6564 77.6964 54.3924 76.4895 54.1224 75.2671C53.8524 74.0448 53.6724 72.8533 53.5884 71.6258C53.3213 69.1853 53.3756 66.7267 53.7504 64.2966C54.4464 66.6847 54.9504 69.0366 55.5504 71.3627C55.8324 72.5284 56.1864 73.6837 56.4804 74.8442L56.9844 76.5772C57.1344 77.1549 57.3084 77.7325 57.4884 78.3051C58.1664 80.6106 58.8984 82.9058 59.6544 85.2061L61.9884 92.1948Z" fill="#E6E6E6"/>
<path d="M60.8787 91.6737C58.9904 89.8372 57.3556 87.8191 56.0067 85.6598C54.6253 83.511 53.4513 81.2685 52.4967 78.9547C51.9927 77.8097 51.6027 76.6286 51.2007 75.4578C50.7987 74.287 50.4867 73.0852 50.2647 71.8731C49.7303 69.4639 49.5149 67.0104 49.6227 64.5594C50.5767 66.8804 51.3147 69.2014 52.2207 71.4502C52.6287 72.5901 53.1087 73.7093 53.5287 74.8388L54.2187 76.5254C54.4287 77.0876 54.6687 77.6446 54.9147 78.2017C55.8387 80.4453 56.8167 82.6734 57.8307 84.9067L60.8787 91.6737Z" fill="#E6E6E6"/>
<path d="M63.9728 91.0547C62.8763 89.1619 62.284 87.0828 62.2388 84.9686C62.1451 82.8415 62.4593 80.7156 63.1688 78.6762C63.3248 78.1604 63.5768 77.6704 63.7688 77.1701L64.0988 76.4274C64.2248 76.185 64.3628 75.9477 64.5008 75.7105C64.7768 75.2359 65.0468 74.7614 65.3348 74.2972C65.6228 73.833 66.0008 73.405 66.3368 72.9665L66.8528 72.3115C67.0328 72.1 67.2368 71.904 67.4528 71.7029C67.8488 71.3006 68.2448 70.9034 68.6528 70.5115C69.5035 69.7698 70.4137 69.0804 71.3768 68.4484C70.8548 69.4077 70.2128 70.2587 69.6728 71.1562C69.4088 71.6101 69.1448 72.0588 68.8748 72.4972C68.7428 72.719 68.5928 72.9304 68.4668 73.1574L68.1188 73.8382C67.8788 74.2869 67.6388 74.7356 67.3868 75.1741C67.1348 75.6125 66.9728 76.0921 66.7868 76.546C66.6848 76.773 66.5588 76.9947 66.4688 77.2217L66.2048 77.918C66.0308 78.3822 65.8088 78.836 65.6768 79.3054C65.0269 81.178 64.5652 83.0951 64.2968 85.0357C63.9888 87.0304 63.8804 89.0441 63.9728 91.0547Z" fill="#E6E6E6"/>
<path d="M63.9751 91.9936C62.4827 90.0218 61.4006 87.842 60.7771 85.5516C60.1182 83.2499 59.8434 80.8794 59.961 78.5112C60.0197 77.3243 60.172 76.1422 60.4171 74.973C60.5731 74.3902 60.7351 73.8125 60.9151 73.24C61.0111 72.9564 61.0711 72.6624 61.1911 72.3838L61.5571 71.5483C62.4859 69.3322 63.8834 67.2828 65.679 65.5034C64.8023 67.6407 64.075 69.8212 63.5011 72.0331C63.3433 72.5718 63.2211 73.1176 63.1351 73.6681C63.0451 74.2148 62.925 74.7564 62.829 75.3031C62.733 76.4069 62.5411 77.4952 62.5351 78.6041C62.4285 80.822 62.5047 83.0437 62.763 85.2524C63.021 87.4805 63.4351 89.7087 63.9751 91.9936Z" fill="#E6E6E6"/>
<path d="M59.8704 89.0429L52.6284 78.4335L51.7344 88.7696L59.8704 89.0429Z" fill="#E6E6E6"/>
<path d="M71.7868 86.1857H43.9648L47.6068 100.576H68.1448L71.7868 86.1857Z" fill="#F5F5F5"/>
<path d="M54.4048 86.1857H43.9648L47.6068 100.576H53.0908L54.4048 86.1857Z" fill="#EBEBEB"/>
<path d="M250.539 119.03H206.301C203.937 101.061 208.281 81.7448 219.117 63.6979C219.402 63.2245 219.832 62.8271 220.361 62.5489C220.889 62.2707 221.497 62.1222 222.117 62.1196H259.539C260.05 62.1188 260.552 62.2328 260.996 62.4505C261.44 62.6682 261.809 62.982 262.068 63.3606C262.328 63.7392 262.467 64.1695 262.472 64.6087C262.478 65.0479 262.35 65.4807 262.101 65.8642C252.183 83.2818 248.265 101.777 250.539 119.03Z" fill="#E0E0E0"/>
<path d="M240.043 114.3H191.299C189.841 114.303 188.443 114.802 187.412 115.689C186.381 116.575 185.8 117.777 185.797 119.03H245.557C245.554 117.775 244.971 116.572 243.938 115.685C242.904 114.798 241.503 114.3 240.043 114.3Z" fill="#E0E0E0"/>
<path d="M218.379 168.865H215.667L208.965 119.031H211.677L218.379 168.865Z" fill="#E0E0E0"/>
<path d="M257.241 168.865H254.529L247.827 119.031H250.539L257.241 168.865Z" fill="#E0E0E0"/>
<path d="M221.99 168.865H224.708L231.41 119.031H228.692L221.99 168.865Z" fill="#E0E0E0"/>
<path d="M183.134 168.865H185.846L192.548 119.031H189.836L183.134 168.865Z" fill="#E0E0E0"/>
<path d="M255.367 6.875H51.0547V39.1986H255.367V6.875Z" fill="#F5F5F5"/>
<path d="M49.5127 39.1987H51.0547L51.0547 6.87518H49.5127L49.5127 39.1987Z" fill="#EBEBEB"/>
<path d="M243.236 26.134C183.368 34.799 123.5 17.469 63.6318 26.134V19.9447C123.5 11.2797 183.368 28.6097 243.236 19.9447V26.134Z" fill="#EBEBEB"/>
<path d="M150.502 192.157C214.751 192.157 266.836 189.543 266.836 186.318C266.836 183.094 214.751 180.48 150.502 180.48C86.2525 180.48 34.168 183.094 34.168 186.318C34.168 189.543 86.2525 192.157 150.502 192.157Z" fill="#F5F5F5"/>
<path d="M227.301 23.1481H244.779C248.259 23.1481 251.085 26.6502 249.063 30.1523H179.763C182.163 26.0261 177.873 23.1481 175.473 23.1481H227.301Z" fill="#0095E8"/>
<path d="M172.245 23.1481H243.345C233.607 23.1481 224.925 29.9305 223.941 38.2964L211.341 145.665C210.357 154.031 201.675 160.813 191.937 160.813H156.099C146.367 160.813 139.299 154.031 140.253 145.665L152.853 38.2964C153.825 29.915 162.501 23.1481 172.245 23.1481Z" fill="#0095E8"/>
<path opacity="0.7" d="M172.245 23.1481H243.345C233.607 23.1481 224.925 29.9305 223.941 38.2964L211.341 145.665C210.357 154.031 201.675 160.813 191.937 160.813H156.099C146.367 160.813 139.299 154.031 140.253 145.665L152.853 38.2964C153.825 29.915 162.501 23.1481 172.245 23.1481Z" fill="white"/>
<path d="M176.103 145.665C176.197 145.038 176.132 144.401 175.913 143.798C175.694 143.194 175.326 142.639 174.834 142.169C174.343 141.699 173.739 141.326 173.065 141.074C172.39 140.823 171.66 140.7 170.925 140.713H99.8252C100.561 140.699 101.291 140.822 101.966 141.073C102.642 141.324 103.246 141.697 103.738 142.167C104.23 142.637 104.599 143.193 104.818 143.796C105.037 144.4 105.103 145.037 105.009 145.665C104.025 154.031 111.123 160.813 120.855 160.813H191.949C182.217 160.813 175.101 154.031 176.103 145.665Z" fill="#0095E8"/>
<path d="M103.574 140.708H86.0964C84.56 140.714 83.0869 141.235 81.9916 142.161C80.8963 143.087 80.2657 144.345 80.2344 145.665H165.062C165.094 144.345 165.724 143.087 166.82 142.161C167.915 141.235 169.388 140.714 170.924 140.708H103.574Z" fill="#0095E8"/>
<path opacity="0.6" d="M103.574 140.708H86.0964C84.56 140.714 83.0869 141.235 81.9916 142.161C80.8963 143.087 80.2657 144.345 80.2344 145.665H165.062C165.094 144.345 165.724 143.087 166.82 142.161C167.915 141.235 169.388 140.714 170.924 140.708H103.574Z" fill="white"/>
<g opacity="0.5">
<path d="M164.343 75.783H158.979L159.525 71.1771H164.883L164.343 75.783Z" fill="white"/>
<path d="M173.193 75.783H167.835L168.375 71.1771H173.733L173.193 75.783Z" fill="white"/>
<path d="M182.047 75.783H176.683L177.223 71.1771H182.587L182.047 75.783Z" fill="white"/>
<path d="M190.897 75.783H185.533L186.079 71.1771H191.437L190.897 75.783Z" fill="white"/>
<path d="M199.748 75.783H194.39L194.93 71.1771H200.288L199.748 75.783Z" fill="white"/>
<path d="M208.604 75.783H203.24L203.78 71.1771H209.144L208.604 75.783Z" fill="white"/>
<path d="M163.449 83.3957H158.091L158.631 78.7847H163.989L163.449 83.3957Z" fill="white"/>
<path d="M172.305 83.3957H166.941L167.481 78.7847H172.845L172.305 83.3957Z" fill="white"/>
<path d="M181.153 83.3957H175.789L176.335 78.7847H181.693L181.153 83.3957Z" fill="white"/>
<path d="M190.004 83.3957H184.646L185.186 78.7847H190.543L190.004 83.3957Z" fill="white"/>
<path d="M198.86 83.3957H193.496L194.036 78.7847H199.4L198.86 83.3957Z" fill="white"/>
<path d="M207.711 83.3957H202.347L202.887 78.7847H208.251L207.711 83.3957Z" fill="white"/>
<path d="M162.558 91.0031H157.194L157.734 86.3921H163.098L162.558 91.0031Z" fill="white"/>
<path d="M171.409 91.0031H166.045L166.585 86.3921H171.949L171.409 91.0031Z" fill="white"/>
<path d="M180.259 91.0031H174.901L175.441 86.3921H180.799L180.259 91.0031Z" fill="white"/>
<path d="M189.116 91.0031H183.752L184.292 86.3921H189.656L189.116 91.0031Z" fill="white"/>
<path d="M197.967 91.0031H192.603L193.143 86.3921H198.507L197.967 91.0031Z" fill="white"/>
<path d="M206.817 91.0031H201.459L201.999 86.3921H207.357L206.817 91.0031Z" fill="white"/>
<path d="M161.665 98.6112H156.301L156.841 94.0054H162.205L161.665 98.6112Z" fill="white"/>
<path d="M170.515 98.6112H165.157L165.697 94.0054H171.055L170.515 98.6112Z" fill="white"/>
<path d="M179.366 98.6112H174.008L174.548 94.0054H179.906L179.366 98.6112Z" fill="white"/>
<path d="M188.222 98.6112H182.858L183.398 94.0054H188.762L188.222 98.6112Z" fill="white"/>
<path d="M197.073 98.6112H191.715L192.255 94.0054H197.613L197.073 98.6112Z" fill="white"/>
<path d="M205.92 98.6112H200.562L201.102 94.0054H206.46L205.92 98.6112Z" fill="white"/>
<path d="M160.771 106.224H155.413L155.953 101.613H161.311L160.771 106.224Z" fill="white"/>
<path d="M169.622 106.224H164.264L164.804 101.613H170.162L169.622 106.224Z" fill="white"/>
<path d="M178.478 106.224H173.114L173.654 101.613H179.018L178.478 106.224Z" fill="white"/>
<path d="M187.329 106.224H181.965L182.511 101.613H187.869L187.329 106.224Z" fill="white"/>
<path d="M196.179 106.224H190.821L191.361 101.613H196.719L196.179 106.224Z" fill="white"/>
<path d="M205.033 106.224H199.669L200.209 101.613H205.573L205.033 106.224Z" fill="white"/>
<path d="M159.878 113.831H154.52L155.06 109.22H160.418L159.878 113.831Z" fill="white"/>
<path d="M168.734 113.831H163.37L163.91 109.22H169.274L168.734 113.831Z" fill="white"/>
<path d="M177.585 113.831H172.221L172.767 109.22H178.125L177.585 113.831Z" fill="white"/>
<path d="M186.435 113.831H181.077L181.617 109.22H186.975L186.435 113.831Z" fill="white"/>
<path d="M195.289 113.831H189.925L190.465 109.22H195.829L195.289 113.831Z" fill="white"/>
<path d="M204.139 113.831H198.775L199.321 109.22H204.679L204.139 113.831Z" fill="white"/>
</g>
<path d="M162.656 109.22C162.585 109.742 162.297 110.225 161.845 110.578C161.393 110.932 160.807 111.133 160.196 111.144C159.911 111.149 159.627 111.101 159.365 111.004C159.103 110.906 158.869 110.761 158.678 110.578C158.488 110.396 158.345 110.18 158.26 109.945C158.175 109.711 158.15 109.464 158.186 109.22C158.256 108.699 158.544 108.216 158.996 107.863C159.449 107.51 160.035 107.311 160.646 107.302C160.931 107.296 161.214 107.343 161.476 107.44C161.738 107.538 161.973 107.682 162.164 107.864C162.354 108.047 162.497 108.262 162.582 108.496C162.667 108.73 162.692 108.977 162.656 109.22Z" fill="#0095E8"/>
<path d="M174.188 86.3921C174.116 86.9145 173.826 87.3968 173.373 87.7503C172.92 88.1038 172.334 88.3047 171.722 88.316C171.435 88.3224 171.151 88.2755 170.887 88.1785C170.624 88.0815 170.388 87.9366 170.196 87.7538C170.004 87.5711 169.86 87.3547 169.774 87.1197C169.689 86.8846 169.663 86.6364 169.7 86.3921C169.773 85.8707 170.063 85.3896 170.516 85.0371C170.969 84.6847 171.555 84.4845 172.166 84.4735C172.451 84.468 172.735 84.5153 172.997 84.6123C173.26 84.7094 173.495 84.8538 173.687 85.0357C173.878 85.2177 174.022 85.433 174.109 85.6671C174.195 85.9011 174.222 86.1484 174.188 86.3921Z" fill="#0095E8"/>
<path d="M191.001 94.0047C190.929 94.5271 190.639 95.0094 190.186 95.3629C189.733 95.7164 189.147 95.9173 188.535 95.9286C188.249 95.9335 187.966 95.8855 187.704 95.7878C187.442 95.6901 187.208 95.545 187.017 95.3625C186.826 95.1799 186.684 94.9641 186.599 94.7298C186.514 94.4955 186.489 94.2482 186.525 94.0047C186.597 93.4832 186.885 93.0016 187.337 92.6482C187.789 92.2948 188.374 92.0934 188.985 92.0809C189.271 92.0761 189.554 92.1241 189.816 92.2217C190.078 92.3194 190.313 92.4644 190.504 92.6469C190.695 92.8293 190.839 93.045 190.924 93.2793C191.01 93.5136 191.036 93.761 191.001 94.0047Z" fill="#0095E8"/>
<path d="M210.501 78.7842C210.429 79.3065 210.139 79.7889 209.686 80.1424C209.233 80.4959 208.647 80.6968 208.035 80.708C207.749 80.713 207.466 80.665 207.204 80.5673C206.942 80.4696 206.708 80.3245 206.517 80.1419C206.326 79.9593 206.184 79.7435 206.099 79.5092C206.014 79.2749 205.989 79.0276 206.025 78.7842C206.097 78.2618 206.386 77.7795 206.84 77.426C207.293 77.0725 207.879 76.8716 208.491 76.8603C208.776 76.8554 209.06 76.9034 209.322 77.0011C209.583 77.0988 209.818 77.2439 210.009 77.4264C210.199 77.609 210.342 77.8248 210.427 78.0591C210.512 78.2934 210.537 78.5407 210.501 78.7842Z" fill="#0095E8"/>
<path d="M160.419 109.788C160.31 109.788 160.203 109.765 160.107 109.72C160.011 109.676 159.93 109.612 159.87 109.533C159.811 109.455 159.775 109.365 159.766 109.272C159.757 109.178 159.775 109.084 159.819 108.999L171.351 86.1705C171.387 86.0987 171.439 86.0341 171.505 85.9808C171.571 85.9275 171.65 85.8867 171.735 85.8611C171.821 85.8362 171.911 85.8265 172.001 85.8327C172.09 85.8389 172.178 85.8609 172.257 85.8972L188.661 93.3192L207.807 78.3617C207.937 78.2615 208.108 78.2096 208.282 78.2173C208.457 78.225 208.62 78.2918 208.737 78.403C208.795 78.4578 208.839 78.5219 208.868 78.5915C208.897 78.6611 208.909 78.7349 208.905 78.8087C208.9 78.8824 208.879 78.9547 208.842 79.0214C208.805 79.0881 208.753 79.1478 208.689 79.1973L189.201 94.4229C189.102 94.5012 188.977 94.5507 188.844 94.5646C188.71 94.5785 188.575 94.556 188.457 94.5003L172.257 87.1763L161.025 109.447C160.974 109.549 160.889 109.635 160.781 109.695C160.674 109.756 160.548 109.788 160.419 109.788Z" fill="#0095E8"/>
<path opacity="0.5" d="M157.964 130.15H152.606L152.876 127.845H158.234L157.964 130.15Z" fill="#0095E8"/>
<path opacity="0.6" d="M166.821 130.15H161.457L162.387 122.213H167.751L166.821 130.15Z" fill="#0095E8"/>
<path opacity="0.7" d="M175.669 130.15H170.305L170.851 125.539H176.209L175.669 130.15Z" fill="#0095E8"/>
<path opacity="0.8" d="M184.519 130.15H179.161L179.869 124.09H185.233L184.519 130.15Z" fill="#0095E8"/>
<path opacity="0.9" d="M193.376 130.15H188.012L188.444 126.473H193.808L193.376 130.15Z" fill="#0095E8"/>
<path d="M202.226 130.15H196.862L197.138 127.845H202.496L202.226 130.15Z" fill="#0095E8"/>
<path opacity="0.5" d="M208.544 63.1358H162.007C161.811 63.1394 161.615 63.1064 161.435 63.0392C161.254 62.972 161.093 62.872 160.961 62.7462C160.829 62.6203 160.731 62.4716 160.672 62.3101C160.614 62.1485 160.596 61.978 160.622 61.8102L162.74 43.7066C162.789 43.3466 162.988 43.0141 163.3 42.7705C163.612 42.5268 164.016 42.3885 164.438 42.381H210.979C211.176 42.3783 211.371 42.4118 211.551 42.4793C211.731 42.5468 211.892 42.6468 212.024 42.7724C212.155 42.8981 212.254 43.0465 212.313 43.2076C212.372 43.3687 212.39 43.5389 212.365 43.7066L210.242 61.8102C210.192 62.1702 209.993 62.5026 209.681 62.7463C209.369 62.9899 208.965 63.1283 208.544 63.1358Z" fill="white"/>
<path d="M176.63 52.7583L180.482 45.6406C182.119 46.1752 183.5 47.168 184.401 48.4592C185.302 49.7503 185.672 51.2647 185.45 52.7583C185.191 54.5869 184.26 56.2967 182.792 57.639C181.324 58.9812 179.397 59.886 177.29 60.2216L176.63 52.7583Z" fill="#0095E8"/>
<path d="M176.631 52.7581L177.291 60.2214C176.78 60.2975 176.262 60.3355 175.743 60.3349C174.62 60.3501 173.506 60.1583 172.476 59.7722C171.447 59.3862 170.525 58.8149 169.774 58.0969C169.023 57.379 168.46 56.5309 168.122 55.61C167.785 54.689 167.681 53.7166 167.817 52.7581C168.108 50.7075 169.245 48.8148 171.023 47.4243C172.8 46.0338 175.099 45.2379 177.501 45.1814C178.511 45.1786 179.514 45.3342 180.459 45.6405L176.631 52.7581Z" fill="white"/>
<path d="M197.583 50.917H200.925L199.821 60.3247H196.479L197.583 50.917Z" fill="white"/>
<path d="M202.675 55.9203H206.017L205.501 60.325H202.159L202.675 55.9203Z" fill="white"/>
<path d="M202.675 55.9201H206.017L206.335 53.2329H202.993L202.675 55.9201Z" fill="#0095E8"/>
<path d="M197.583 50.9168H200.925L201.597 45.1814H198.255L197.583 50.9168Z" fill="#0095E8"/>
<path d="M191.701 52.6295H195.043L194.143 60.3249H190.801L191.701 52.6295Z" fill="white"/>
<path d="M191.703 52.6298H195.045L195.459 49.1019H192.117L191.703 52.6298Z" fill="#0095E8"/>
<path d="M81.0778 53.9241C80.8138 54.3006 80.4778 54.7751 80.2198 55.2083C79.9618 55.6416 79.6198 56.1109 79.3738 56.5648C78.8338 57.4829 78.2878 58.3958 77.7898 59.3345C76.7869 61.1766 75.9211 63.0716 75.1978 65.008L74.9458 65.7301L74.8258 66.0963L74.7898 66.184C74.7515 66.4138 74.7825 66.6482 74.8798 66.8648C75.224 67.7258 75.6831 68.5497 76.2478 69.3199C77.5222 71.0776 78.9083 72.7737 80.3998 74.4003L78.4978 76.1281C76.3745 74.7785 74.4414 73.2206 72.7378 71.4862C71.7803 70.5372 70.9843 69.4761 70.3738 68.3348C69.959 67.5609 69.7538 66.7162 69.7738 65.8642C69.7832 65.726 69.8012 65.5882 69.8278 65.4516L69.8698 65.235V65.1318L69.9718 64.7089L70.1818 63.863C70.8033 61.6502 71.6361 59.4852 72.6718 57.3901C73.1878 56.3585 73.7338 55.327 74.3458 54.3264C74.6458 53.8106 74.9458 53.3258 75.2818 52.8306C75.6178 52.3355 75.9358 51.8661 76.3378 51.3297L81.0778 53.9241Z" fill="#FF8B7B"/>
<path d="M79.0263 73.4723L83.5383 73.6322L81.7383 76.9589C81.7383 76.9589 78.5283 76.8042 77.3223 75.1331L79.0263 73.4723Z" fill="#FF8B7B"/>
<path d="M84.6537 75.1277L83.5377 78.1089L81.7197 76.9639L83.5377 73.632L84.6537 75.1277Z" fill="#FF8B7B"/>
<path d="M88.397 181.79C87.9073 181.778 87.4205 181.721 86.945 181.62C86.9203 181.614 86.8976 181.604 86.8796 181.588C86.8616 181.573 86.8489 181.553 86.843 181.532C86.8384 181.51 86.8411 181.488 86.8506 181.468C86.8602 181.448 86.8763 181.431 86.897 181.418C87.083 181.31 88.739 180.387 89.381 180.634C89.453 180.663 89.5152 180.707 89.5615 180.762C89.6077 180.817 89.6365 180.881 89.645 180.949C89.6739 181.055 89.6703 181.165 89.6345 181.269C89.5987 181.373 89.532 181.467 89.441 181.542C89.1388 181.73 88.7683 181.817 88.397 181.79ZM87.311 181.46C88.271 181.625 88.985 181.594 89.261 181.377C89.3217 181.327 89.3654 181.263 89.3876 181.193C89.4097 181.124 89.4096 181.05 89.387 180.98C89.3849 180.95 89.3739 180.921 89.355 180.896C89.3361 180.87 89.3099 180.85 89.279 180.836C88.937 180.707 87.983 181.104 87.311 181.46Z" fill="#0095E8"/>
<path d="M86.9758 181.619C86.9542 181.625 86.9313 181.625 86.9098 181.619C86.8901 181.609 86.8738 181.595 86.8623 181.577C86.8507 181.56 86.8444 181.541 86.8438 181.521C86.8438 181.464 86.8438 180.103 87.4438 179.649C87.5165 179.591 87.6031 179.548 87.6975 179.522C87.7918 179.496 87.8916 179.489 87.9898 179.499C88.0939 179.502 88.1942 179.534 88.2746 179.591C88.3551 179.648 88.4111 179.727 88.4337 179.814C88.5657 180.33 87.5817 181.361 87.0657 181.619C87.0367 181.628 87.0048 181.628 86.9758 181.619ZM87.8817 179.711C87.7757 179.71 87.6732 179.743 87.5938 179.804C87.2398 180.077 87.1318 180.835 87.1078 181.294C87.6238 180.933 88.2357 180.17 88.1517 179.845C88.1517 179.793 88.1037 179.726 87.9357 179.711H87.8817Z" fill="#0095E8"/>
<path d="M129 179.685C128.977 179.686 128.955 179.683 128.934 179.674C128.913 179.666 128.894 179.654 128.88 179.639C128.864 179.62 128.855 179.597 128.855 179.574C128.855 179.551 128.864 179.528 128.88 179.51C129.048 179.324 130.524 177.73 131.322 177.684H131.376C131.448 177.686 131.518 177.703 131.58 177.735C131.642 177.767 131.694 177.811 131.73 177.864C131.794 177.946 131.833 178.041 131.842 178.14C131.852 178.238 131.832 178.337 131.784 178.427C131.472 179.056 129.918 179.458 129.018 179.68L129 179.685ZM131.334 177.906C130.896 177.932 129.972 178.731 129.342 179.381C130.542 179.077 131.37 178.7 131.55 178.349C131.58 178.289 131.592 178.224 131.585 178.159C131.577 178.094 131.551 178.032 131.508 177.978C131.494 177.956 131.473 177.938 131.447 177.925C131.422 177.913 131.393 177.906 131.364 177.906H131.334Z" fill="#0095E8"/>
<path d="M128.999 179.685C128.976 179.683 128.955 179.675 128.937 179.664C128.919 179.652 128.905 179.636 128.897 179.618C128.897 179.572 128.351 178.411 128.735 177.72C128.79 177.618 128.87 177.526 128.968 177.451C129.066 177.376 129.18 177.318 129.305 177.282C129.653 177.173 129.833 177.282 129.905 177.374C130.271 177.803 129.587 179.18 129.107 179.649C129.093 179.662 129.076 179.672 129.057 179.678C129.039 179.684 129.019 179.687 128.999 179.685ZM129.497 177.426C129.443 177.431 129.391 177.442 129.341 177.457C129.249 177.484 129.164 177.527 129.092 177.583C129.02 177.639 128.962 177.706 128.921 177.782C128.755 178.292 128.787 178.835 129.011 179.329C129.455 178.777 129.863 177.746 129.647 177.488C129.631 177.466 129.608 177.449 129.582 177.438C129.555 177.427 129.526 177.423 129.497 177.426Z" fill="#0095E8"/>
<path d="M88.2067 34.9332C88.8067 37.739 90.2227 43.8716 87.9307 45.6974C87.9307 45.6974 88.8007 48.5548 94.8607 48.658C101.527 48.7663 98.0647 45.8728 98.0647 45.8728C94.4347 45.063 94.5427 42.7524 95.1907 40.5861L88.2067 34.9332Z" fill="#FF8B7B"/>
<path d="M86.2968 47.1211L85.1328 42.1748C86.8043 42.5941 88.529 42.8366 90.2688 42.8969C92.6028 42.8969 97.6608 42.737 100.175 41.9891C100.871 42.835 104.519 45.0838 104.519 45.0838L102.887 47.4512L86.2968 47.1211Z" fill="#0095E8"/>
<path opacity="0.8" d="M86.2968 47.1211L85.1328 42.1748C86.8043 42.5941 88.529 42.8366 90.2688 42.8969C92.6028 42.8969 97.6608 42.737 100.175 41.9891C100.871 42.835 104.519 45.0838 104.519 45.0838L102.887 47.4512L86.2968 47.1211Z" fill="white"/>
<path d="M101.215 29.5436C101.174 29.5385 101.135 29.5262 101.101 29.5075C101.043 29.4748 101.003 29.4242 100.988 29.3664C100.974 29.3086 100.986 29.2482 101.023 29.1981C101.239 28.8986 101.537 28.6484 101.89 28.4688C102.243 28.2892 102.641 28.1855 103.051 28.1665C103.12 28.1665 103.186 28.1897 103.235 28.2311C103.285 28.2726 103.313 28.329 103.315 28.3883C103.315 28.4476 103.288 28.5045 103.239 28.547C103.191 28.5894 103.126 28.6139 103.057 28.6152C102.732 28.6339 102.417 28.7195 102.14 28.865C101.862 29.0105 101.629 29.2114 101.461 29.4508C101.434 29.4846 101.397 29.5113 101.353 29.5277C101.31 29.5442 101.262 29.5497 101.215 29.5436Z" fill="#263238"/>
<path d="M102.887 32.1791C103.297 33.0491 103.844 33.8665 104.513 34.6084C104.288 34.7473 104.031 34.8423 103.76 34.8869C103.488 34.9314 103.209 34.9244 102.941 34.8663L102.887 32.1791Z" fill="#FF5652"/>
<path d="M102.497 31.5239C102.497 31.9056 102.743 32.215 103.031 32.215C103.319 32.215 103.553 31.9056 103.541 31.5239C103.529 31.1422 103.295 30.8328 103.007 30.8328C102.719 30.8328 102.497 31.1422 102.497 31.5239Z" fill="#263238"/>
<path d="M102.857 30.8536L103.919 30.5906C103.919 30.5906 103.385 31.3075 102.857 30.8536Z" fill="#263238"/>
<path d="M123.755 182.661L129.077 181.088L125.321 170.912L120.005 172.49L123.755 182.661Z" fill="#FF8B7B"/>
<path d="M80.5855 181.511H86.0755L85.4695 170.577H79.9795L80.5855 181.511Z" fill="#FF8B7B"/>
<path d="M86.5071 180.965H80.3331C80.2282 180.964 80.1265 180.996 80.047 181.055C79.9675 181.113 79.9157 181.195 79.9011 181.284L79.2651 185.483C79.2543 185.589 79.2694 185.697 79.3094 185.798C79.3494 185.9 79.4134 185.993 79.4974 186.072C79.5815 186.151 79.6837 186.214 79.7976 186.257C79.9115 186.301 80.0346 186.323 80.1591 186.324C82.3131 186.293 83.3451 186.184 86.0571 186.184C87.7311 186.184 90.1671 186.329 92.4771 186.329C94.7871 186.329 94.8771 184.374 93.9111 184.193C89.5911 183.399 88.8951 182.3 87.4251 181.253C87.1664 181.07 86.8425 180.968 86.5071 180.965Z" fill="#263238"/>
<path d="M128.382 179.232L122.676 181.553C122.577 181.587 122.496 181.652 122.451 181.736C122.405 181.819 122.398 181.914 122.43 182.001L123.9 185.942C123.946 186.041 124.016 186.132 124.105 186.207C124.194 186.282 124.301 186.34 124.418 186.378C124.534 186.416 124.659 186.432 124.784 186.426C124.908 186.421 125.03 186.393 125.142 186.344C127.116 185.514 128.022 185.029 130.542 184.018C132.084 183.394 135.342 182.233 137.49 181.372C139.638 180.511 138.744 178.747 137.766 178.948C133.386 179.861 131.262 179.531 129.366 179.154C129.037 179.086 128.691 179.113 128.382 179.232Z" fill="#263238"/>
<path opacity="0.2" d="M125.321 170.917L127.337 176.364L121.937 177.736L119.999 172.49L125.321 170.917Z" fill="black"/>
<path opacity="0.2" d="M79.9795 170.582H85.4695L85.7815 176.214H80.2915L79.9795 170.582Z" fill="black"/>
<path d="M78.4426 46.6103C76.1566 47.0023 73.6426 54.0116 73.6426 54.0116L80.0626 60.0101C80.0626 60.0101 85.4626 53.4804 84.3886 51.0253C83.2966 48.4825 81.1426 46.1512 78.4426 46.6103Z" fill="#0095E8"/>
<path opacity="0.2" d="M78.4426 46.6103C76.1566 47.0023 73.6426 54.0116 73.6426 54.0116L80.0626 60.0101C80.0626 60.0101 85.4626 53.4804 84.3886 51.0253C83.2966 48.4825 81.1426 46.1512 78.4426 46.6103Z" fill="black"/>
<path opacity="0.4" d="M82.0328 51.1598C83.1908 50.2726 83.9708 50.5563 84.4988 51.2836C85.0088 53.3879 81.8708 57.7204 80.6048 59.3606C80.0408 57.3697 79.4048 53.1765 82.0328 51.1598Z" fill="black"/>
<path d="M107.784 48.2403C108.192 50.3034 108.282 56.5907 104.532 75.6588L82.2063 75.3029C82.6383 67.5096 82.6803 62.7026 78.4443 46.6311C81.5764 46.1293 84.7468 45.8242 87.9303 45.7181C91.3089 45.5713 94.6954 45.6299 98.0643 45.8935C101.31 46.1978 104.874 46.8064 106.464 47.0953C106.792 47.151 107.093 47.2899 107.328 47.494C107.564 47.698 107.722 47.958 107.784 48.2403Z" fill="#0095E8"/>
<path opacity="0.2" d="M107.784 48.2403C108.192 50.3034 108.282 56.5907 104.532 75.6588L82.2063 75.3029C82.6383 67.5096 82.6803 62.7026 78.4443 46.6311C81.5764 46.1293 84.7468 45.8242 87.9303 45.7181C91.3089 45.5713 94.6954 45.6299 98.0643 45.8935C101.31 46.1978 104.874 46.8064 106.464 47.0953C106.792 47.151 107.093 47.2899 107.328 47.494C107.564 47.698 107.722 47.958 107.784 48.2403Z" fill="black"/>
<path d="M87.571 30.2604C87.997 34.9385 88.063 36.9242 90.853 39.3174C95.053 42.9278 101.653 41.5249 102.853 36.852C103.939 32.6433 103.057 25.701 97.699 23.8493C96.5304 23.4292 95.2551 23.2765 93.9974 23.4061C92.7397 23.5357 91.5425 23.9432 90.5225 24.5889C89.5026 25.2345 88.6946 26.0963 88.1773 27.0903C87.66 28.0842 87.4511 29.1764 87.571 30.2604Z" fill="#FF8B7B"/>
<path d="M89.0086 21.6626C83.1046 22.0391 81.7366 28.0015 84.0346 31.8079C80.3746 36.5943 80.8186 38.3221 81.9886 39.4362C83.9986 41.3652 94.3426 43.6862 100.535 39.6786C103.301 37.8889 98.1766 31.5242 98.1766 31.5242C98.1766 31.5242 101.159 20.8735 89.0086 21.6626Z" fill="#263238"/>
<path d="M82.5548 39.627C80.8808 39.627 80.2868 38.9153 80.0948 38.286C79.4948 36.2229 82.4948 32.2205 85.4948 31.1116C85.5721 31.0912 85.6554 31.0959 85.729 31.1249C85.8025 31.1538 85.8611 31.2049 85.8937 31.2686C85.9263 31.3322 85.9305 31.4039 85.9056 31.47C85.8808 31.5362 85.8285 31.5922 85.7588 31.6274C83.1008 32.6125 80.1908 36.3828 80.7368 38.1416C80.9588 38.8637 81.7748 39.1732 83.1368 39.0287C83.2235 39.0215 83.3099 39.044 83.3773 39.0914C83.4448 39.1387 83.4877 39.207 83.4968 39.2815C83.5018 39.3181 83.4983 39.3552 83.4865 39.3906C83.4747 39.4261 83.4548 39.4591 83.428 39.4879C83.4012 39.5167 83.3681 39.5406 83.3304 39.5583C83.2928 39.576 83.2515 39.5871 83.2088 39.5909C82.9868 39.6116 82.7588 39.627 82.5548 39.627Z" fill="#263238"/>
<path d="M91.463 33.6387L84.965 33.8244C84.709 33.8321 84.4539 33.7951 84.2149 33.7156C83.976 33.6362 83.7583 33.516 83.575 33.3622C83.3916 33.2084 83.2464 33.0243 83.1481 32.821C83.0498 32.6176 83.0004 32.3993 83.003 32.1791C83.0055 31.727 83.2099 31.293 83.5738 30.9666C83.9378 30.6403 84.4337 30.4466 84.959 30.4254L91.457 30.2398C91.713 30.2321 91.9682 30.2691 92.2071 30.3485C92.446 30.428 92.6637 30.5482 92.8471 30.702C93.0305 30.8557 93.1757 31.0398 93.274 31.2432C93.3723 31.4465 93.4216 31.6649 93.419 31.8851C93.4165 32.3372 93.2122 32.7712 92.8482 33.0975C92.4842 33.4238 91.9884 33.6176 91.463 33.6387Z" fill="#0095E8"/>
<path d="M89.7412 23.3646C91.9552 20.404 97.7512 19.5117 101.417 21.3685C105.707 23.5399 105.617 27.8982 98.3752 30.3378C90.4972 33.0095 89.7412 23.3646 89.7412 23.3646Z" fill="#263238"/>
<path d="M99.5998 30.286C100.478 30.9367 101.092 31.8112 101.352 32.7824C101.676 34.0151 100.752 33.85 99.6898 33.3446C98.7298 32.8907 97.2298 31.9932 97.2898 30.9668C97.3498 29.9405 98.6578 29.5897 99.5998 30.286Z" fill="#FF8B7B"/>
<path d="M98.6351 75.556C98.6351 75.556 95.2331 107.874 91.8011 126.066C89.0291 140.755 86.6831 175.126 86.6831 175.126H79.1951C79.1951 175.126 76.7531 141.601 78.2051 127.025C81.8891 90.2039 74.2511 87.068 82.2071 75.2826L98.6351 75.556Z" fill="#263238"/>
<path opacity="0.4" d="M91.0206 86.361C92.9706 88.8264 95.5746 91.6683 96.4206 94.6701C95.7486 100.122 94.9626 106.151 94.1106 111.949C92.0466 107.074 88.5186 97.3315 91.0206 86.361Z" fill="black"/>
<path d="M104.533 75.6589C104.533 75.6589 111.835 111.031 114.901 125.204C118.087 139.94 127.129 172.743 127.129 172.743L119.659 176.044C119.659 176.044 104.209 136.433 102.367 129C97.4951 113.47 83.5391 75.303 83.5391 75.303L104.533 75.6589Z" fill="#263238"/>
<path d="M128.676 174.12L119.598 177.23L117.834 174.512L127.548 171.175L128.676 174.12Z" fill="#0095E8"/>
<path d="M87.7071 175.255H78.1731L77.6211 172.377L87.7131 172.083L87.7071 175.255Z" fill="#0095E8"/>
<path d="M81.8817 74.1527L80.8617 75.8496C80.7837 75.9785 80.9697 76.1178 81.2277 76.1229L104.628 76.5201C104.832 76.5201 105 76.4376 105.012 76.3292L105.222 74.622C105.222 74.5034 105.066 74.4003 104.844 74.3951L82.2417 74.0134C82.1727 74.007 82.103 74.0165 82.0397 74.041C81.9764 74.0655 81.9219 74.104 81.8817 74.1527Z" fill="#0095E8"/>
<path d="M84.9066 76.3705H84.3066C84.1866 76.3705 84.0906 76.3138 84.1026 76.2519L84.4026 74.0289C84.4026 73.9619 84.5166 73.9103 84.6366 73.9103H85.2366C85.3566 73.9103 85.4466 73.967 85.4406 74.0341L85.1406 76.2571C85.1286 76.3344 85.0266 76.3757 84.9066 76.3705Z" fill="#263238"/>
<path d="M99.5754 76.618H98.9754C98.8554 76.618 98.7654 76.5612 98.7774 76.4993L99.0714 74.2763C99.0714 74.2093 99.1854 74.1577 99.3114 74.1577H99.9114C100.037 74.1577 100.127 74.2145 100.115 74.2815L99.8154 76.5045C99.8034 76.5715 99.6954 76.6231 99.5754 76.618Z" fill="#263238"/>
<path d="M110.617 50.6592C111.295 51.6443 112.015 52.7223 112.753 53.7074C113.491 54.6925 114.223 55.7344 114.997 56.7144C115.771 57.6943 116.569 58.664 117.397 59.5975C118.225 60.5311 119.065 61.4131 119.947 62.2228C120.667 62.8211 121.556 63.2477 122.527 63.4607C123.749 63.7566 125.004 63.9433 126.271 64.0177C129 64.1781 131.739 64.1401 134.461 63.9043L135.061 66.2356C132.187 67.0391 129.204 67.5159 126.187 67.6539C124.58 67.7289 122.969 67.6406 121.387 67.3909C120.519 67.244 119.67 67.021 118.855 66.7255C117.945 66.3905 117.108 65.9268 116.377 65.3536C114.167 63.5617 112.174 61.5812 110.431 59.4428C108.687 57.3803 107.1 55.2233 105.679 52.9853L110.617 50.6592Z" fill="#FF8B7B"/>
<path d="M107.419 47.2088C112.747 47.936 114.949 54.4709 114.949 54.4709L108.547 59.7731C108.547 59.7731 101.299 54.0531 101.299 50.4118C101.299 47.7039 104.515 46.8117 107.419 47.2088Z" fill="#0095E8"/>
<path opacity="0.2" d="M107.419 47.2088C112.747 47.936 114.949 54.4709 114.949 54.4709L108.547 59.7731C108.547 59.7731 101.299 54.0531 101.299 50.4118C101.299 47.7039 104.515 46.8117 107.419 47.2088Z" fill="black"/>
<path d="M140.771 60.9334C140.699 61.7534 140.573 62.5632 140.435 63.3678C140.297 64.1724 140.129 64.9719 139.955 65.7662C139.781 66.5605 139.583 67.3547 139.355 68.1439C139.127 68.933 139.169 69.7737 138.155 70.3669C137.993 70.4444 137.806 70.4742 137.623 70.4519C137.44 70.4295 137.271 70.3562 137.141 70.2431C137.09 70.1981 137.045 70.1478 137.009 70.0935C136.409 69.1135 136.931 68.3966 137.099 67.6023C137.267 66.808 137.573 66.055 137.831 65.2607C138.089 64.4664 138.365 63.7134 138.659 62.9449C138.953 62.1764 139.259 61.3976 139.625 60.66C139.702 60.5576 139.819 60.4821 139.956 60.4472C140.092 60.4122 140.238 60.42 140.369 60.4692C140.482 60.5031 140.581 60.5655 140.652 60.6482C140.724 60.731 140.765 60.8303 140.771 60.9334Z" fill="#263238"/>
<path d="M140.851 61.8051L139.051 61.5524C138.781 61.5111 138.649 61.2275 138.751 60.918C138.853 60.6085 139.159 60.4022 139.429 60.4022L141.229 60.6601C141.499 60.6962 141.631 60.9799 141.529 61.2945C141.427 61.6246 141.121 61.8464 140.851 61.8051Z" fill="#263238"/>
<path d="M143.849 49.5657C141.113 48.8849 137.945 50.8706 136.781 54.0065C135.617 57.1424 136.889 60.2371 139.625 60.9179C142.361 61.5987 145.529 59.6078 146.699 56.4771C147.869 53.3463 146.591 50.2465 143.849 49.5657ZM139.961 60.0205C137.651 59.4479 136.583 56.8433 137.561 54.2025C138.539 51.5618 141.209 49.8906 143.513 50.4632C145.817 51.0357 146.897 53.6403 145.913 56.2811C144.929 58.9219 142.265 60.593 139.961 60.0205Z" fill="#0095E8"/>
<path opacity="0.1" d="M140.597 60.3456C138.437 59.8298 137.429 57.3644 138.347 54.8939C139.265 52.4233 141.767 50.8451 143.933 51.3866C146.099 51.9282 147.101 54.3678 146.177 56.8384C145.253 59.3089 142.757 60.8614 140.597 60.3456Z" fill="#0095E8"/>
<path d="M132.732 66.4057L138.612 67.3495L139.212 63.1099C139.212 63.1099 134.376 63.3523 132.714 64.6572L132.732 66.4057Z" fill="#FF8B7B"/>
<path d="M140.087 67.3397L141.125 64.5235C141.164 64.4293 141.163 64.3265 141.124 64.2326C141.085 64.1386 141.009 64.0592 140.909 64.0078L139.229 63.0948L138.629 67.3345L139.439 67.6027C139.565 67.6409 139.704 67.6347 139.826 67.5855C139.947 67.5363 140.041 67.448 140.087 67.3397Z" fill="#FF8B7B"/>
<defs>
<clipPath id="clip0_3774_42501">
<rect width="16.6186" height="14.2857" fill="white" transform="translate(266.835 185.714)"/>
</clipPath>
<clipPath id="clip1_3774_42501">
<rect width="16.6186" height="14.2857" fill="white" transform="translate(17.1172 185.714)"/>
</clipPath>
</defs>
</svg>
